<?xml version="1.0" encoding="utf-8"?>
<!-- Generator: Adobe Illustrator 26.0.1, SVG Export Plug-In . SVG Version: 6.00 Build 0)  -->
<svg version="1.1" id="Layer_1" xmlns="http://www.w3.org/2000/svg" xmlns:xlink="http://www.w3.org/1999/xlink" x="0px" y="0px"
	 viewBox="0 0 595.3 595.3" style="enable-background:new 0 0 595.3 595.3;" xml:space="preserve">
<style type="text/css">
	.st0{fill:#59A0A3;}
</style>
<path class="st0" d="M558.9,210c0-16.4-13.3-29.7-29.7-29.8c-5,0-9.9,1.2-14.2,3.6c-3,1.6-4.7,1.3-7.3-0.4
	c-19.7-13.5-39.4-26.9-59.2-40.1c-3.1-2.1-4.3-4-3.9-7.9c2.3-16.2-9-31.1-25.2-33.4c-16.2-2.3-31.1,9-33.4,25.2
	c-0.6,3.1-2,4.3-4.8,5.1c-23.9,6.9-47.7,13.9-71.5,20.9c-3.1,0.9-5.2,0.9-7.7-1.8c-9.6-10.4-25.3-12.3-37-4.4
	c-2.9,1.9-4.7,1.6-7.3,0c-17.3-10.2-34.7-20.4-52.3-30.3c-3.5-1.7-5.9-5.2-6.2-9.1c-2.4-16.2-17.4-27.5-33.6-25.1
	S138,100,140.4,116.2c0.2,1.7,0.6,3.4,1.2,5c1,3,0.2,4.3-2.1,5.9c-18.1,12.9-36.2,26-54.2,39c-1.7,1.5-4.2,1.6-6,0.3
	c-6.1-3.4-13.3-4.5-20.1-2.9c-16,3.5-26.2,19.1-23.2,35.1c3,15.9,19,26.5,35.3,23.6c15.5-2.8,26.6-18.7,23.6-34.1
	c-0.5-2.7-0.1-4,2.1-5.6c19.1-13.6,38.2-27.4,57.2-41.2c1.7-1.5,4.1-1.9,6.2-1c10.7,3.6,20.6,1.7,29.1-5.9c2.1-1.9,3.5-1.7,5.8-0.4
	c17.5,10.3,35.1,20.5,52.8,30.5c2.8,1.6,3.3,3.3,3.2,6.2c-0.6,15.9,10.5,29.1,25.8,30.9c16.4,1.9,29.6-7.8,33-24.2
	c0.5-2.4,1.2-3.8,4-4.6c24.5-7,49-14.3,73.5-21.5c2.1-0.8,4.5-0.2,5.9,1.6c10.2,10.7,23.6,12.8,36.5,5.7c1.7-1.2,4-1.2,5.6,0.2
	c20.7,14.1,41.4,28.2,62.2,42.2c1.7,0.9,2.5,2.8,1.9,4.6c-2.6,16.3,8.6,31.5,24.8,34.1c16.3,2.6,31.5-8.6,34.1-24.8
	C558.9,213.3,559,211.7,558.9,210L558.9,210z M134,366.6c0,41.6,0,83.3,0,124.9c0,8.5,2.4,11,10.7,11c16.7,0,33.4,0,50.2,0
	c8.3,0,10.7-2.5,10.8-11c0-83.3,0-166.6,0-249.8c0-8.7-2.5-11-11.3-11c-16.2,0-32.4,0-48.6,0c-9.7,0-11.8,2.2-11.8,12.1
	C133.9,284.1,134,325.3,134,366.6z M372.5,366.6c0,41.6,0,83.3,0,124.9c0,8.5,2.4,11,10.7,11c16.7,0,33.4,0,50.2,0
	c8.3,0,10.8-2.6,10.8-11c0-83.3,0-166.5,0-249.8c0-8.5-2.5-11-10.8-11c-16.4,0-32.7,0-49.1,0c-9.7,0-11.8,2.2-11.8,12.1L372.5,366.6
	z M251,395c0,32.4,0,64.8,0,97.2c0,7.7,2.6,10.3,10.3,10.3c16.7,0,33.4,0,50.2,0c8.8,0,11.2-2.4,11.2-11.1c0-64.3,0-128.5,0-192.8
	c0-8.7-2.5-11.2-11.2-11.2c-16.4,0-32.7,0-49.1,0c-9.1,0-11.4,2.3-11.4,11.4C251,330.9,251,362.9,251,395L251,395z M101.3,413.2
	c0-25.8,0-51.6,0-77.4c0-9.7-2.3-11.9-12.1-11.9c-16.2,0-32.4,0-48.6,0c-8.4,0-11.1,2.6-11.1,10.7c0,52.5,0,104.9,0,157.4
	c0,8,2.6,10.5,10.7,10.5c16.5,0,33.1,0,49.7,0c9,0,11.4-2.4,11.4-11.5C101.4,465.1,101.4,439.1,101.3,413.2z"/>
<path class="st0" d="M564.9,498.4c-3.7,3.7-8.2,4.3-13.3,4.3c-16-0.3-32-0.1-48-0.1c-7.7,0-10.5-2.7-10.5-10.2
	c0-52.8,0-105.5,0-158.2c0-7.5,2.9-10.2,10.6-10.2c16.5,0,33.1,0.1,49.7-0.1c4.9-0.1,8.7,1.2,11.6,5.2L564.9,498.4z"/>
<path class="st0" d="M558.9,210c0.1,16.5-13.1,29.9-29.6,30.1c-16.5,0.1-29.9-13.1-30.1-29.6c0-1.6,0.1-3.3,0.4-4.9
	c0.6-1.8-0.3-3.8-1.9-4.6c-20.8-14-41.5-28.1-62.2-42.2c-1.6-1.3-3.9-1.4-5.6-0.2c-13,7.1-26.3,5-36.5-5.7c-1.4-1.8-3.8-2.4-5.9-1.6
	c-24.5,7.3-49,14.5-73.5,21.5c-2.8,0.8-3.5,2.2-4,4.6c-3.4,16.3-16.7,26-33,24.2c-15.3-1.8-26.3-14.9-25.8-30.9
	c0.1-2.9-0.4-4.6-3.2-6.2c-17.7-10-35.3-20.3-52.8-30.5c-2.3-1.3-3.7-1.5-5.8,0.4c-8.5,7.6-18.4,9.4-29.1,5.9
	c-2.1-0.8-4.5-0.4-6.2,1c-19,13.8-38.1,27.6-57.2,41.3c-2.2,1.6-2.6,3-2.1,5.6c3,15.4-8.1,31.3-23.6,34.1
	C55,225.1,39,214.5,36,198.6c-3-16,7.2-31.6,23.2-35c6.8-1.6,14-0.6,20.1,2.8c1.8,1.3,4.3,1.2,5.9-0.3c18-13.1,36.1-26.1,54.2-39
	c2.3-1.6,3-2.9,2.1-5.9c-5.1-15.6,3.3-32.3,18.9-37.5s32.3,3.3,37.5,18.9c0.5,1.6,0.9,3.3,1.2,5c0.3,3.9,2.6,7.4,6.2,9.1
	c17.6,9.9,35,20.1,52.3,30.3c2.7,1.6,4.5,1.9,7.3,0c11.7-7.9,27.5-6,37,4.4c2.5,2.7,4.5,2.7,7.7,1.8c23.8-7.1,47.7-14,71.5-20.9
	c2.8-0.8,4.2-2,4.8-5.1c2.3-16.2,17.3-27.4,33.5-25.2c16.2,2.3,27.4,17.3,25.2,33.5c-0.4,3.9,0.8,5.8,3.9,7.9
	c19.8,13.2,39.6,26.6,59.2,40.1c2.7,1.8,4.4,2,7.3,0.4c14.4-7.8,32.5-2.5,40.3,11.9C557.6,200.2,558.9,205,558.9,210z"/>
<path class="st0" d="M134,366.6c0-41.3,0-82.6,0-123.9c0-9.9,2.1-12.1,11.8-12.1c16.2,0,32.4,0,48.6,0c8.9,0,11.3,2.3,11.3,11
	c0,83.3,0,166.6,0,249.8c0,8.5-2.5,11-10.8,11c-16.7,0-33.4,0-50.2,0c-8.4,0-10.7-2.5-10.7-11C134,449.9,134,408.3,134,366.6z"/>
<path class="st0" d="M372.5,366.6V242.8c0-9.9,2.1-12.1,11.8-12.1c16.4,0,32.7,0,49.1,0c8.3,0,10.8,2.5,10.8,11
	c0,83.3,0,166.5,0,249.8c0,8.4-2.6,11-10.8,11c-16.7,0-33.4,0-50.2,0c-8.4,0-10.7-2.5-10.7-11C372.5,449.9,372.5,408.3,372.5,366.6z
	"/>
<path class="st0" d="M251,395c0-32.1,0-64.1,0-96.1c0-9.1,2.3-11.4,11.4-11.4c16.4,0,32.7,0,49.1,0c8.7,0,11.2,2.5,11.2,11.2
	c0,64.3,0,128.5,0,192.8c0,8.7-2.4,11.1-11.2,11.1c-16.7,0-33.4,0-50.2,0c-7.7,0-10.3-2.6-10.3-10.3C251,459.8,251,427.4,251,395z"
	/>
<path class="st0" d="M101.3,413.2c0,25.9,0,51.9,0,77.9c0,9.1-2.4,11.5-11.4,11.5c-16.5,0-33.1,0-49.7,0c-8.1,0-10.7-2.6-10.7-10.5
	c0-52.5,0-104.9,0-157.4c0-8.2,2.7-10.7,11.1-10.7c16.2,0,32.4,0,48.6,0c9.8,0,12.1,2.3,12.1,11.9
	C101.3,361.6,101.4,387.3,101.3,413.2z"/>
</svg>
