<svg id="Layer_1" data-name="Layer 1" xmlns="http://www.w3.org/2000/svg" viewBox="0 0 398.92 313.24"><defs><style>.cls-1{fill:#59a0a3;}</style></defs><path class="cls-1" d="M409.31,149.48A22.14,22.14,0,0,0,376.6,130c-2.2,1.2-3.5,1-5.45-.29q-22-15.08-44.11-29.88c-2.33-1.55-3.2-3-2.9-5.9a22,22,0,0,0-43.63-6.1c-.42,2.28-1.5,3.18-3.57,3.78q-26.67,7.69-53.29,15.58c-2.32.69-3.84.65-5.7-1.36a21.34,21.34,0,0,0-27.6-3.26c-2.14,1.42-3.47,1.17-5.46,0C172,95,159,87.39,145.89,80a8.14,8.14,0,0,1-4.6-6.77,22.11,22.11,0,1,0-42.88,10.1c.73,2.23.16,3.18-1.53,4.38q-20.26,14.46-40.41,29.09A3.48,3.48,0,0,1,52,117a21.05,21.05,0,0,0-15-2.15A22.47,22.47,0,0,0,19.73,141C22,152.84,33.86,160.78,46,158.58c11.53-2.1,19.79-13.93,17.57-25.43-.38-2-.07-3,1.56-4.18q21.39-15.24,42.65-30.66a4.49,4.49,0,0,1,4.6-.78c8,2.66,15.37,1.27,21.71-4.38,1.58-1.42,2.62-1.25,4.3-.27,13.07,7.66,26.16,15.29,39.34,22.76,2.07,1.17,2.45,2.43,2.37,4.6-.43,11.88,7.82,21.67,19.2,23,12.19,1.4,22.09-5.81,24.6-18,.37-1.78.92-2.84,3-3.43,18.28-5.24,36.53-10.64,54.77-16a3.76,3.76,0,0,1,4.37,1.19c7.58,8,17.56,9.55,27.21,4.24a3.41,3.41,0,0,1,4.16.12q23.12,15.8,46.33,31.45a2.9,2.9,0,0,1,1.45,3.45,22.23,22.23,0,1,0,44.19,3.28ZM92.72,266.2q0,46.53,0,93.07c0,6.33,1.8,8.17,8,8.17q18.69,0,37.38,0c6.19,0,8-1.85,8.05-8.18q0-93.08,0-186.14c0-6.45-1.84-8.18-8.45-8.19q-18.11,0-36.21,0c-7.23,0-8.8,1.61-8.8,9Q92.72,220.05,92.72,266.2Zm177.71,0q0,46.53,0,93.06c0,6.32,1.81,8.17,8,8.17q18.69,0,37.38,0c6.15,0,8.05-1.91,8.06-8.2q0-93.06,0-186.12c0-6.31-1.89-8.18-8.08-8.19q-18.3,0-36.6,0c-7.22,0-8.81,1.62-8.81,9Zm-90.5,21.12q0,36.19,0,72.41c0,5.77,1.93,7.69,7.69,7.7q18.69,0,37.37,0c6.52,0,8.32-1.77,8.32-8.28q0-71.84,0-143.65c0-6.48-1.84-8.32-8.32-8.33q-18.28,0-36.59,0c-6.79,0-8.48,1.71-8.48,8.52Q179.91,251.51,179.93,287.33ZM68.43,300.87q0-28.83,0-57.66c0-7.2-1.72-8.88-9-8.88q-18.1,0-36.22,0c-6.28,0-8.27,1.94-8.27,8q0,58.63,0,117.27c0,5.93,1.95,7.83,8,7.83q18.49,0,37,0c6.73,0,8.5-1.78,8.51-8.56Q68.44,329.9,68.43,300.87Z" transform="translate(-14.9 -54.31)"/><path class="cls-1" d="M413.82,364.37c-2.75,2.75-6.1,3.23-9.88,3.18-11.93-.19-23.86-.06-35.79-.08-5.74,0-7.84-2-7.84-7.62q0-59,0-117.9c0-5.61,2.16-7.6,7.93-7.61,12.32,0,24.64.09,37-.07,3.63-.05,6.49.91,8.62,3.87Z" transform="translate(-14.9 -54.31)"/><path class="cls-1" d="M409.31,149.48a22.23,22.23,0,1,1-44.19-3.28,2.9,2.9,0,0,0-1.45-3.45q-23.21-15.66-46.33-31.45a3.41,3.41,0,0,0-4.16-.12c-9.65,5.31-19.63,3.75-27.21-4.24a3.76,3.76,0,0,0-4.37-1.19c-18.24,5.41-36.49,10.81-54.77,16-2.05.59-2.6,1.65-3,3.43-2.51,12.18-12.41,19.39-24.6,18-11.38-1.31-19.63-11.1-19.2-23,.08-2.17-.3-3.43-2.37-4.6-13.18-7.47-26.27-15.1-39.34-22.76-1.68-1-2.72-1.15-4.3.27-6.34,5.65-13.71,7-21.71,4.38a4.49,4.49,0,0,0-4.6.78Q86.46,113.7,65.09,129c-1.63,1.16-1.94,2.21-1.56,4.18,2.22,11.5-6,23.33-17.57,25.43C33.86,160.78,22,152.84,19.73,141A22.47,22.47,0,0,1,37,114.89,21.05,21.05,0,0,1,52,117a3.48,3.48,0,0,0,4.43-.22q20.11-14.65,40.41-29.09c1.69-1.2,2.26-2.15,1.53-4.38a22.11,22.11,0,1,1,42.88-10.1,8.14,8.14,0,0,0,4.6,6.77c13.08,7.37,26.06,15,39,22.58,2,1.17,3.32,1.42,5.46,0a21.34,21.34,0,0,1,27.6,3.26c1.86,2,3.38,2,5.7,1.36q26.61-7.91,53.29-15.58c2.07-.6,3.15-1.5,3.57-3.78A22,22,0,0,1,324.14,94c-.3,2.9.57,4.35,2.9,5.9q22.17,14.77,44.11,29.88c2,1.33,3.25,1.49,5.45.29A22.14,22.14,0,0,1,409.31,149.48Z" transform="translate(-14.9 -54.31)"/><path class="cls-1" d="M92.72,266.2q0-46.14,0-92.29c0-7.37,1.57-9,8.8-9q18.1,0,36.21,0c6.61,0,8.44,1.74,8.45,8.19q0,93.07,0,186.14c0,6.33-1.86,8.18-8.05,8.18q-18.69,0-37.38,0c-6.23,0-8-1.84-8-8.17Q92.72,312.73,92.72,266.2Z" transform="translate(-14.9 -54.31)"/><path class="cls-1" d="M270.43,266.21V173.93c0-7.38,1.59-9,8.81-9q18.3,0,36.6,0c6.19,0,8.07,1.88,8.08,8.19q0,93.06,0,186.12c0,6.29-1.91,8.2-8.06,8.2q-18.69,0-37.38,0c-6.23,0-8-1.85-8-8.17Q270.43,312.74,270.43,266.21Z" transform="translate(-14.9 -54.31)"/><path class="cls-1" d="M179.93,287.33q0-35.82,0-71.63c0-6.81,1.69-8.51,8.48-8.52q18.3,0,36.59,0c6.48,0,8.32,1.85,8.32,8.33q0,71.82,0,143.65c0,6.51-1.8,8.28-8.32,8.28q-18.69,0-37.37,0c-5.76,0-7.69-1.93-7.69-7.7Q179.9,323.53,179.93,287.33Z" transform="translate(-14.9 -54.31)"/><path class="cls-1" d="M68.43,300.87q0,29,0,58.05c0,6.78-1.78,8.55-8.51,8.56q-18.49,0-37,0c-6.06,0-8-1.9-8-7.83q0-58.63,0-117.27c0-6.1,2-8,8.27-8q18.1,0,36.22,0c7.31,0,9,1.68,9,8.88Q68.44,272,68.43,300.87Z" transform="translate(-14.9 -54.31)"/></svg>