<?xml version="1.0" encoding="utf-8"?>
<!-- Generator: Adobe Illustrator 25.2.1, SVG Export Plug-In . SVG Version: 6.00 Build 0)  -->
<svg version="1.1" id="Layer_1" xmlns="http://www.w3.org/2000/svg" xmlns:xlink="http://www.w3.org/1999/xlink" x="0px" y="0px"
	 viewBox="0 0 548 608" style="enable-background:new 0 0 548 608;" xml:space="preserve">
<style type="text/css">
	.st0{fill:#91DCD5;stroke:#FFFFFF;stroke-width:1.0479;stroke-miterlimit:10;}
	.st1{display:none;}
	.st2{display:inline;fill:#FFFFFF;}
	.st3{display:inline;}
	.st4{fill:#FFFFFF;stroke:#000000;stroke-miterlimit:10;}
	.st5{fill:#58A0A3;}
	.st6{fill:none;stroke:#FFFFFF;stroke-width:6.6162;stroke-miterlimit:10;}
	.st7{fill:#FFFFFF;stroke:#FFFFFF;stroke-width:5;stroke-miterlimit:10;}
	.st8{fill:#FFFFFF;stroke:#FFFFFF;stroke-width:4;stroke-miterlimit:10;}
	.st9{fill:#FFFFFF;stroke:#FFFFFF;stroke-width:4.1351;stroke-miterlimit:10;}
	.st10{fill:#FFFFFF;stroke:#FFFFFF;stroke-width:2.4811;stroke-miterlimit:10;}
</style>
<rect x="0.4" y="0.6" class="st0" width="548" height="608"/>
<g id="Layer_1_1_" class="st1">
	<path class="st2" d="M299.8,320.1"/>
	<g class="st3">
		<path class="st4" d="M197,247.5c0.4,0,41.1-2.5,57.8,10.3c0.1,0,0.1,0.1,0.2,0.1c12,10,27.3,15.9,43.9,15.9
			c16.2,0,31.4-5.7,43.4-15.5c0.1-0.1,0.2-0.1,0.3-0.2c18.6-13.8,63.6-10.7,64-10.7c2.5,0.2,4.9-1.6,5.3-4.2
			c7.3-43-9.1-80-47.4-107.1c-28.1-19.8-57.6-27.3-59.8-27.8c-2.8-0.7-7.7-1.5-11-1.5c-10,0-16.5,4.7-21.3,9.5
			c-3.1-1.1-6.4-1.6-9.6-1.6c-7.8,0-15.4,3-21,8.5c-1.8,1.6-17.3,15-31,35.7c-19.4,29-25.9,58.3-19.1,84.8
			C192.4,246.1,194.6,247.7,197,247.5z M240.2,204.9c0-16.2,6.6-31.4,18.2-42.5c17.6,16.8,54.3,47.6,97.1,58.7
			c-7.1,25-30.2,42.7-56.5,42.7C266.6,263.8,240.2,237.4,240.2,204.9z M248.6,130.8c0.1-0.1,0.2-0.2,0.3-0.3c3.7-3.7,8.7-5.7,14-5.7
			c3.1,0,6,0.7,8.8,2.1c2.1,1.1,4.7,0.4,6-1.3l0,0c5.2-6.1,9.8-8.7,16.1-8.7c2.1,0,6.2,0.6,8.5,1.2c0.1,0,0.1,0,0.2,0
			c0.3,0.1,29.5,7.2,56.4,26.3c34.1,24.1,48.9,55.3,43.9,92.8c-8.8-0.3-28.1-0.3-45.2,3.9c3.4-5.5,6-11.4,7.8-17.9
			c5.8,1.1,11.6,1.7,17.6,1.8h0.1c2.8,0,5-2.2,5.1-4.9c0.1-2.8-2.1-5.1-4.9-5.2c-66.4-1.7-127.8-69.9-128.4-70.5
			c-1.9-2.1-5.1-2.2-7.1-0.4c-2.1,1.8-2.2,5.1-0.4,7.1c0.3,0.4,1.7,1.9,3.9,4.2c-13.4,12.9-21.2,30.8-21.2,49.7
			c0,13.1,3.7,25.4,10.1,35.8c-15.1-3.7-31.8-3.7-39.5-3.5C189.5,181.3,248,131.3,248.6,130.8z"/>
		<path class="st4" d="M500.9,490.8c1.1-0.7,8.7-1.4,8.8-8.3l-0.3-38.5c-0.8-10-7.5-10.8-22-10.8h-20.2c2.8-3.3,4.3-7.7,3.8-12.6
			c-1-8.4-8.4-14.6-16.8-14.6h-0.8c4.6-3.4,8.2-8.2,10.3-13.9c1.5-3.9,2-8,1.8-12.3c-0.7-10.2-6-18.8-14.5-24l-32.7-20l-89-53.4
			c-9.5-3.6-20-5.5-30.7-5.5c-13.7,0-27.3,3.3-39.3,9.2v-13.7c0-9.3-7.6-16.9-16.9-16.9h-169c-9.3,0-16.9,7.6-16.9,16.9v116.3
			c0,9.3,7.6,16.9,16.9,16.9h55.1v27.3h-70c-9.3,0-18.6,6.6-18.6,15.9l0.1,28.7c0,8.9-0.1,4.4,0,10c0,0.6,0.2,1.3,0.5,1.8l1.2,1.3
			 M442.6,490.8h63.6 M356.8,490.8h74.3 M274.5,490.8h47.1 M165.1,490.8h74.3 M454.4,416.2c4,0,7.1,3.6,6.2,7.7
			c-0.6,3.1-3.5,5.1-6.6,5.1h-27c-3.1,0-5.9-2-6.6-5.1c-0.8-4.1,2.3-7.7,6.2-7.7H454.4z M445.4,364.7c5.7,3.5,9.4,9.6,9.7,16.6
			c0.1,2.5-0.3,5.1-1.2,7.4c-2.4,6.7-7.7,11.3-14.4,12.9c-5.3,1.3-10.7,0.4-15.4-2.4l-35.4-21.5l-14.3-48.8c-1-3.4-2.2-6.7-3.8-9.7
			L445.4,364.7z M414.1,433.3h-8.9l0,0l-12.1-41.2l25.9,15.8c0.1,0,0.2,0.1,0.2,0.1c-5.3,2.8-9,8.3-9,14.7
			C410.1,426.7,411.6,430.4,414.1,433.3z M258.9,389v-91.2c11.6-6.8,25.4-10.6,39.3-10.6c17.9,0,34.6,6,47.1,16
			c0.1,0.1,0.1,0.1,0.2,0.2c9.3,7.5,16.2,17.2,19.4,28.2l29.9,101.7H201.6l2.3-7.9h129.6c2.4,0,4.7-1.6,5.1-4c0.6-3.3-1.8-6.1-5-6.1
			H206.8l2.8-9.3H242C251.2,405.9,258.9,398.4,258.9,389z M73.4,395.9c-3.8,0-6.8-3.1-6.8-6.8v-9.2h108.9c2.4,0,4.7-1.6,5.1-4
			c0.6-3.3-1.8-6.1-5-6.1h-109v-97c0-3.8,3.1-6.8,6.8-6.8h168.5c3.8,0,6.8,3.1,6.8,6.8v5.3h-39.6c-2.4,0-4.7,1.6-5.1,4
			c-0.6,3.3,1.8,6.1,5,6.1h39.7v101c0,3.8-3.1,6.8-6.8,6.8L73.4,395.9L73.4,395.9z M199,405.9l-8,27.3h-4.2v-27.3H199z M176.7,405.9
			v27.3h-38.2v-27.3H176.7z M500.9,476.4c0,3.8-4.8,5.2-8.6,5.2l-439.7-0.8c-3.8,0-3.3-1.4-3.3-5.1l0.1-8h185.3c2.4,0,4.7-1.6,5.1-4
			c0.6-3.3-1.8-6.1-5-6.1l-185.3-1.8l-0.1-7c0-3.8,3.4-6.1,7.1-6.1l433.5,0.8c3.8,0,10.2-0.8,10.2,5.9L500.9,476.4z"/>
		<path class="st4" d="M160.1,312.5c-11.3,0-20.4,9.2-20.4,20.4c0,11.2,9.2,20.4,20.4,20.4s20.4-9.2,20.4-20.4
			S171.3,312.5,160.1,312.5z M160.1,343.4c-5.7,0-10.4-4.7-10.4-10.4c0-5.7,4.7-10.4,10.4-10.4s10.4,4.7,10.4,10.4
			C170.5,338.7,165.8,343.4,160.1,343.4z"/>
	</g>
</g>
<rect x="12.6" y="248.5" class="st5" width="14.9" height="86.9"/>
<g>
	
		<rect x="504" y="277.7" transform="matrix(0.7071 0.7071 -0.7071 0.7071 368.3873 -270.9402)" class="st5" width="14.5" height="63"/>
	
		<rect x="504" y="243.2" transform="matrix(0.7071 -0.7071 0.7071 0.7071 -44.573 441.994)" class="st5" width="14.5" height="63.2"/>
</g>
<path class="st6" d="M325.9,216.5c0,32.9-16.4,64.4-59.5,64.4c-32.9,0-64.1-28.3-51.1-84"/>
<path class="st6" d="M197,177.1c2.8,4.5,13.8,21.8,34.9,27.1c23.8,6,50.7-5.8,66.1-30c-0.2,4.6-0.1,15.1,6.5,25.1
	c4.1,6.5,14.3,18,22.2,15.4c7.8-2.5,11.6-18.7,6.6-30.1c-4.9-11.2-18.5-18.3-34.1-16.9c0.2-2.5,0.3-7.8-3-11.8
	c-2.8-3.4-7.1-4.5-14.2-5.1c-15.2-1.3-26.3-2.2-38.6,4c-10.4,5.2-9.7,9.6-20.7,15.4C213.1,175.5,203.6,176.8,197,177.1z"/>
<path class="st6" d="M214.9,294.4c34.2-0.2,68.4-0.4,102.6-0.7c4,0.2,10.8,1.2,17.9,5.3c12.5,7.2,17.2,18.8,18.5,22.5
	c11.2,21.4,22.5,42.8,33.7,64.1c1.7,3.1,4.6,9.9,4,18.5c-0.2,2.2-0.5,6.4-3,10.9c-4.4,8.2-12.2,11.3-14.9,12.2
	c-18.6,0.2-37.1,0.2-55.8,0.4c-12.4-1.5-21.7-8.7-23-17c-1-6.7,3.5-13.6,4.3-14.9c2.6-4.1,6.1-6.6,8.4-8.5c3.3-2.5,6.3-4.1,8.5-5.1
	c0.1,0,0.8,0,0.8,0c21.4-0.5,28.3-0.5,28.3-0.7s-7.2-0.5-30.5-1c0-8.7,0-17.3,0-26c-0.1-5.7-0.1-11.4-0.2-17.1c0-0.6-0.1-2.9-1.8-5
	c-2-2.3-4.7-2.5-5.2-2.5c-24.7,0.3-49.5,0.7-74.3,1c-1.2,0.2-3.2,0.7-4.9,2.2c-2.5,2.4-2.8,5.8-2.9,7.7c-0.3,6.1-0.6,20.4-0.2,39.3
	c-16.8,0.3-33.5,0.8-50.3,1.1c16.8,0,33.6,0,50.3,0c2.3,0.8,8.2,3.3,12.1,9.4c4.1,6.5,3.5,13.1,3.3,16.5c-0.2,3-0.7,7.8-4,12.6
	c-3.4,4.9-7.8,7.1-9.9,7.9c-18.5-0.7-37-1.3-55.5-2c-2.8-0.2-10.8-1-15.9-7.3c-3.9-4.8-3.9-10.4-4-17.9c-0.1-7.6,1.4-13.8,2.6-17.9
	c11.5-21.4,22.9-42.8,34.4-64.1c1.2-3.3,3.8-9.1,9.3-14.5C204.4,297.8,211.5,295.4,214.9,294.4z"/>
<path class="st6" d="M250.4,300c0.8,2.5,2.5,9.2,8.6,12.9c0.2,0.2,1,0.6,2,1.1c4.6,2.1,8.8,1.5,10.6,1.2c1.9-0.2,7.7-1.1,12.1-6
	c3.5-4,4.4-8.5,4.7-10.2c0.3-2.1,0.3-3.9,0.2-5.1c-13.1,0.1-26.2,0.2-39.3,0.2C249.5,296.7,250,298.7,250.4,300z"/>
<path class="st6" d="M258.9,315.4c-1.3,4.1-4,11.3-5.3,15.4c10-0.1,22.4-0.3,32.4-0.4c-1.5-5.2-3.8-12.6-5.4-17.7
	c-1.9,1.1-5.6,2.8-10.6,3.1c-5,0.3-8.8-0.9-10.9-1.8C259.2,314.8,258.9,314.8,258.9,315.4z"/>
<path class="st7" d="M314.5,440.5c-0.1-3.9-0.1-7.7-0.2-11.5"/>
<path class="st8" d="M226.2,440.5c0,0.8-0.8,1.4,0.2,2.2c1.5,1.2,4.7,1.3,5.1,1.2c25.9,0,51.6-0.4,77.5-0.4c0.8,0,4.1,0.2,5.7-1.8
	c0.7-0.8,0.2-0.8,0.3-1.8"/>
<path class="st9" d="M241.1,432.5"/>
<path class="st10" d="M254.4,360.8h-13.9c-1.4,0-2.5-1.2-2.5-2.5V347c0-1.4,1.2-2.5,2.5-2.5h13.9c1.4,0,2.5,1.2,2.5,2.5v11.3
	C257,359.7,255.9,360.8,254.4,360.8z"/>
<circle class="st10" cx="247.6" cy="352.6" r="5.3"/>
<path class="st7" d="M226.3,441.2c-0.1-3.9-0.1-7.7-0.2-11.5"/>
</svg>
