<?xml version="1.0" encoding="utf-8"?>
<!-- Generator: Adobe Illustrator 25.2.1, SVG Export Plug-In . SVG Version: 6.00 Build 0)  -->
<svg version="1.1" id="Layer_1" xmlns="http://www.w3.org/2000/svg" xmlns:xlink="http://www.w3.org/1999/xlink" x="0px" y="0px"
	 viewBox="0 0 548 608" style="enable-background:new 0 0 548 608;" xml:space="preserve">
<style type="text/css">
	.st0{fill:#91DCD5;stroke:#FFFFFF;stroke-width:1.0479;stroke-miterlimit:10;}
	.st1{display:none;}
	.st2{display:inline;fill:#FFFFFF;}
	.st3{display:inline;}
	.st4{fill:#FFFFFF;stroke:#000000;stroke-miterlimit:10;}
	.st5{fill:#58A0A3;}
	.st6{fill:#FFFFFF;stroke:#FFFFFF;stroke-width:4.1351;stroke-miterlimit:10;}
	.st7{fill:#FFFFFF;}
</style>
<rect x="0" y="-1.4" class="st0" width="548" height="608"/>
<g id="Layer_1_1_" class="st1">
	<path class="st2" d="M299.8,320.1"/>
	<g class="st3">
		<path class="st4" d="M197,247.5c0.4,0,41.1-2.5,57.8,10.3c0.1,0,0.1,0.1,0.2,0.1c12,10,27.3,15.9,43.9,15.9
			c16.2,0,31.4-5.7,43.4-15.5c0.1-0.1,0.2-0.1,0.3-0.2c18.6-13.8,63.6-10.7,64-10.7c2.5,0.2,4.9-1.6,5.3-4.2
			c7.3-43-9.1-80-47.4-107.1c-28.1-19.8-57.6-27.3-59.8-27.8c-2.8-0.7-7.7-1.5-11-1.5c-10,0-16.5,4.7-21.3,9.5
			c-3.1-1.1-6.4-1.6-9.6-1.6c-7.8,0-15.4,3-21,8.5c-1.8,1.6-17.3,15-31,35.7c-19.4,29-25.9,58.3-19.1,84.8
			C192.4,246.1,194.6,247.7,197,247.5z M240.2,204.9c0-16.2,6.6-31.4,18.2-42.5c17.6,16.8,54.3,47.6,97.1,58.7
			c-7.1,25-30.2,42.7-56.5,42.7C266.6,263.8,240.2,237.4,240.2,204.9z M248.6,130.8c0.1-0.1,0.2-0.2,0.3-0.3c3.7-3.7,8.7-5.7,14-5.7
			c3.1,0,6,0.7,8.8,2.1c2.1,1.1,4.7,0.4,6-1.3l0,0c5.2-6.1,9.8-8.7,16.1-8.7c2.1,0,6.2,0.6,8.5,1.2c0.1,0,0.1,0,0.2,0
			c0.3,0.1,29.5,7.2,56.4,26.3c34.1,24.1,48.9,55.3,43.9,92.8c-8.8-0.3-28.1-0.3-45.2,3.9c3.4-5.5,6-11.4,7.8-17.9
			c5.8,1.1,11.6,1.7,17.6,1.8h0.1c2.8,0,5-2.2,5.1-4.9c0.1-2.8-2.1-5.1-4.9-5.2c-66.4-1.7-127.8-69.9-128.4-70.5
			c-1.9-2.1-5.1-2.2-7.1-0.4c-2.1,1.8-2.2,5.1-0.4,7.1c0.3,0.4,1.7,1.9,3.9,4.2c-13.4,12.9-21.2,30.8-21.2,49.7
			c0,13.1,3.7,25.4,10.1,35.8c-15.1-3.7-31.8-3.7-39.5-3.5C189.5,181.3,248,131.3,248.6,130.8z"/>
		<path class="st4" d="M500.9,490.8c1.1-0.7,8.7-1.4,8.8-8.3l-0.3-38.5c-0.8-10-7.5-10.8-22-10.8h-20.2c2.8-3.3,4.3-7.7,3.8-12.6
			c-1-8.4-8.4-14.6-16.8-14.6h-0.8c4.6-3.4,8.2-8.2,10.3-13.9c1.5-3.9,2-8,1.8-12.3c-0.7-10.2-6-18.8-14.5-24l-32.7-20l-89-53.4
			c-9.5-3.6-20-5.5-30.7-5.5c-13.7,0-27.3,3.3-39.3,9.2v-13.7c0-9.3-7.6-16.9-16.9-16.9h-169c-9.3,0-16.9,7.6-16.9,16.9v116.3
			c0,9.3,7.6,16.9,16.9,16.9h55.1v27.3h-70c-9.3,0-18.6,6.6-18.6,15.9l0.1,28.7c0,8.9-0.1,4.4,0,10c0,0.6,0.2,1.3,0.5,1.8l1.2,1.3
			 M442.6,490.8h63.6 M356.8,490.8h74.3 M274.5,490.8h47.1 M165.1,490.8h74.3 M454.4,416.2c4,0,7.1,3.6,6.2,7.7
			c-0.6,3.1-3.5,5.1-6.6,5.1h-27c-3.1,0-5.9-2-6.6-5.1c-0.8-4.1,2.3-7.7,6.2-7.7H454.4z M445.4,364.7c5.7,3.5,9.4,9.6,9.7,16.6
			c0.1,2.5-0.3,5.1-1.2,7.4c-2.4,6.7-7.7,11.3-14.4,12.9c-5.3,1.3-10.7,0.4-15.4-2.4l-35.4-21.5l-14.3-48.8c-1-3.4-2.2-6.7-3.8-9.7
			L445.4,364.7z M414.1,433.3h-8.9l0,0l-12.1-41.2l25.9,15.8c0.1,0,0.2,0.1,0.2,0.1c-5.3,2.8-9,8.3-9,14.7
			C410.1,426.7,411.6,430.4,414.1,433.3z M258.9,389v-91.2c11.6-6.8,25.4-10.6,39.3-10.6c17.9,0,34.6,6,47.1,16
			c0.1,0.1,0.1,0.1,0.2,0.2c9.3,7.5,16.2,17.2,19.4,28.2l29.9,101.7H201.6l2.3-7.9h129.6c2.4,0,4.7-1.6,5.1-4c0.6-3.3-1.8-6.1-5-6.1
			H206.8l2.8-9.3H242C251.2,405.9,258.9,398.4,258.9,389z M73.4,395.9c-3.8,0-6.8-3.1-6.8-6.8v-9.2h108.9c2.4,0,4.7-1.6,5.1-4
			c0.6-3.3-1.8-6.1-5-6.1h-109v-97c0-3.8,3.1-6.8,6.8-6.8h168.5c3.8,0,6.8,3.1,6.8,6.8v5.3h-39.6c-2.4,0-4.7,1.6-5.1,4
			c-0.6,3.3,1.8,6.1,5,6.1h39.7v101c0,3.8-3.1,6.8-6.8,6.8L73.4,395.9L73.4,395.9z M199,405.9l-8,27.3h-4.2v-27.3H199z M176.7,405.9
			v27.3h-38.2v-27.3H176.7z M500.9,476.4c0,3.8-4.8,5.2-8.6,5.2l-439.7-0.8c-3.8,0-3.3-1.4-3.3-5.1l0.1-8h185.3c2.4,0,4.7-1.6,5.1-4
			c0.6-3.3-1.8-6.1-5-6.1l-185.3-1.8l-0.1-7c0-3.8,3.4-6.1,7.1-6.1l433.5,0.8c3.8,0,10.2-0.8,10.2,5.9L500.9,476.4z"/>
		<path class="st4" d="M160.1,312.5c-11.3,0-20.4,9.2-20.4,20.4c0,11.2,9.2,20.4,20.4,20.4s20.4-9.2,20.4-20.4
			S171.3,312.5,160.1,312.5z M160.1,343.4c-5.7,0-10.4-4.7-10.4-10.4c0-5.7,4.7-10.4,10.4-10.4s10.4,4.7,10.4,10.4
			C170.5,338.7,165.8,343.4,160.1,343.4z"/>
	</g>
</g>
<rect x="12.6" y="248.5" class="st5" width="14.9" height="86.9"/>
<g>
	
		<rect x="504" y="277.7" transform="matrix(0.7071 0.7071 -0.7071 0.7071 368.3873 -270.9402)" class="st5" width="14.5" height="63"/>
	
		<rect x="504" y="243.2" transform="matrix(0.7071 -0.7071 0.7071 0.7071 -44.573 441.994)" class="st5" width="14.5" height="63.2"/>
</g>
<path class="st6" d="M241.1,432.5"/>
<g>
	<path class="st7" d="M293.7,308.9"/>
	<g>
		<path class="st7" d="M212.2,251.3c0.3,0,32.6-2,45.8,8.2c0.1,0,0.1,0.1,0.2,0.1c9.5,7.9,21.6,12.6,34.8,12.6
			c12.8,0,24.9-4.5,34.4-12.3c0.1-0.1,0.2-0.1,0.2-0.2c14.7-10.9,50.4-8.5,50.7-8.5c2,0.2,3.9-1.3,4.2-3.3
			c5.8-34.1-7.2-63.4-37.6-84.9c-22.3-15.7-45.6-21.6-47.4-22c-2.2-0.6-6.1-1.2-8.7-1.2c-7.9,0-13.1,3.7-16.9,7.5
			c-2.5-0.9-5.1-1.3-7.6-1.3c-6.2,0-12.2,2.4-16.6,6.7c-1.4,1.3-13.7,11.9-24.6,28.3c-15.4,23-20.5,46.2-15.1,67.2
			C208.6,250.2,210.3,251.5,212.2,251.3z M246.5,217.6c0-12.8,5.2-24.9,14.4-33.7c13.9,13.3,43,37.7,77,46.5
			c-5.6,19.8-23.9,33.8-44.8,33.8C267.4,264.2,246.5,243.3,246.5,217.6z M253.1,158.8c0.1-0.1,0.2-0.2,0.2-0.2
			c2.9-2.9,6.9-4.5,11.1-4.5c2.5,0,4.8,0.6,7,1.7c1.7,0.9,3.7,0.3,4.8-1l0,0c4.1-4.8,7.8-6.9,12.8-6.9c1.7,0,4.9,0.5,6.7,1
			c0.1,0,0.1,0,0.2,0c0.2,0.1,23.4,5.7,44.7,20.8c27,19.1,38.8,43.8,34.8,73.5c-7-0.2-22.3-0.2-35.8,3.1c2.7-4.4,4.8-9,6.2-14.2
			c4.6,0.9,9.2,1.3,13.9,1.4h0.1c2.2,0,4-1.7,4-3.9c0.1-2.2-1.7-4-3.9-4.1c-52.6-1.3-101.3-55.4-101.8-55.9c-1.5-1.7-4-1.7-5.6-0.3
			c-1.7,1.4-1.7,4-0.3,5.6c0.2,0.3,1.3,1.5,3.1,3.3c-10.6,10.2-16.8,24.4-16.8,39.4c0,10.4,2.9,20.1,8,28.4
			c-12-2.9-25.2-2.9-31.3-2.8C206.3,198.9,252.7,159.2,253.1,158.8z"/>
		<path class="st7" d="M453.1,444.2c0.9-0.6,6.9-1.1,7-6.6l-0.2-30.5c-0.6-7.9-5.9-8.6-17.4-8.6h-16c2.2-2.6,3.4-6.1,3-10
			c-0.8-6.7-6.7-11.6-13.3-11.6h-0.6c3.6-2.7,6.5-6.5,8.2-11c1.2-3.1,1.6-6.3,1.4-9.7c-0.6-8.1-4.8-14.9-11.5-19l-25.9-15.9
			L317.1,279c-7.5-2.9-15.9-4.4-24.3-4.4c-10.9,0-21.6,2.6-31.1,7.3v-10.9c0-7.4-6-13.4-13.4-13.4H114.3c-7.4,0-13.4,6-13.4,13.4
			v92.2c0,7.4,6,13.4,13.4,13.4H158v21.6h-55.5c-7.4,0-14.7,5.2-14.7,12.6l0.1,22.7c0,7.1-0.1,3.5,0,7.9c0,0.5,0.2,1,0.4,1.4l1,1
			 M406.9,444.2h50.4 M338.9,444.2h58.9 M273.7,444.2H311 M187,444.2h58.9 M416.2,385c3.2,0,5.6,2.9,4.9,6.1c-0.5,2.5-2.8,4-5.2,4
			h-21.4c-2.5,0-4.7-1.6-5.2-4c-0.6-3.2,1.8-6.1,4.9-6.1H416.2z M409.1,344.2c4.5,2.8,7.4,7.6,7.7,13.2c0.1,2-0.2,4-1,5.9
			c-1.9,5.3-6.1,9-11.4,10.2c-4.2,1-8.5,0.3-12.2-1.9l-28.1-17l-11.3-38.7c-0.8-2.7-1.7-5.3-3-7.7L409.1,344.2z M384.3,398.6h-7.1
			l0,0l-9.6-32.7l20.5,12.5c0.1,0,0.2,0.1,0.2,0.1c-4.2,2.2-7.1,6.6-7.1,11.7C381.1,393.4,382.3,396.3,384.3,398.6z M261.3,363.5
			v-72.3c9.2-5.4,20.1-8.4,31.1-8.4c14.2,0,27.4,4.8,37.3,12.7c0.1,0.1,0.1,0.1,0.2,0.2c7.4,5.9,12.8,13.6,15.4,22.3l23.7,80.6
			H215.9l1.8-6.3h102.7c1.9,0,3.7-1.3,4-3.2c0.5-2.6-1.4-4.8-4-4.8H220l2.2-7.4h25.7C255.2,376.9,261.3,370.9,261.3,363.5z
			 M114.3,368.9c-3,0-5.4-2.5-5.4-5.4v-7.3h86.3c1.9,0,3.7-1.3,4-3.2c0.5-2.6-1.4-4.8-4-4.8h-86.4v-76.9c0-3,2.5-5.4,5.4-5.4h133.5
			c3,0,5.4,2.5,5.4,5.4v4.2h-31.4c-1.9,0-3.7,1.3-4,3.2c-0.5,2.6,1.4,4.8,4,4.8h31.5v80c0,3-2.5,5.4-5.4,5.4L114.3,368.9
			L114.3,368.9z M213.8,376.9l-6.3,21.6h-3.3v-21.6H213.8z M196.2,376.9v21.6h-30.3v-21.6H196.2z M453.1,432.7c0,3-3.8,4.1-6.8,4.1
			l-348.5-0.6c-3,0-2.6-1.1-2.6-4l0.1-6.3h146.9c1.9,0,3.7-1.3,4-3.2c0.5-2.6-1.4-4.8-4-4.8l-146.9-1.4l-0.1-5.5
			c0-3,2.7-4.8,5.6-4.8l343.6,0.6c3,0,8.1-0.6,8.1,4.7L453.1,432.7z"/>
		<path class="st7" d="M183,302.8c-9,0-16.2,7.3-16.2,16.2c0,8.9,7.3,16.2,16.2,16.2s16.2-7.3,16.2-16.2
			C199.2,310.1,191.9,302.8,183,302.8z M183,327.3c-4.5,0-8.2-3.7-8.2-8.2s3.7-8.2,8.2-8.2c4.5,0,8.2,3.7,8.2,8.2
			C191.2,323.6,187.5,327.3,183,327.3z"/>
	</g>
</g>
</svg>
