<?xml version="1.0" encoding="utf-8"?>
<!-- Generator: Adobe Illustrator 25.2.1, SVG Export Plug-In . SVG Version: 6.00 Build 0)  -->
<svg version="1.1" id="Layer_1" xmlns="http://www.w3.org/2000/svg" xmlns:xlink="http://www.w3.org/1999/xlink" x="0px" y="0px"
	 viewBox="0 0 548 608" style="enable-background:new 0 0 548 608;" xml:space="preserve">
<style type="text/css">
	.st0{fill:#91DCD5;stroke:#FFFFFF;stroke-width:1.0479;stroke-miterlimit:10;}
	.st1{display:none;}
	.st2{display:inline;fill:#FFFFFF;}
	.st3{display:inline;}
	.st4{fill:#FFFFFF;stroke:#000000;stroke-miterlimit:10;}
	.st5{fill:#58A0A3;}
	.st6{fill:#FFFFFF;stroke:#FFFFFF;stroke-width:4.1351;stroke-miterlimit:10;}
	.st7{fill:none;}
	.st8{fill:#FFFFFF;}
</style>
<rect x="0" y="-1.4" class="st0" width="548" height="608"/>
<g id="Layer_1_1_" class="st1">
	<path class="st2" d="M299.8,320.1"/>
	<g class="st3">
		<path class="st4" d="M197,247.5c0.4,0,41.1-2.5,57.8,10.3c0.1,0,0.1,0.1,0.2,0.1c12,10,27.3,15.9,43.9,15.9
			c16.2,0,31.4-5.7,43.4-15.5c0.1-0.1,0.2-0.1,0.3-0.2c18.6-13.8,63.6-10.7,64-10.7c2.5,0.2,4.9-1.6,5.3-4.2
			c7.3-43-9.1-80-47.4-107.1c-28.1-19.8-57.6-27.3-59.8-27.8c-2.8-0.7-7.7-1.5-11-1.5c-10,0-16.5,4.7-21.3,9.5
			c-3.1-1.1-6.4-1.6-9.6-1.6c-7.8,0-15.4,3-21,8.5c-1.8,1.6-17.3,15-31,35.7c-19.4,29-25.9,58.3-19.1,84.8
			C192.4,246.1,194.6,247.7,197,247.5z M240.2,204.9c0-16.2,6.6-31.4,18.2-42.5c17.6,16.8,54.3,47.6,97.1,58.7
			c-7.1,25-30.2,42.7-56.5,42.7C266.6,263.8,240.2,237.4,240.2,204.9z M248.6,130.8c0.1-0.1,0.2-0.2,0.3-0.3c3.7-3.7,8.7-5.7,14-5.7
			c3.1,0,6,0.7,8.8,2.1c2.1,1.1,4.7,0.4,6-1.3l0,0c5.2-6.1,9.8-8.7,16.1-8.7c2.1,0,6.2,0.6,8.5,1.2c0.1,0,0.1,0,0.2,0
			c0.3,0.1,29.5,7.2,56.4,26.3c34.1,24.1,48.9,55.3,43.9,92.8c-8.8-0.3-28.1-0.3-45.2,3.9c3.4-5.5,6-11.4,7.8-17.9
			c5.8,1.1,11.6,1.7,17.6,1.8h0.1c2.8,0,5-2.2,5.1-4.9c0.1-2.8-2.1-5.1-4.9-5.2c-66.4-1.7-127.8-69.9-128.4-70.5
			c-1.9-2.1-5.1-2.2-7.1-0.4c-2.1,1.8-2.2,5.1-0.4,7.1c0.3,0.4,1.7,1.9,3.9,4.2c-13.4,12.9-21.2,30.8-21.2,49.7
			c0,13.1,3.7,25.4,10.1,35.8c-15.1-3.7-31.8-3.7-39.5-3.5C189.5,181.3,248,131.3,248.6,130.8z"/>
		<path class="st4" d="M500.9,490.8c1.1-0.7,8.7-1.4,8.8-8.3l-0.3-38.5c-0.8-10-7.5-10.8-22-10.8h-20.2c2.8-3.3,4.3-7.7,3.8-12.6
			c-1-8.4-8.4-14.6-16.8-14.6h-0.8c4.6-3.4,8.2-8.2,10.3-13.9c1.5-3.9,2-8,1.8-12.3c-0.7-10.2-6-18.8-14.5-24l-32.7-20l-89-53.4
			c-9.5-3.6-20-5.5-30.7-5.5c-13.7,0-27.3,3.3-39.3,9.2v-13.7c0-9.3-7.6-16.9-16.9-16.9h-169c-9.3,0-16.9,7.6-16.9,16.9v116.3
			c0,9.3,7.6,16.9,16.9,16.9h55.1v27.3h-70c-9.3,0-18.6,6.6-18.6,15.9l0.1,28.7c0,8.9-0.1,4.4,0,10c0,0.6,0.2,1.3,0.5,1.8l1.2,1.3
			 M442.6,490.8h63.6 M356.8,490.8h74.3 M274.5,490.8h47.1 M165.1,490.8h74.3 M454.4,416.2c4,0,7.1,3.6,6.2,7.7
			c-0.6,3.1-3.5,5.1-6.6,5.1h-27c-3.1,0-5.9-2-6.6-5.1c-0.8-4.1,2.3-7.7,6.2-7.7H454.4z M445.4,364.7c5.7,3.5,9.4,9.6,9.7,16.6
			c0.1,2.5-0.3,5.1-1.2,7.4c-2.4,6.7-7.7,11.3-14.4,12.9c-5.3,1.3-10.7,0.4-15.4-2.4l-35.4-21.5l-14.3-48.8c-1-3.4-2.2-6.7-3.8-9.7
			L445.4,364.7z M414.1,433.3h-8.9l0,0l-12.1-41.2l25.9,15.8c0.1,0,0.2,0.1,0.2,0.1c-5.3,2.8-9,8.3-9,14.7
			C410.1,426.7,411.6,430.4,414.1,433.3z M258.9,389v-91.2c11.6-6.8,25.4-10.6,39.3-10.6c17.9,0,34.6,6,47.1,16
			c0.1,0.1,0.1,0.1,0.2,0.2c9.3,7.5,16.2,17.2,19.4,28.2l29.9,101.7H201.6l2.3-7.9h129.6c2.4,0,4.7-1.6,5.1-4c0.6-3.3-1.8-6.1-5-6.1
			H206.8l2.8-9.3H242C251.2,405.9,258.9,398.4,258.9,389z M73.4,395.9c-3.8,0-6.8-3.1-6.8-6.8v-9.2h108.9c2.4,0,4.7-1.6,5.1-4
			c0.6-3.3-1.8-6.1-5-6.1h-109v-97c0-3.8,3.1-6.8,6.8-6.8h168.5c3.8,0,6.8,3.1,6.8,6.8v5.3h-39.6c-2.4,0-4.7,1.6-5.1,4
			c-0.6,3.3,1.8,6.1,5,6.1h39.7v101c0,3.8-3.1,6.8-6.8,6.8L73.4,395.9L73.4,395.9z M199,405.9l-8,27.3h-4.2v-27.3H199z M176.7,405.9
			v27.3h-38.2v-27.3H176.7z M500.9,476.4c0,3.8-4.8,5.2-8.6,5.2l-439.7-0.8c-3.8,0-3.3-1.4-3.3-5.1l0.1-8h185.3c2.4,0,4.7-1.6,5.1-4
			c0.6-3.3-1.8-6.1-5-6.1l-185.3-1.8l-0.1-7c0-3.8,3.4-6.1,7.1-6.1l433.5,0.8c3.8,0,10.2-0.8,10.2,5.9L500.9,476.4z"/>
		<path class="st4" d="M160.1,312.5c-11.3,0-20.4,9.2-20.4,20.4c0,11.2,9.2,20.4,20.4,20.4s20.4-9.2,20.4-20.4
			S171.3,312.5,160.1,312.5z M160.1,343.4c-5.7,0-10.4-4.7-10.4-10.4c0-5.7,4.7-10.4,10.4-10.4s10.4,4.7,10.4,10.4
			C170.5,338.7,165.8,343.4,160.1,343.4z"/>
	</g>
</g>
<rect x="12.6" y="248.5" class="st5" width="14.9" height="86.9"/>
<g>
	
		<rect x="504" y="277.7" transform="matrix(0.7071 0.7071 -0.7071 0.7071 368.3873 -270.9402)" class="st5" width="14.5" height="63"/>
	
		<rect x="504" y="243.2" transform="matrix(0.7071 -0.7071 0.7071 0.7071 -44.573 441.994)" class="st5" width="14.5" height="63.2"/>
</g>
<path class="st6" d="M241.1,432.5"/>
<g id="Layer_5">
	<g>
		<rect x="103.5" y="127.8" class="st7" width="360" height="316.2"/>
		<path class="st8" d="M288.2,387.8c0,6.6-5.6,12.1-12.4,12.1H137.7c-6.9,0-12.4-5.4-12.4-12.1V180.6c0-6.7,5.6-12.1,12.4-12.1
			h138.1c6.9,0,12.4,5.4,12.4,12.1V387.8z M206.7,426.1c-5.4,0-9.8-4.2-9.8-9.5s4.3-9.5,9.8-9.5s9.8,4.2,9.8,9.5
			S212.2,426.1,206.7,426.1 M268.7,140.6H144.8c-22.8,0-41.3,18-41.3,40.3v223c0,22.3,18.5,40.3,41.3,40.3h123.9
			c22.8,0,41.3-18,41.3-40.3V180.8C310,158.6,291.5,140.6,268.7,140.6"/>
		<rect x="103.5" y="127.8" class="st7" width="360" height="316.2"/>
		<path class="st8" d="M449,150.3l-10.2,17.2l-11.8-6.6l10.2-17.2c0.9-1.5,2.4-2.6,4.2-3.1c1.8-0.4,3.6-0.2,5.1,0.6
			c1.6,0.9,2.7,2.3,3.2,4C450.1,147,449.8,148.7,449,150.3 M425.2,190.4l-11.8-6.6l6.8-11.4l11.8,6.6L425.2,190.4z M341.7,318
			l2.6-12.6l7.2,4.1L341.7,318z M462.7,142.6c-1.4-5.1-4.8-9.4-9.5-12.1c-4.7-2.6-10.2-3.4-15.5-2c-5.2,1.4-9.7,4.7-12.3,9.3
			l-13.6,23.1l-13.6,23l-64.5,108.6c-0.2,0.5-0.4,0.9-0.5,1.4v0.6l-7.4,35.4c-0.2,1-0.4,2.2-0.5,3.2l-0.1,1.3
			c-0.1,1-0.1,2.1,0.1,3.1l0.2,1.3c0.2,1.5,0.9,2.8,2.2,3.8l0,0c1,1,4.1,0.8,4.1,0.8c0.5,0,1.3-0.2,2.1-0.5c0.6-0.2,1.3-0.6,1.8-1
			l32.2-27.8c0.2-0.2,0.4-0.6,0.6-0.9c0.2-0.2,0.5-0.6,0.6-0.9l34.4-58.1c1.4-2.1,1.4-4.6,0.2-6.8c-1.2-2.2-3.5-3.4-6-3.4
			c-2.5,0-4.8,1.4-5.9,3.5l-31,52.4l-11.8-6.6l57.7-97.5l11.8,6.6l-13,22.3c-1.4,2.1-1.4,4.6-0.2,6.8c1.2,2.2,3.5,3.4,6,3.4
			c2.5,0,4.8-1.4,5.9-3.5l16.5-27.8l13.6-23l13.6-22.9C463.4,153,464.1,147.6,462.7,142.6"/>
		<rect x="103.5" y="127.8" class="st7" width="360" height="316.2"/>
		<path class="st8" d="M168.3,321.8c0.2-6.3-5.4-11.4-11.4-12.6c-3.1-0.6-6.4-0.2-9.2,1.4c-2.9,1.6-5,4.2-6.3,7.3
			c-2.6,6.2-1.2,13.3,3.4,18.3c5,5.6,12.7,8.2,17.3,14.3c2.1,2.8,3.7,6.2,3.8,9.7c0.1,3.1-1,6.2-3.2,8.5c-2,2.1-5,3.6-7.9,2.9
			c-2.7-0.6-5.2-2.7-6-5.4c-2.1-7,8.8-9.4,13.6-11c1-0.3,2.1-0.7,3-1c0.7-0.2,1.6-0.6,2.3-0.1c0.6,0.5,1.1,1.3,1.6,1.9
			c0.6,0.8,1.2,1.6,1.8,2.4c2.5,3,5.4,5.5,8.7,7.6c3.3,2.1,6.9,3.7,10.6,4.7c2.1,0.6,4.4,0.8,6.2-0.3c1.4-0.9,2.3-2.3,2.6-3.9
			c0.6-3.7-1.4-7-3.8-9.8c-2.4-2.8-5.5-5.2-9-6.8c-1.8-0.8-3.5-1.5-5.4-2c-2.4-0.6-3.6,2.5-1.6,3.8c10.3,6.6,21.5,11.6,33.4,15
			c0.2-1.4,0.4-2.7,0.6-4.1c-7.3,0.2-14.6,0.6-21.9,0.8c-1.8,0.1-3.7,0.2-5.5,0.2c-1.2,0.1-2.6,0.2-3.8-0.3c-0.4-0.2-0.8-0.3-1-0.7
			c0.2,0.2,0,0.2,0,0c-0.1-0.2-0.1-0.3,0-0.1c0-0.2,0-0.3,0-0.5c0,0.2,0.2-0.5,0.1-0.3c0.1-0.1,0-0.2,0.2-0.2c-0.1,0-0.8,0-0.3,0.2
			c-0.5-0.5-1-1-1.5-1.4c1.8,4.7,4.5,10.7,10.1,11.9c3.6,0.8,6.8-0.8,9.9-2.5c3.4-1.8,6.7-3.7,10.1-5.5c6.8-3.8,13.6-7.4,20.4-11.2
			c0.6-0.4,1.4-0.8,2-1c0.3-0.2,0.7-0.2,1.1-0.3c0.2,0,0.3,0,0.5,0c0.6,0-0.2-0.1,0.2,0c0.1,0,0.6,0.2,0.3,0.1
			c0.2,0.1,0.3,0.2,0.5,0.2c-0.3-0.2,0.1,0.1,0.2,0.2c0.1,0.1,0.2,0.2,0.2,0.2c0.2,0.2-0.1-0.1,0.1,0.1c1,1.5,1.4,3.2,2.2,5.1
			c0.7,2.1,1.6,4.2,3.4,5.8c2.2,1.8,5.2,2.2,7.8,1.2c6.7-2.6,7.2-10.6,4.3-16.1c-1.4-2.9-4.6-5.1-7.9-3.7c-2.5,1.1-3.7,4-4.1,6.5
			c-1.2,6.5-1.5,13.2-1.1,19.9c0.7,13.3,4.2,26.4,10.4,38.3c0.8,1.5,1.6,3,2.5,4.4c1.4,2.3,5,0.2,3.7-2.1c-7.7-13-12-27.9-12.4-42.9
			c-0.1-3.8,0-7.6,0.4-11.4c0.2-1.8,0.4-3.5,0.7-5.3c0.2-1.1,0.6-2.5,1.4-3.3c0.3-0.3,0.6-0.5,1-0.4c0.5,0.1,1,0.6,1.2,1
			c1,1.2,1.4,2.9,1.7,4.4c0.5,2.7-0.3,5.8-3.2,6.9c-1.1,0.4-2.3,0.4-3.3-0.2c0.2,0.2-0.3-0.3-0.4-0.3c-0.1-0.1-0.4-0.5-0.4-0.4
			c-0.2-0.2-0.6-1-0.9-1.4c-0.3-0.6-0.3-0.6-0.6-1.3s-0.4-1.2-0.6-1.8c-0.4-1.2-0.8-2.3-1.4-3.4c-1.1-2.3-3-4-5.7-4.2
			c-2.2-0.2-4.1,1-5.8,1.9c-2,1.1-3.9,2.2-5.8,3.2c-7.8,4.3-15.5,8.6-23.4,12.8c-2.7,1.5-6.2,3.9-9.2,2.3c-2.4-1.3-3.9-4.1-5-6.5
			c-0.2-0.6-0.5-1.1-0.7-1.8c-0.5-1.2-1.2-1.9-2.6-2c-1.5-0.1-2.9,0.8-3.7,2.1c-0.7,1.3-1,2.9-0.5,4.3c0.6,1.8,2.2,2.8,4,3.4
			c1.8,0.5,3.6,0.5,5.4,0.4c2.2-0.1,4.5-0.2,6.7-0.2c4.4-0.2,8.9-0.3,13.3-0.5c2.2-0.1,4.5-0.2,6.7-0.2c2.4-0.1,2.9-3.4,0.6-4.1
			c-11.4-3.3-22.3-8.2-32.3-14.6c-0.6,1.3-1.1,2.5-1.6,3.8c3.4,0.9,6.7,2.5,9.4,4.8c2.4,2,5,4.6,5.6,7.8c0.1,0.4,0.1,1,0,1.4
			c-0.1,0.5-0.2,0.8-0.6,1c-1.4,0.8-3.6-0.2-5-0.7c-3.4-1.1-6.7-2.9-9.6-5c-2.9-2.2-5.4-4.8-7.4-7.7c-1.2-1.7-2.6-3.3-4.8-3.6
			c-2.2-0.3-4.5,0.7-6.6,1.4c-6.5,2.1-15.9,4.5-16.9,12.3c-0.9,7,6.6,13.2,13.5,12.2c7.2-1,12.1-8.1,12.2-14.8
			c0.2-7.8-4.9-14.5-11-19.1c-5.3-3.9-12.6-7.3-14.3-14.1c-1.4-5.1,0.5-11.4,5.7-13.9c4.4-2.2,10.7,0.3,13,4.6
			c0.6,1,0.7,2.2,0.7,3.4C164,324.5,168.2,324.5,168.3,321.8"/>
		<rect x="103.5" y="127.8" class="st7" width="360" height="316.2"/>
		<path class="st8" d="M250.6,312.9c2.7,0,2.7-4.2,0-4.2C247.9,308.8,247.9,312.9,250.6,312.9"/>
	</g>
</g>
</svg>
