<?xml version="1.0" encoding="utf-8"?>
<!-- Generator: Adobe Illustrator 25.1.0, SVG Export Plug-In . SVG Version: 6.00 Build 0)  -->
<svg version="1.1" id="Layer_1" xmlns="http://www.w3.org/2000/svg" xmlns:xlink="http://www.w3.org/1999/xlink" x="0px" y="0px"
	 viewBox="0 0 595.28 841.89" style="enable-background:new 0 0 595.28 841.89;" xml:space="preserve">
<style type="text/css">
	.st0{clip-path:url(#SVGID_2_);fill:#5A9B9F;}
</style>
<g>
	<defs>
		<rect id="SVGID_1_" x="81.34" y="176.47" width="432.6" height="379.99"/>
	</defs>
	<clipPath id="SVGID_2_">
		<use xlink:href="#SVGID_1_"  style="overflow:visible;"/>
	</clipPath>
	<path class="st0" d="M303.38,488.85c0,8.03-6.69,14.56-14.94,14.56H122.49c-8.26,0-14.94-6.52-14.94-14.56V239.87
		c0-8.04,6.69-14.56,14.94-14.56h165.95c8.25,0,14.94,6.51,14.94,14.56V488.85z M205.46,534.96c-6.47,0-11.72-5.11-11.72-11.41
		c0-6.31,5.24-11.42,11.72-11.42c6.48,0,11.73,5.11,11.73,11.42C217.18,529.85,211.94,534.96,205.46,534.96 M279.94,191.73H130.98
		c-27.42,0-49.65,21.65-49.65,48.36v268c0,26.71,22.23,48.36,49.65,48.36h148.95c27.41,0,49.64-21.65,49.64-48.36v-268
		C329.58,213.38,307.35,191.73,279.94,191.73"/>
	<path class="st0" d="M496.56,203.42l-12.24,20.68l-14.21-7.95l12.24-20.68c1.08-1.84,2.88-3.19,4.99-3.74
		c2.1-0.51,4.31-0.22,6.2,0.8c1.89,1.05,3.27,2.8,3.84,4.85C497.94,199.42,497.64,201.59,496.56,203.42 M467.98,251.62l-14.21-7.95
		l8.17-13.76l14.21,7.95L467.98,251.62z M367.64,404.95l3.19-15.11l8.65,4.93L367.64,404.95z M513.13,194.15
		c-1.69-6.11-5.8-11.32-11.43-14.48c-5.64-3.18-12.33-4.03-18.62-2.39c-6.27,1.64-11.62,5.65-14.86,11.13l-16.33,27.83l-16.33,27.59
		L358,374.36c-0.27,0.53-0.46,1.09-0.57,1.67v0.72l-8.91,42.54c-0.27,1.28-0.45,2.57-0.53,3.86l-0.11,1.55
		c-0.09,1.25-0.06,2.5,0.06,3.75l0.15,1.54c0.18,1.78,1.1,3.4,2.56,4.48c0.02,0.01,0.03,0.02,0.03,0.02
		c1.15,1.25,4.86,0.94,4.87,0.94c0.61-0.04,1.51-0.15,2.52-0.54c0.8-0.31,1.55-0.74,2.22-1.29l38.7-33.4
		c0.28-0.3,0.5-0.66,0.66-1.03c0.29-0.31,0.54-0.66,0.73-1.04l41.4-69.82c1.61-2.47,1.7-5.59,0.24-8.14
		c-1.46-2.55-4.24-4.12-7.24-4.08c-3.01,0.04-5.74,1.68-7.13,4.26l-37.23,62.91l-14.21-7.95l69.4-117.15l14.21,7.95l-15.76,26.56
		c-1.61,2.47-1.7,5.59-0.24,8.15c1.46,2.55,4.24,4.12,7.24,4.08c2.99-0.04,5.73-1.68,7.12-4.27l19.84-33.4l16.33-27.6l16.33-27.51
		C513.89,206.67,514.77,200.22,513.13,194.15"/>
	<path class="st0" d="M159.25,409.57c0.21-7.58-6.46-13.7-13.78-15.06c-3.78-0.7-7.71-0.3-11.09,1.59
		c-3.51,1.95-6.05,5.13-7.57,8.74c-3.14,7.47-1.44,15.99,4.01,21.98c6.08,6.69,15.28,9.91,20.75,17.25
		c2.53,3.39,4.4,7.38,4.52,11.63c0.11,3.71-1.28,7.47-3.86,10.22c-2.39,2.52-5.96,4.32-9.52,3.49c-3.28-0.77-6.3-3.31-7.25-6.51
		c-2.46-8.33,10.55-11.34,16.33-13.19c1.24-0.4,2.47-0.82,3.7-1.19c0.89-0.27,1.96-0.69,2.81-0.11c0.81,0.54,1.35,1.52,1.9,2.28
		c0.7,0.98,1.44,1.92,2.2,2.85c2.96,3.56,6.53,6.63,10.45,9.15c3.91,2.51,8.28,4.47,12.79,5.69c2.47,0.66,5.26,0.98,7.55-0.38
		c1.75-1.04,2.83-2.78,3.14-4.72c0.68-4.45-1.77-8.44-4.59-11.71c-2.93-3.38-6.66-6.21-10.73-8.17c-2.09-1-4.28-1.81-6.53-2.4
		c-2.86-0.73-4.37,3.02-1.97,4.55c12.38,7.86,25.92,13.94,40.08,18.04c0.22-1.63,0.45-3.26,0.68-4.88c-8.8,0.33-17.6,0.65-26.4,0.98
		c-2.2,0.08-4.4,0.17-6.6,0.25c-1.47,0.05-3.09,0.16-4.5-0.36c-0.49-0.18-0.92-0.43-1.25-0.83c0.23,0.28,0.01,0.17,0.04-0.04
		c-0.07-0.3-0.07-0.34-0.02-0.11c-0.01-0.18,0-0.35,0.02-0.53c-0.03,0.22,0.31-0.62,0.12-0.34c0.1-0.14,0.03-0.25,0.21-0.2
		c-0.05-0.01-0.98-0.03-0.36,0.16c-0.59-0.58-1.18-1.16-1.78-1.73c2.08,5.66,5.41,12.86,12.09,14.33c4.36,0.96,8.21-0.99,11.9-3.02
		c4.05-2.23,8.1-4.46,12.15-6.68c8.18-4.5,16.35-8.99,24.53-13.49c0.8-0.44,1.6-0.93,2.44-1.27c0.42-0.17,0.9-0.32,1.35-0.36
		c0.17-0.02,0.36,0,0.53,0.01c0.74,0.04-0.21-0.07,0.17,0.03c0.14,0.04,0.8,0.29,0.34,0.07c0.2,0.1,0.38,0.2,0.57,0.32
		c-0.4-0.26,0.1,0.1,0.22,0.22c0.08,0.07,0.15,0.15,0.23,0.23c0.31,0.33-0.08-0.13,0.09,0.11c1.26,1.84,1.72,3.83,2.55,6.15
		c0.89,2.48,1.97,5.11,4.06,6.89c2.63,2.25,6.24,2.7,9.46,1.47c8.07-3.1,8.64-12.67,5.23-19.38c-1.75-3.43-5.53-6.15-9.51-4.38
		c-3.02,1.35-4.39,4.81-4.92,7.8c-1.41,7.84-1.8,15.91-1.39,23.84c0.84,15.98,5.1,31.75,12.53,46.01c0.93,1.78,1.91,3.54,2.94,5.27
		c1.64,2.77,6.05,0.27,4.41-2.51c-9.27-15.64-14.4-33.5-14.88-51.55c-0.12-4.56,0.04-9.13,0.5-13.67c0.22-2.13,0.46-4.28,0.87-6.38
		c0.27-1.36,0.68-2.99,1.61-3.95c0.34-0.36,0.68-0.58,1.16-0.47c0.58,0.13,1.11,0.69,1.46,1.14c1.15,1.46,1.76,3.49,2.04,5.28
		c0.53,3.28-0.42,7.03-3.87,8.32c-1.39,0.51-2.75,0.51-3.95-0.3c0.31,0.21-0.39-0.34-0.46-0.4c-0.12-0.12-0.51-0.55-0.46-0.5
		c-0.25-0.31-0.75-1.15-1.03-1.71c-0.34-0.68-0.36-0.77-0.64-1.51c-0.27-0.73-0.52-1.46-0.77-2.19c-0.48-1.4-0.96-2.8-1.6-4.15
		c-1.31-2.78-3.59-4.85-6.83-5.09c-2.56-0.19-4.87,1.12-7.01,2.3c-2.36,1.3-4.71,2.59-7.07,3.89c-9.36,5.15-18.71,10.29-28.07,15.43
		c-3.29,1.81-7.45,4.74-11.07,2.82c-2.91-1.55-4.68-4.86-5.97-7.77c-0.3-0.68-0.57-1.38-0.83-2.08c-0.56-1.47-1.46-2.32-3.12-2.41
		c-1.84-0.1-3.51,1-4.39,2.53c-0.9,1.54-1.16,3.49-0.55,5.18c0.75,2.07,2.73,3.41,4.82,4.02c2.07,0.62,4.3,0.54,6.44,0.46
		c2.71-0.1,5.41-0.2,8.12-0.3c5.33-0.2,10.66-0.39,15.99-0.59c2.71-0.1,5.41-0.2,8.12-0.3c2.86-0.11,3.49-4.07,0.68-4.88
		c-13.76-3.99-26.83-9.91-38.86-17.54c-0.66,1.52-1.31,3.03-1.96,4.54c4.16,1.07,8.11,3,11.39,5.73c2.87,2.4,6.08,5.55,6.77,9.32
		c0.1,0.51,0.12,1.28,0.04,1.67c-0.13,0.62-0.26,0.93-0.69,1.19c-1.63,0.94-4.33-0.28-5.92-0.82c-4.15-1.38-8.09-3.47-11.57-6.07
		c-3.49-2.6-6.47-5.76-8.97-9.27c-1.45-2.03-3.13-3.95-5.79-4.32c-2.7-0.38-5.43,0.86-7.94,1.68c-7.81,2.51-19.04,5.35-20.26,14.86
		c-1.08,8.48,7.94,15.83,16.26,14.65c8.64-1.22,14.55-9.67,14.76-17.81c0.24-9.32-5.91-17.44-13.18-22.88
		c-6.35-4.76-15.07-8.78-17.18-16.95c-1.6-6.17,0.62-13.75,6.82-16.74c5.31-2.56,12.9,0.35,15.63,5.51
		c0.64,1.21,0.91,2.58,0.87,4.02C154.06,412.77,159.16,412.77,159.25,409.57"/>
	<path class="st0" d="M258.15,398.88c3.28,0,3.29-4.97,0-4.97C254.87,393.91,254.86,398.88,258.15,398.88"/>
</g>
</svg>
