<?xml version="1.0" encoding="utf-8"?>
<!-- Generator: Adobe Illustrator 25.1.0, SVG Export Plug-In . SVG Version: 6.00 Build 0)  -->
<svg version="1.1" id="Слой_2" xmlns="http://www.w3.org/2000/svg" xmlns:xlink="http://www.w3.org/1999/xlink" x="0px" y="0px"
	 viewBox="0 0 3600 2000" style="enable-background:new 0 0 3600 2000;" xml:space="preserve">
<style type="text/css">
	.st0{fill:#FFFFFF;}
	.st1{fill:#EBF2F9;}
	.st2{fill:#283250;}
	.st3{fill:#E58638;}
	.st4{fill:#163560;}
	.st5{fill:#1C468A;}
	.st6{fill:#FFB27D;}
	.st7{fill:#EE9849;}
	.st8{fill:#FCA56B;}
	.st9{fill:#E49963;}
	.st10{fill:#4A75CB;}
	.st11{fill:#2B478B;}
	.st12{fill:#739AF0;}
	.st13{fill:#D68D5D;}
	.st14{fill:#D86713;}
	.st15{fill:#F1A34F;}
	.st16{opacity:0.4;fill:#D86713;}
	.st17{fill:#699DEE;}
	.st18{fill:#E9F3FE;}
	.st19{fill:#AFCDFB;}
	.st20{fill:#FDD305;}
	.st21{fill:#FFEE99;}
	.st22{opacity:0.55;}
	.st23{fill:#FFC043;}
	.st24{fill:#28364C;}
	.st25{fill:#475577;}
	.st26{fill:#FFCD5C;stroke:#FFC043;stroke-width:3;stroke-linecap:round;stroke-linejoin:round;stroke-miterlimit:10;}
</style>
<rect class="st0" width="3600" height="2000"/>
<g>
	<path class="st1" d="M2904.87,1807.09c0,0,343.13,26.91,448.81-174.01c157.13-298.74-148.26-539.54-369.8-496.19
		c-482.74,94.46-366.5-947.63-1141.23-734.95c-217.84,59.8-806.43-295.45-970.59,274.17c-39.04,135.45-177.34,150.37-378.1,236.32
		c-392.92,168.21-213.26,897.5,67.5,900.36C842.21,1815.66,2904.87,1807.09,2904.87,1807.09z"/>
	<path class="st2" d="M3336.59,1813.86H321.07c-1.48,0-2.69-1.21-2.69-2.69l0,0c0-1.48,1.21-2.69,2.69-2.69h3015.52
		c1.48,0,2.69,1.21,2.69,2.69l0,0C3339.29,1812.65,3338.07,1813.86,3336.59,1813.86z"/>
</g>
<g>
	<path class="st3" d="M2409.33,773.44c0,0,96.27,94.75,100.68,130.47s-43.67,91.62-43.67,91.62L2409.33,773.44z"/>
	<path class="st4" d="M2374.59,1757.51c0,0-3.12,50.37-12.87,51.09c-1.3,0.1-49.42,0.1-49.42,0.1l-61.44-0.36
		c0,0,0.4-14.8,18.36-17.93s48.02-15.75,58.9-39.49C2339.56,1725.95,2374.59,1757.51,2374.59,1757.51z"/>
	<path class="st4" d="M2511.43,1757.51c0,0-3.12,50.37-12.87,51.09c-1.3,0.1-49.42,0.1-49.42,0.1l-61.44-0.36
		c0,0,0.4-14.8,18.36-17.93c17.96-3.13,48.02-15.75,58.9-39.49C2476.4,1725.95,2511.43,1757.51,2511.43,1757.51z"/>
	<path class="st4" d="M2306.54,1216.18c0,0,16.07,102.77,76.01,285.2c59.94,182.43,68.11,261.43,68.11,261.43l64.3-1.8
		c0,0,0.55-199.38-27.08-291.12c-27.62-91.74-5.96-330.73-5.96-330.73L2306.54,1216.18z"/>
	<path class="st5" d="M2275.25,1144.8c0,0-2.28,154.87,24.52,345.02s17.71,270.87,17.71,270.87l64.18,2.13
		c0,0,38.35-190.22,27.36-285.39c-11-95.17,52.52-326.59,52.52-326.59L2275.25,1144.8z"/>
	<path class="st6" d="M2399.49,782.39l-30.27,22.42l-43.75-9.21c0.61-3.99,3.49-20.52,6.12-35.5c0.16-0.88,0.32-1.77,0.47-2.63
		c2.25-12.74,4.2-23.69,4.2-23.69l40.86-20.36l15.23-7.59c-0.04,0.27-1.18,14.14-1.34,16.17
		C2388.15,757.96,2399.49,782.39,2399.49,782.39z"/>
	<path class="st3" d="M2328.53,771.08c0.96-0.4,59.51-17.68,65.87-15.58s10.13,14.41,10.13,14.41l-95.77,21.65
		C2308.76,791.55,2316.3,776.23,2328.53,771.08z"/>
	<path class="st7" d="M2486.19,1163.92c-9.92,45.27-175.09,50.64-217.66,9.55c-4.84-4.68-5.08-26.48-3.25-55.86
		c3.57-57.41,15.04-143.77,15.49-187.89c0.22-21.31,3.15-43.1,7.05-62.89c8.3-42.18,20.95-75.27,20.95-75.27
		s80.67-26.08,95.77-21.64C2477.25,791.27,2496.12,1118.64,2486.19,1163.92z"/>
	<path class="st3" d="M2265.27,1117.6c3.57-57.41,15.04-143.77,15.49-187.89c0.22-21.31,3.15-43.1,7.05-62.89l48.53-8.56
		C2336.34,858.26,2383.79,1052.05,2265.27,1117.6z"/>
	<path class="st6" d="M2291.55,1037.58c0,0,3.31,7.91-3.64,13.22c-6.95,5.31-11.45,13.91-9.86,20.19s16.83,16.54,22.11,14.89
		s16.03-9.93,14.88-13.25c-1.16-3.31,7.23-29.09-5.65-39.02C2296.51,1023.69,2291.55,1037.58,2291.55,1037.58z"/>
	<path class="st7" d="M2345.72,781.5c0,0-47.23,7.29-84.94,62.86c-37.71,55.57-62.52,96.89-55.57,116.92
		c6.95,20.03,70.27,89.5,81.19,89.5c10.92,0,28.53-7.94,29.53-25.8c0,0-44.58-66.82-35.8-76.82c3.75-4.28,57.88-48.22,65.61-28.37
		C2358.51,952.63,2345.72,781.5,2345.72,781.5z"/>
	<path class="st8" d="M2387.94,722.63c-8.97,17.17-42.41,32.02-56.35,37.47c0.16-0.88,0.32-1.77,0.47-2.63
		c2.25-12.74,4.2-23.69,4.2-23.69l40.86-20.36C2386.15,713.28,2391.65,715.56,2387.94,722.63z"/>
	<path class="st6" d="M2316.41,731.39c0,0,73.71,22.99,87.32-23.13c13.61-46.12,32.29-74.22-14.19-90.85
		c-46.49-16.63-60.87-1.74-69.16,12.55C2312.09,644.25,2297.58,724.22,2316.41,731.39z"/>
	<path class="st4" d="M2331.94,627.27c0,0,4.25,55.37,15.4,52.87c11.14-2.5,21.25-4.37,19.48,12.35
		c-1.77,16.72-17.35,36.14,16.91,38.8c34.26,2.66,84.3-88.83,75.02-106C2431.99,575.77,2293.16,566.91,2331.94,627.27z"/>
</g>
<g>
	<g>
		<path class="st9" d="M2852.09,1133.37c0,0-28.27,7.26-46.24,1.85c-17.97-5.41-48.9,3.48-53.89,10.03
			c-4.98,6.55-3.15,9.16,5.74,11.42s40.38,15.69,61.08,7.92c20.7-7.77,47.69-8.06,47.69-8.06L2852.09,1133.37z"/>
		<path class="st10" d="M3096.43,887.77c0,0-31.76,225.73-84.35,245.95c-25.95,9.98-140.63,32.59-174.56,34.86
			c0,0-8.31-6.74-6.29-34.18c0,0,120.15-44.11,137.22-68.1c25.4-35.7-15.77-145.86,16.11-179.39
			C3016.44,853.38,3070.13,838.97,3096.43,887.77z"/>
	</g>
	<path class="st11" d="M3092.37,1757.95v-49.64h77.48c2.09,0,3.8-1.71,3.8-3.8v-7.88c0-2.09-1.71-3.8-3.8-3.8h-77.48v-280.16
		c0-7.86-6.43-14.29-14.29-14.29h-15.33c-7.86,0-14.29,6.43-14.29,14.29v280.16h-77.48c-2.09,0-3.8,1.71-3.8,3.8v7.88
		c0,2.09,1.71,3.8,3.8,3.8h77.48v49.64c-56.07,4.24-100.98,24.43-113.58,50.51h271.08
		C3193.35,1782.38,3148.44,1762.19,3092.37,1757.95z"/>
	<path class="st4" d="M3085.73,1363.34c-9.26,15.72-19.98,30.44-31.02,44.39c-34.14,43.09-71.29,78.62-77.77,112.21
		c-1.29,6.69-3.33,13.9-6,21.5c-2.7,7.69-6.04,15.78-9.9,24.14c-14.48,31.46-36.15,66.72-57.77,98.77
		c-37.39,55.4-72.55,101.63-72.55,101.63l-64.47-2.75c2.58-6.46,30.7-82.96,68.32-176.44c15.28-37.95,31.52-78.32,47.19-117.24
		c2.09-5.2,4.18-10.38,6.24-15.51c4.79-11.91,9.51-23.64,14.11-35.06c35.32-87.78,63.46-157.67,63.46-157.67
		s141.18-53.48,155.84-18.83C3133.49,1271.06,3123.64,1299.05,3085.73,1363.34z"/>
	<path class="st4" d="M2828.7,1754.25c0,0-3.16,53.46-13.45,54.22c-1.37,0.1-117.75,0-117.75,0s0.93-16.17,19.9-19.47
		c18.97-3.31,50.72-16.64,62.21-41.71C2791.7,1720.92,2828.7,1754.25,2828.7,1754.25z"/>
	<path class="st4" d="M2978,1602.26c0,0,44.85,28.82,40.49,38.18c-0.58,1.25-25.36,45.63-25.36,45.63l-31.96,56.48
		c0,0-13.45-7.99-7.08-26.17s10.2-52.4-6.09-74.65C2930.85,1618.31,2978,1602.26,2978,1602.26z"/>
	<path class="st5" d="M2918.44,1235.31c0,0-178.32,110.99-198.11,185.17c-19.78,74.18,235.72,232.43,235.72,232.43
		s28.02-24.73,32.97-42.86c0,0-115.49-138.37-140.54-169.38c-15.39-19.05,227.5-65.94,257.17-112.1s19.05-84.99,19.05-84.99
		L2918.44,1235.31z"/>
	<path class="st7" d="M3251.75,1377.67h-362.67c-7.25,0-13.19,5.94-13.19,13.19v72.53c0,7.25,5.93,13.19,13.19,13.19h362.67
		c7.25,0,13.19-5.93,13.19-13.19v-72.53C3264.94,1383.6,3259,1377.67,3251.75,1377.67z"/>
	<path class="st9" d="M3085.09,845.18c0,0-70.37,39.34-112.83,28.36c0,0,9.6-13.68,27-24.46c-0.93-4.13-1.74-8.02-2.44-11.64
		c-4.06-20.73-4.79-32.79-4.79-32.79l32.42-29.05c8.97,1.9,17.35,3.68,21.8,4.62c0.42,2.14,0.88,4.22,1.4,6.26
		C3057.77,826.82,3085.09,845.18,3085.09,845.18z"/>
	<path class="st12" d="M3130.05,1049.52c-6.08,81.79,1.92,206.17-4.98,227.71c-5.96,18.59-73.79,7.54-100.87,1.34
		c-10.02-2.3-22.16-5.58-34.69-9.46c-34.97-10.83-73.08-26.29-77.17-37.77c-0.15-0.45-0.29-0.89-0.37-1.32c0-0.01,0-0.02,0-0.02
		c-0.07-0.29-0.12-0.58-0.16-0.86c-0.18-1.35-0.07-2.63,0.23-3.93c1.36-5.85,6.61-12.18,7.23-26.67c0.69-16.17,0.59-35.22,1.2-55.7
		c0.03-2.31,0.06-4.83,0.31-7.12l0.01-0.84c0.01-0.44,0.02-0.87,0.03-1.31c0.59-22.84,1.79-46.86,3.17-70.67
		c0.88-14.96,1.9-29.78,3.07-43.97c3.05-36.64,7.16-69.22,12.6-89.81c8.89-33.58,28.49-55.48,46.34-71.53l12.9-11.07
		c14.4,3.15,31.43,1.06,46.83-6.24c16.66-7.91,22.42-13.58,25.32-11.44C3109.54,858.54,3137.23,949.54,3130.05,1049.52z"/>
	<path class="st10" d="M2989.51,1269.11c-34.97-10.83-73.08-26.29-77.17-37.77c-0.15-0.45-0.29-0.89-0.37-1.32c0-0.01,0-0.02,0-0.02
		c0-0.28-0.06-0.57-0.16-0.86c-0.18-1.35-0.07-2.63,0.23-3.93c1.36-5.85,6.61-12.18,7.23-26.67c0.69-16.17,0.59-35.22,1.2-55.7
		c0.03-2.31,0.06-4.83,0.31-7.12l0.01-0.84c0.01-0.44,0.02-0.87,0.03-1.31l132.1-59.91
		C3052.92,1073.66,3060.53,1180.12,2989.51,1269.11z"/>
	<path class="st13" d="M3047.65,786.48c-4.8,12.13-19.17,40.73-50.83,50.96c-4.06-20.73-4.79-32.79-4.79-32.79l32.42-29.05
		c8.97,1.9,17.35,3.68,21.8,4.62C3046.67,782.36,3047.13,784.44,3047.65,786.48z"/>
	<path class="st9" d="M2979.21,804.34c0,0,69.57,7.85,73.79-35.55c4.22-43.4,16.04-71.61-28.2-78.46
		c-44.24-6.84-54.49,8.88-59.42,23.02C2960.44,727.49,2961.22,801.18,2979.21,804.34z"/>
	<path class="st11" d="M3052.7,771.78c0,0-4.41-57.61-67.74-63.57c-43.38-4.09-19.19-41.42-14.57-47.37c0,0,33.23,4.56,67.3,10.18
		C3109.18,682.83,3059.72,762.81,3052.7,771.78z"/>
	<polygon class="st10" points="2885.54,1177.63 2713.15,1181.31 2664.14,1030.48 2658.05,1032.46 2709.86,1191.91 2885.76,1188.16 	
		"/>
	<g>
		<path class="st9" d="M2866.64,1168.07c0,0-27.3,10.33-45.76,6.93c-18.46-3.4-48.22,8.85-52.45,15.91
			c-4.23,7.06-2.12,9.45,6.96,10.72c9.08,1.27,41.86,11.15,61.58,1.14c19.71-10.01,46.51-13.27,46.51-13.27L2866.64,1168.07z"/>
		<path class="st12" d="M3082.41,897.04c0,0-6.68,227.86-56.72,253.75c-24.69,12.78-136.18,47.9-169.65,53.89
			c0,0-9-5.78-10.02-33.28c0,0,114.56-57.09,128.88-82.81c21.31-38.29-31.75-143.23-3.77-180.07
			C2999.12,871.67,3050.9,851.43,3082.41,897.04z"/>
	</g>
</g>
<g>
	<path class="st14" d="M1194.9,916.69l-70.69,840.55c0,0-7.41,50.95,30.49,51.04c62.32,0.15,310.17,0,310.17,0
		s-46.9-10.61-46.33-34.47c0.67-28.13,82.62-865.08,82.62-865.08L1194.9,916.69z"/>
	<path class="st7" d="M1484.98,1793.04c-12.26,0.04-248.98,0.78-309.67,0c-26.45-0.33-31.08-23.51-31.3-38.52
		c-0.11-7.19,0.8-12.51,0.8-12.51l1.84-21.85l4.69-55.68l4.14-49.2l5.32-63.22l4.48-53.36l50.23-597.27l306.26-7.95
		c0,0-34.52,350.26-58.93,605.22c-2.73,28.41-5.32,55.65-7.72,81.07c-0.78,8.12-1.52,16.05-2.25,23.78
		c-2.26,24.12-4.33,46.27-6.13,65.83c-0.95,10.31-1.83,19.89-2.62,28.66c-3.12,34.38-4.94,56.34-4.97,60.51
		c-0.01,2.43,0.19,4.7,0.6,6.8C1444.76,1792.16,1480.38,1793.04,1484.98,1793.04z"/>
	<polygon class="st15" points="451.13,459.29 623.33,1150.97 646.91,1245.69 727.11,1567.85 2217.09,1567.85 1921.49,459.29 	"/>
	<polygon class="st7" points="451.13,459.29 427.27,467.25 695.38,1591.92 727.11,1567.86 	"/>
	<polygon class="st14" points="695.38,1591.92 2176.2,1591.92 2217.09,1567.86 727.11,1567.86 	"/>
	<rect x="1215.4" y="1793.37" class="st15" width="320.62" height="15.24"/>
	<polygon class="st15" points="2144.91,1363.58 1903.14,473.95 448.75,473.95 448.75,459.29 1921.49,459.29 2162.45,1361.61 	"/>
	<polygon class="st14" points="1454.51,1591.91 1452.86,1603.56 1151.33,1664.47 1155.47,1615.28 1157.44,1591.91 	"/>
	<path class="st16" d="M1484.98,1793.04c-12.26,0.04-248.98,0.78-309.67,0c-26.45-0.33-31.08-23.51-31.3-38.52l300.1-56.46
		c-3.12,34.38-4.94,56.34-4.97,60.51c-0.01,2.43,0.19,4.7,0.6,6.8C1444.76,1792.16,1480.38,1793.04,1484.98,1793.04z"/>
	<polygon class="st16" points="1381.64,1343.44 727.11,1567.86 646.91,1245.69 	"/>
	<polygon class="st17" points="451.13,459.29 1921.49,459.29 2160.06,1350.23 665.36,1350.23 	"/>
</g>
<ellipse transform="matrix(0.672 -0.7405 0.7405 0.672 -600.4957 1569.7993)" class="st14" cx="1472.04" cy="1462.85" rx="35.9" ry="43.59"/>
<polygon class="st18" points="2090.71,1311.62 714.01,1311.62 558.1,690.53 546.15,642.9 535.95,602.28 512.04,507.02 
	1868.9,507.02 1895.15,602.28 1906.35,642.9 1919.48,690.53 "/>
<polygon class="st19" points="1895.15,602.28 535.95,602.28 512.04,507.02 1868.9,507.02 "/>
<g>
	<path class="st18" d="M577.11,538.16c-6.58,0-10.58,5.33-8.94,11.91c1.64,6.58,8.3,11.91,14.88,11.91c6.58,0,10.58-5.33,8.94-11.91
		C590.35,543.49,583.69,538.16,577.11,538.16z"/>
	<path class="st18" d="M616.68,538.16c-6.58,0-10.58,5.33-8.94,11.91c1.64,6.58,8.3,11.91,14.88,11.91c6.58,0,10.58-5.33,8.94-11.91
		C629.91,543.49,623.25,538.16,616.68,538.16z"/>
	<path class="st18" d="M674.16,550.07c-1.64-6.58-8.3-11.91-14.88-11.91c-6.58,0-10.58,5.33-8.94,11.91
		c1.64,6.58,8.3,11.91,14.88,11.91S675.8,556.64,674.16,550.07z"/>
</g>
<path class="st19" d="M1831.83,706.88l-10.23-41.01c-1.88-7.52-9.56-13.68-17.08-13.68H630.21c-7.52,0-12.14,6.15-10.27,13.68
	l10.23,41.01c1.88,7.52,9.56,13.67,17.09,13.67h1174.3C1829.08,720.56,1833.7,714.4,1831.83,706.88z"/>
<path class="st15" d="M1462.66,652.19l17.05,68.36H647.26c-7.52,0-15.21-6.15-17.09-13.68l-10.23-41.01
	c-1.88-7.52,2.74-13.67,10.27-13.67H1462.66z"/>
<polygon class="st17" points="1612.2,673.8 1613.51,679.06 1626.5,679.06 1619.72,701.45 1626.59,701.45 1633.24,678.38 
	1632.1,673.8 "/>
<path class="st17" d="M1647.66,673.33c-7.35,0-10.76,6.28-8.76,14.3c2.02,8.1,8.42,14.3,15.81,14.3c7.38,0,10.75-6.28,8.76-14.3
	C1661.44,679.53,1654.96,673.33,1647.66,673.33z M1653.42,696.43c-3.67,0-7.02-3.75-8.28-8.81c-1.28-5.13,0.17-8.81,3.81-8.81
	c3.63,0,7.03,3.79,8.28,8.81C1658.49,692.72,1657.09,696.43,1653.42,696.43z"/>
<path class="st17" d="M1699.69,694.69c-0.98-3.95-4.45-7.07-8.44-7.07c-4.03,0-5.97,3.16-4.99,7.07c0.98,3.95,4.45,7.07,8.44,7.07
	C1698.73,701.76,1700.66,698.56,1699.69,694.69z M1693.89,698.17c-1.58,0-3.01-1.62-3.47-3.48c-0.47-1.9,0-3.48,1.66-3.48
	c1.58,0,3.01,1.62,3.47,3.48C1696.01,696.55,1695.54,698.17,1693.89,698.17z"/>
<polygon class="st17" points="1687.02,673.8 1673.73,701.45 1678.43,701.45 1691.72,673.8 "/>
<path class="st17" d="M1679.19,680.56c-0.98-3.95-4.45-7.07-8.44-7.07c-4.03,0-5.96,3.16-4.99,7.07c0.98,3.95,4.45,7.07,8.44,7.07
	C1678.23,687.62,1680.15,684.43,1679.19,680.56z M1669.91,680.56c-0.47-1.9,0-3.48,1.66-3.48c1.58,0,3.01,1.62,3.47,3.48
	c0.46,1.86,0,3.48-1.66,3.48C1671.8,684.03,1670.37,682.41,1669.91,680.56z"/>
<g>
	<path class="st19" d="M1407.64,1016.86c8.53,0,13.72-6.92,11.6-15.45l0,0c-2.13-8.53-10.77-15.45-19.3-15.45H715.21
		c-8.53,0-13.72,6.92-11.6,15.45l0,0c2.13,8.53,10.77,15.45,19.3,15.45H1407.64z"/>
	<path class="st19" d="M1420.43,1068.15c8.53,0,13.72-6.92,11.6-15.45s-10.77-15.45-19.3-15.45H727.99
		c-8.53,0-13.72,6.92-11.6,15.45s10.77,15.45,19.3,15.45H1420.43z"/>
	<path class="st19" d="M1445.38,1106.26c-2.13-8.53-10.77-15.45-19.3-15.45H741.35c-8.53,0-13.72,6.92-11.6,15.45
		c2.13,8.53,10.77,15.45,19.3,15.45h684.74C1442.32,1121.71,1447.51,1114.79,1445.38,1106.26z"/>
	<path class="st19" d="M1032.94,933.51c2.67,10.72,13.53,19.42,24.26,19.42h76.37c10.72,0,17.25-8.69,14.57-19.42l-36.92-148.06
		c-2.67-10.72-13.53-19.42-24.26-19.42h-76.37c-10.72,0-17.25,8.69-14.57,19.42L1032.94,933.51z"/>
	<path class="st19" d="M1165.13,933.51c2.67,10.72,13.53,19.42,24.26,19.42h76.37c10.72,0,17.25-8.69,14.57-19.42l-36.92-148.06
		c-2.67-10.72-13.53-19.42-24.26-19.42h-76.37c-10.72,0-17.25,8.69-14.57,19.42L1165.13,933.51z"/>
	<path class="st19" d="M1294.85,933.51c2.67,10.72,13.53,19.42,24.26,19.42h76.37c10.72,0,17.25-8.69,14.57-19.42l-36.92-148.06
		c-2.67-10.72-13.53-19.42-24.26-19.42h-76.37c-10.72,0-17.25,8.69-14.57,19.42L1294.85,933.51z"/>
</g>
<g>
	<path class="st19" d="M1007.05,920.38l-30.37-121.81c-4.48-17.97-22.68-32.54-40.66-32.54H677.46c-17.97,0-28.91,14.57-24.43,32.54
		l30.37,121.81c4.48,17.97,22.68,32.54,40.66,32.54h258.56C1000.6,952.92,1011.53,938.35,1007.05,920.38z"/>
	<g>
		<path class="st17" d="M932.76,812.75c4.07,0,6.58-3.33,5.56-7.41v0c-1.02-4.07-5.18-7.41-9.25-7.41h-241.6
			c-4.07,0-6.58,3.33-5.56,7.41v0c1.02,4.07,5.18,7.41,9.25,7.41H932.76z"/>
		<path class="st17" d="M939.87,841.24c4.07,0,6.58-3.33,5.56-7.41l0,0c-1.02-4.07-5.18-7.41-9.25-7.41h-241.6
			c-4.07,0-6.58,3.33-5.56,7.41l0,0c1.02,4.07,5.18,7.41,9.25,7.41H939.87z"/>
		<path class="st17" d="M952.53,862.32c-1.02-4.07-5.18-7.41-9.25-7.41h-241.6c-4.07,0-6.58,3.33-5.56,7.41
			c1.02,4.07,5.18,7.41,9.25,7.41h241.6C951.05,869.73,953.55,866.4,952.53,862.32z"/>
		<path class="st17" d="M766.64,886.82h-57c-4.07,0-6.58,3.33-5.56,7.41c1.02,4.07,5.18,7.41,9.25,7.41h57
			c4.07,0,6.58-3.33,5.56-7.41C774.87,890.16,770.71,886.82,766.64,886.82z"/>
	</g>
</g>
<path class="st19" d="M2014.44,1245.61l-15.93-63.89c-2.35-9.43-11.9-17.07-21.32-17.07h-135.62c-9.43,0-15.16,7.64-12.81,17.07
	l15.93,63.89c2.35,9.43,11.9,17.07,21.33,17.07h135.62C2011.06,1262.68,2016.79,1255.04,2014.44,1245.61z"/>
<g>
	<path class="st17" d="M1975.48,1189.16c2.14,0,3.45-1.75,2.92-3.89c-0.53-2.14-2.72-3.88-4.85-3.88h-126.72
		c-2.14,0-3.45,1.75-2.92,3.88c0.53,2.14,2.72,3.89,4.85,3.89H1975.48z"/>
	<path class="st17" d="M1979.2,1204.1c2.14,0,3.45-1.75,2.92-3.89c-0.53-2.14-2.72-3.89-4.85-3.89h-126.72
		c-2.14,0-3.45,1.75-2.92,3.89c0.53,2.14,2.72,3.89,4.85,3.89H1979.2z"/>
	<path class="st17" d="M1985.84,1215.16c-0.53-2.14-2.72-3.89-4.85-3.89h-126.72c-2.14,0-3.45,1.75-2.92,3.89
		c0.53,2.14,2.72,3.88,4.85,3.88h126.72C1985.06,1219.04,1986.38,1217.3,1985.84,1215.16z"/>
	<path class="st17" d="M1888.34,1228.01h-29.9c-2.14,0-3.45,1.75-2.92,3.89l0,0c0.53,2.14,2.72,3.88,4.85,3.88h29.9
		c2.14,0,3.45-1.75,2.92-3.88C1892.66,1229.76,1890.47,1228.01,1888.34,1228.01z"/>
</g>
<g>
	<g>
		<path class="st15" d="M1073.99,1198.86c3.22,0,5.18-2.61,4.37-5.83l0,0c-0.8-3.22-4.06-5.83-7.28-5.83H812.81
			c-3.22,0-5.18,2.61-4.37,5.83l0,0c0.8,3.22,4.06,5.83,7.28,5.83H1073.99z"/>
		<path class="st15" d="M1078.81,1218.2c3.22,0,5.18-2.61,4.37-5.83l0,0c-0.8-3.22-4.06-5.83-7.28-5.83H817.63
			c-3.22,0-5.18,2.61-4.37,5.83l0,0c0.8,3.22,4.06,5.83,7.28,5.83H1078.81z"/>
		<path class="st15" d="M1080.94,1226.75H822.66c-3.22,0-5.18,2.61-4.37,5.83c0.8,3.22,4.06,5.83,7.28,5.83h258.28
			c3.22,0,5.18-2.61,4.37-5.83S1084.16,1226.75,1080.94,1226.75z"/>
		<path class="st15" d="M1407.31,1198.86c3.22,0,5.18-2.61,4.37-5.83l0,0c-0.8-3.22-4.06-5.83-7.28-5.83h-258.28
			c-3.22,0-5.18,2.61-4.37,5.83l0,0c0.8,3.22,4.06,5.83,7.28,5.83H1407.31z"/>
		<path class="st15" d="M1412.13,1218.2c3.22,0,5.18-2.61,4.37-5.83l0,0c-0.8-3.22-4.06-5.83-7.28-5.83h-258.28
			c-3.22,0-5.18,2.61-4.37,5.83l0,0c0.8,3.22,4.06,5.83,7.28,5.83H1412.13z"/>
		<path class="st15" d="M1414.26,1226.75h-258.28c-3.22,0-5.18,2.61-4.37,5.83c0.8,3.22,4.06,5.83,7.28,5.83h258.28
			c3.22,0,5.18-2.61,4.37-5.83S1417.48,1226.75,1414.26,1226.75z"/>
		<path class="st15" d="M1730.37,1198.86c3.22,0,5.18-2.61,4.37-5.83l0,0c-0.8-3.22-4.06-5.83-7.28-5.83h-258.28
			c-3.22,0-5.18,2.61-4.37,5.83l0,0c0.8,3.22,4.06,5.83,7.28,5.83H1730.37z"/>
		<path class="st15" d="M1735.19,1218.2c3.22,0,5.18-2.61,4.37-5.83l0,0c-0.8-3.22-4.06-5.83-7.28-5.83h-258.28
			c-3.22,0-5.18,2.61-4.37,5.83l0,0c0.8,3.22,4.06,5.83,7.28,5.83H1735.19z"/>
		<path class="st15" d="M1744.6,1232.58c-0.8-3.22-4.06-5.83-7.28-5.83h-258.28c-3.22,0-5.18,2.61-4.37,5.83
			c0.8,3.22,4.06,5.83,7.28,5.83h258.28C1743.44,1238.4,1745.4,1235.8,1744.6,1232.58z"/>
	</g>
	<g>
		<path class="st15" d="M1794.57,1271.51H798.56c-8.8,0-17.73-7.13-19.92-15.89l-19.89-79.77c-1.13-4.54-0.31-9.03,2.25-12.31
			c2.52-3.22,6.37-4.99,10.85-4.99h996.01c8.8,0,17.73,7.13,19.92,15.89l19.89,79.77c1.13,4.54,0.31,9.03-2.25,12.31
			C1802.9,1269.74,1799.05,1271.51,1794.57,1271.51z M771.85,1164.39c-2.64,0-4.86,0.98-6.24,2.75c-1.47,1.88-1.89,4.48-1.19,7.3
			l19.89,79.77c1.55,6.21,8.07,11.46,14.25,11.46h996.01c2.64,0,4.86-0.98,6.24-2.75c1.47-1.88,1.89-4.48,1.19-7.3l-19.89-79.77
			c-1.55-6.21-8.08-11.46-14.25-11.46H771.85z"/>
	</g>
</g>
<g>
	<g>
		<g>
			<path class="st20" d="M1599.67,939.15c-16.11-56.91,14.22-116.2,67.75-132.41c53.53-16.22,109.98,16.77,126.09,73.69
				c6.42,22.69,5.46,45.75-1.41,66.31l0,0c-7.56,26.36-36.42,62.27-32.18,77.27l4.85,17.13c0.97,3.42-0.85,6.98-4.07,7.96
				l-15.58,4.72l-14.31,4.34l-15.58,4.72c-3.22,0.97-6.61-1.01-7.57-4.43l-4.85-17.13c-4.24-14.99-47.28-29.13-67.38-47.1l0,0
				C1618.93,980.72,1606.1,961.84,1599.67,939.15z"/>
		</g>
	</g>
	<g>
		<path class="st0" d="M1748.5,1050.93c-0.84-2.55-14.29-43.39-21.44-80.59c-3.68,1.64-7.7,3.13-12.06,4.45
			c-4.37,1.32-8.53,2.31-12.48,2.98c13.38,35.31,23.35,77.2,23.97,79.82l-1.73,0.43c-0.15-0.65-10.47-43.98-24.11-79.95
			c-29.95,4.46-47.72-8.96-54.65-24.6c-4.05-9.14-3.68-19.58,0.9-24.81c2.77-3.18,6.74-4.85,11.47-4.84
			c7.44,0.01,15.72,4.32,22.15,11.5c7.43,8.3,14.77,23.61,21.32,40.64c4-0.66,8.21-1.65,12.66-3c4.44-1.35,8.51-2.87,12.22-4.54
			c-3.36-18-5.17-34.98-3.24-46.12c1.67-9.64,6.4-17.89,12.66-22.05c3.97-2.64,8.19-3.45,12.18-2.32
			c6.58,1.86,12.34,10.43,13.69,20.39c2.32,17.04-5.65,38.25-33.19,51.21c7.27,37.9,21.18,80.15,21.39,80.78L1748.5,1050.93z
			 M1741.21,899.89c-1.39,0.42-2.77,1.08-4.13,1.99c-5.85,3.89-10.28,11.67-11.86,20.81c-1.85,10.71-0.09,27.27,3.21,44.95
			c26.34-12.56,34-32.8,31.79-49.06c-1.23-9.08-6.55-17.17-12.36-18.81C1745.7,899.16,1743.45,899.21,1741.21,899.89z
			 M1653.86,926.35c-2.24,0.68-4.15,1.9-5.65,3.61c-4.04,4.62-4.3,14.4-0.6,22.73c6.61,14.92,23.61,27.69,52.35,23.57
			c-6.44-16.73-13.59-31.66-20.73-39.64c-6.1-6.81-13.89-10.89-20.84-10.9C1656.76,925.72,1655.25,925.93,1653.86,926.35z"/>
	</g>
	<g>
		<path class="st21" d="M1779.06,891.23c-3.07,0.93-6.31-0.96-7.23-4.23c-10.38-36.67-42.72-61.49-78.65-60.36
			c-3.2,0.1-5.92-2.57-6.06-5.96c-0.14-3.39,2.34-6.23,5.54-6.33c41.25-1.3,78.37,27.2,90.29,69.28
			C1783.87,886.9,1782.13,890.3,1779.06,891.23z"/>
	</g>
	<g>
		<path class="st21" d="M1670.37,824.3c0.92,3.27,4.16,5.16,7.23,4.23c3.07-0.93,4.81-4.33,3.89-7.6c-0.92-3.27-4.16-5.16-7.23-4.23
			C1671.19,817.63,1669.45,821.03,1670.37,824.3z"/>
	</g>
	<g class="st22">
		<g>
			<g>
				<path class="st23" d="M1795.06,886.58c6.61,43.88-13.09,97.34-72.39,115.31c-59.3,17.97-103.15-18.47-121.08-56.69
					c6.88,20,18.84,36.75,33.85,49.01l0,0c20.11,17.97,63.14,32.11,67.38,47.1l4.85,17.13c0.97,3.42,4.36,5.4,7.57,4.43l15.58-4.72
					l14.31-4.34l15.58-4.72c3.22-0.97,5.04-4.54,4.07-7.96l-4.85-17.13c-4.24-14.99,24.62-50.91,32.18-77.27l0,0
					C1798.36,928.03,1799.7,907.26,1795.06,886.58z"/>
			</g>
		</g>
	</g>
	<g>
		<path class="st24" d="M1764.29,1030.62l-61.69,18.69l8.85,31.26c1.44,5.1,4.23,9.69,8.02,13.22l0,0
			c7.17,6.67,17.01,9.05,26.09,6.3l9.04-2.74c9.08-2.75,16.12-10.24,18.68-19.86l0,0c1.35-5.09,1.3-10.5-0.14-15.61L1764.29,1030.62
			z"/>
	</g>
	<g>
		<g>
			<path class="st25" d="M1708.56,1070.4c0.18-0.05,0.35-0.11,0.53-0.18l59.77-25.49c2.04-0.87,2.94-3.33,2.01-5.49
				c-0.93-2.16-3.34-3.21-5.38-2.34l-59.77,25.49c-2.04,0.87-2.94,3.33-2.01,5.49C1704.56,1069.85,1706.65,1070.9,1708.56,1070.4z"
				/>
		</g>
	</g>
	<g>
		<g>
			<path class="st25" d="M1712.61,1084.7c0.18-0.05,0.35-0.11,0.53-0.18l59.77-25.49c2.04-0.87,2.94-3.33,2.01-5.49
				c-0.93-2.16-3.34-3.21-5.38-2.34l-59.77,25.49c-2.04,0.87-2.94,3.33-2.01,5.49C1708.61,1084.16,1710.7,1085.21,1712.61,1084.7z"
				/>
		</g>
	</g>
	<g>
		<g>
			<path class="st25" d="M1719.08,1098.12c0.18-0.05,0.35-0.11,0.53-0.18l56.65-24.16c2.04-0.87,2.94-3.33,2.01-5.49
				c-0.93-2.16-3.34-3.21-5.38-2.34l-56.65,24.16c-2.04,0.87-2.94,3.33-2.01,5.49C1715.09,1097.58,1717.17,1098.62,1719.08,1098.12z
				"/>
		</g>
	</g>
	<g>
		<line class="st26" x1="1655.04" y1="762.99" x2="1664.21" y2="795.37"/>
		<g>
			<line class="st26" x1="1713.62" y1="759.25" x2="1709.7" y2="792.6"/>
			<line class="st26" x1="1770.06" y1="781.05" x2="1753.73" y2="809.69"/>
			<line class="st26" x1="1603.77" y1="792.53" x2="1624.46" y2="818.43"/>
			<line class="st26" x1="1567.62" y1="842.38" x2="1596.3" y2="857.39"/>
		</g>
	</g>
</g>
</svg>
