<?xml version="1.0" encoding="utf-8"?>
<!-- Generator: Adobe Illustrator 26.0.1, SVG Export Plug-In . SVG Version: 6.00 Build 0)  -->
<svg version="1.1" id="Layer_1" xmlns="http://www.w3.org/2000/svg" xmlns:xlink="http://www.w3.org/1999/xlink" x="0px" y="0px"
	 viewBox="0 0 595.3 595.3" style="enable-background:new 0 0 595.3 595.3;" xml:space="preserve">
<style type="text/css">
	.st0{fill:none;}
	.st1{fill:#5B9C9F;stroke:#5B9C9F;stroke-width:6;stroke-miterlimit:10;}
	.st2{fill:#5B9C9F;}
</style>
<rect x="5" y="21.8" class="st0" width="585.3" height="546.4"/>
<g transform="translate(0.000000,245.000000) scale(0.100000,-0.100000)">
	<path class="st1" d="M2031.4,982.5c-618.2-69-1293.1-387.1-1747.3-824.9C190.9,66.4,178.8,44.1,178.8-29
		c0-113.5,69-182.5,180.4-182.5c73,0,99.3,16.2,218.9,123.7c200.6,182.5,393.3,312.1,644.5,435.8
		c393.3,196.6,748,277.7,1195.8,277.7c693.3,0,1323.6-243.2,1840.5-713.5c119.6-107.5,145.9-123.7,218.9-123.7
		c111.5,0,180.4,69,180.4,180.4c0,75-12.1,93.3-133.7,208.7c-385.2,369-924.3,648.6-1483.7,768.2
		C2813.7,994.6,2294.8,1012.9,2031.4,982.5z"/>
	<path class="st1" d="M1962.5,33.9c-324.3-70.9-602-200.6-865.5-401.4C902.5-513.4,827.4-602.6,827.4-679.6
		c0-83.1,30.4-133.7,103.3-172.3c89.2-44.5,139.9-26.4,318.3,123.7c186.5,158.2,437.8,291.9,685.2,366.9
		c162.2,50.7,210.8,54.7,484.4,54.7s322.3-4,486.5-54.7c243.2-75,494.6-208.7,685.2-369c85.2-70.9,180.4-135.8,210.8-141.8
		c85.2-14.2,182.5,54.7,198.7,141.8c20.2,107.5-2.1,145.9-168.2,287.9c-257.4,221-527,362.8-865.5,456.1
		C2732.8,76.4,2207.7,88.6,1962.5,33.9z"/>
	<path class="st1" d="M2149-870.2c-251.3-56.8-583.8-257.4-650.7-395.2c-32.4-64.9-20.2-135.8,36.4-204.7
		c30.4-38.5,58.8-48.6,129.7-48.6c75,0,103.3,12.1,176.3,79c46.6,42.6,145.9,105.4,221,141.8c125.6,58.8,148,62.8,356.7,62.8
		c210.8,0,231-4,369-69c79-36.4,174.4-97.3,210.8-135.8c113.5-117.5,269.6-111.5,332.4,12.1c46.6,91.2,22.3,164.2-87.1,267.6
		c-204.7,192.5-470.2,297.9-774.2,312.1C2345.5-843.8,2230.1-849.8,2149-870.2z"/>
	<path class="st1" d="M2301-1762c-105.4-36.4-168.2-99.3-208.7-204.7c-109.4-285.8,180.4-565.5,466.1-445.9
		c87.1,36.4,188.5,162.2,204.7,255.3c28.3,174.4-83.1,358.8-243.2,403.3C2418.5-1725.5,2396.2-1727.5,2301-1762z"/>
</g>
<path class="st2" d="M541,68.7c10.5,5.8,19.2,18.9,23.5,34.8c4.9,17.9,5.4,26.9,3.6,58.2c-2.5,41-13.6,182-15.2,192.1
	c-3,19.1-13.2,32.1-25.1,32.1c-11.9,0-22.1-13-25.1-32.1c-1-6-6.4-71-10.8-128.5c-5.5-72.9-6.3-92.3-4.5-104.7
	c3.9-26.2,14.5-46.1,28-52.1c1.7-0.7,3.7-1.7,4.5-1.9C522.6,65.2,537.8,66.8,541,68.7z M535.6,437.1c19.1,5.9,25.2,29.6,11.3,43.9
	c-12.7,13.1-34.9,9.8-43.2-6.5c-7.6-14.9,0.7-33.2,16.9-37.8C525.1,435.5,531,435.6,535.6,437.1z"/>
</svg>
