<?xml version="1.0" encoding="utf-8"?>
<!-- Generator: Adobe Illustrator 25.1.0, SVG Export Plug-In . SVG Version: 6.00 Build 0)  -->
<svg version="1.1" id="Layer_1" xmlns="http://www.w3.org/2000/svg" xmlns:xlink="http://www.w3.org/1999/xlink" x="0px" y="0px"
	 viewBox="0 0 595.3 595.3" style="enable-background:new 0 0 595.3 595.3;" xml:space="preserve">
<style type="text/css">
	.st0{fill:none;}
	.st1{fill:#5B9C9F;}
</style>
<rect x="5" y="21.8" class="st0" width="585.3" height="546.4"/>
<g>
	<path class="st1" d="M273.6,371.6h174.2c6.8,0,12.2-5.5,12.2-12.2s-5.5-12.2-12.2-12.2H273.6c-6.8,0-12.2,5.5-12.2,12.2
		S266.9,371.6,273.6,371.6z"/>
	<path class="st1" d="M273.6,278.4h66.5c6.8,0,12.2-5.5,12.2-12.2s-5.5-12.2-12.2-12.2h-66.5c-6.8,0-12.2,5.5-12.2,12.2
		S266.9,278.4,273.6,278.4z"/>
	<path class="st1" d="M273.6,420.9h174.2c6.8,0,12.2-5.5,12.2-12.2s-5.5-12.2-12.2-12.2H273.6c-6.8,0-12.2,5.5-12.2,12.2
		S266.9,420.9,273.6,420.9z"/>
	<path class="st1" d="M273.6,470h174.2c6.8,0,12.2-5.5,12.2-12.2s-5.5-12.2-12.2-12.2H273.6c-6.8,0-12.2,5.5-12.2,12.2
		S266.9,470,273.6,470z"/>
	<path class="st1" d="M530.1,134.6h-44.6V90c0-10.1-8.2-18.4-18.4-18.4h-44.6V27.1c0-10.1-8.2-18.4-18.4-18.4H65.3
		c-10.1,0-18.4,8.2-18.4,18.4v415.2c0,10.1,8.2,18.4,18.4,18.4h44.6v44.6c0,10.1,8.2,18.4,18.4,18.4h44.6v44.6
		c0,10.1,8.2,18.4,18.4,18.4H530c10.1,0,18.4-8.2,18.4-18.4V153C548.6,142.8,540.3,134.6,530.1,134.6z M109.9,90v333.8H83.7V45.4
		h301.9v26.2H128.4C118.1,71.5,109.9,79.9,109.9,90z M173,153v333.8h-26.2V108.4h301.9v26.2H191.4C181.2,134.6,173,142.8,173,153z
		 M511.8,549.9H209.9V171.5h301.9V549.9z"/>
</g>
</svg>
