<?xml version="1.0" encoding="utf-8"?>
<!-- Generator: Adobe Illustrator 25.1.0, SVG Export Plug-In . SVG Version: 6.00 Build 0)  -->
<svg version="1.1" id="Layer_1" xmlns="http://www.w3.org/2000/svg" xmlns:xlink="http://www.w3.org/1999/xlink" x="0px" y="0px"
	 viewBox="0 0 595.3 595.3" style="enable-background:new 0 0 595.3 595.3;" xml:space="preserve">
<style type="text/css">
	.st0{fill:none;}
	.st1{fill:#5B9C9F;}
</style>
<rect x="5" y="21.8" class="st0" width="585.3" height="546.4"/>
<g>
	<path class="st1" d="M426.8,479.2c0,12.7-10.6,23.1-23.6,23.1H140.4c-13.1,0-23.6-10.3-23.6-23.1V85c0-12.7,10.6-23.1,23.6-23.1
		h262.8c13,0,23.6,10.3,23.6,23.1v85.5c13.8,0,27.7,0,41.5,0.2V85.5c0-42.3-35.1-76.6-78.5-76.6H153.8c-43.4,0-78.7,34.2-78.7,76.6
		v424.3c0,42.3,35.1,76.6,78.7,76.6h235.9c43.4,0,78.5-34.4,78.5-76.6V385.7c-13.8,0-27.7-0.2-41.5-0.5V479.2z M271.6,552.2
		c-10.3,0-18.5-8.1-18.5-18s8.2-18,18.5-18s18.5,8.1,18.5,18C290.3,544.1,281.9,552.2,271.6,552.2z"/>
	<g>
		<path id="XMLID_3065_" class="st1" d="M295.2,307.9c0.6,4.3,4.4,7.1,8.7,6.5l13.3-1.9c2.8,6.6,6.6,12.8,11.1,18.5l-8.1,10.8
			c-1.3,1.6-1.7,3.6-1.4,5.7c0.3,2.1,1.4,3.8,3,5.1l27.7,20.7c3.5,2.5,8.2,1.9,10.8-1.6l8.1-10.8c6.8,2.7,13.8,4.4,20.9,5.4
			l1.9,13.3c0.3,2.1,1.4,3.8,3,5.1c1.3,0.9,3,1.6,4.6,1.6c0.3,0,0.8,0,1.1-0.2l34.4-4.9c4.3-0.6,7.1-4.4,6.5-8.7l-1.9-13.3
			c6.6-2.8,12.8-6.6,18.5-11.1l10.8,8.1c3.5,2.5,8.2,1.9,10.8-1.6l20.7-27.7c2.5-3.5,1.9-8.2-1.6-10.8l-10.8-8.1
			c2.7-6.8,4.4-13.8,5.4-20.9l13.3-1.9c2.1-0.3,3.8-1.4,5.1-3c1.3-1.6,1.7-3.6,1.4-5.7l-4.9-34.4c-0.6-4.3-4.4-7.1-8.7-6.5
			l-13.3,1.9c-2.8-6.6-6.6-12.8-11.1-18.5l8.1-10.8c1.3-1.6,1.7-3.6,1.4-5.7c-0.3-2.1-1.4-3.8-3-5.1l-27.7-20.7
			c-1.6-1.3-3.6-1.7-5.7-1.4c-2.1,0.3-3.8,1.4-5.1,3l-8.1,10.8c-6.8-2.7-13.8-4.4-20.9-5.4l-1.9-13.3c-0.6-4.3-4.4-7.1-8.7-6.5
			l-34.4,4.9c-2.1,0.3-3.8,1.4-5.1,3c-1.3,1.6-1.7,3.6-1.4,5.7l1.9,13.3c-6.6,2.8-12.8,6.6-18.5,11.1l-10.8-8.1
			c-1.6-1.3-3.6-1.7-5.7-1.4c-2.1,0.3-3.8,1.4-5.1,3l-20.7,27.7c-1.3,1.6-1.7,3.6-1.4,5.7c0.3,2.1,1.4,3.8,3,5.1l10.8,8.1
			c-2.7,6.8-4.4,13.8-5.4,20.9l-13.3,1.9c-2.1,0.3-3.8,1.4-5.1,3c-1.3,1.6-1.7,3.6-1.4,5.7L295.2,307.9z M318.3,277.4
			c3.6-0.5,6.3-3.5,6.6-7.1c0.6-9.5,3-18.7,7-27.4c1.6-3.3,0.6-7.3-2.4-9.5l-9.3-7l11.6-15.4l9.3,7c2.8,2.2,7,2.1,9.7-0.3
			c7.3-6.3,15.4-11.2,24.4-14.4c3.5-1.3,5.5-4.7,5.1-8.4l-1.7-11.6l19-2.7l1.7,11.6c0.5,3.6,3.5,6.3,7.1,6.6c9.5,0.6,18.7,3,27.4,7
			c3.3,1.6,7.3,0.6,9.5-2.4l7-9.3l15.4,11.6l-7,9.3c-2.2,2.8-2.1,7,0.3,9.7c6.3,7.3,11.2,15.4,14.4,24.4c1.3,3.5,4.7,5.5,8.4,5.1
			l11.6-1.6l2.7,19l-11.6,1.6c-3.6,0.5-6.3,3.5-6.6,7.1c-0.6,9.5-3,18.7-7,27.4c-1.6,3.3-0.6,7.3,2.4,9.5l9.3,7l-11.6,15.4l-9.3-7
			c-2.8-2.2-7-2.1-9.7,0.3c-7.3,6.3-15.4,11.2-24.4,14.4c-3.5,1.3-5.5,4.7-5.1,8.4l1.7,11.6l-19,2.7l-1.7-11.6
			c-0.5-3.6-3.5-6.3-7.1-6.6c-9.5-0.6-18.7-3-27.4-7c-1.1-0.5-2.2-0.8-3.3-0.8c-2.4,0-4.7,1.1-6.2,3l-7,9.3l-15.4-11.6l7-9.3
			c2.2-2.8,2.1-7-0.3-9.7c-6.3-7.3-11.2-15.4-14.4-24.4c-1.3-3.5-4.7-5.5-8.4-5.1l-11.6,1.7l-2.7-19L318.3,277.4z"/>
		<path id="XMLID_3062_" class="st1" d="M401.4,330.6c2.5,0,5.2-0.2,7.9-0.6c30.2-4.3,51.3-32.5,47-62.7
			c-4.3-30.2-32.5-51.3-62.7-47c-30.2,4.3-51.3,32.5-47,62.7C350.6,310.6,374.4,330.6,401.4,330.6z M395.7,235.6
			c1.9-0.3,3.8-0.5,5.7-0.5c19.6,0,36.7,14.4,39.6,34.4c3.2,21.8-12,42.1-33.9,45.3c-21.8,3.2-42.1-12-45.3-33.9
			C358.7,259,373.9,238.7,395.7,235.6z"/>
	</g>
</g>
</svg>
