<?xml version="1.0" encoding="utf-8"?>
<!-- Generator: Adobe Illustrator 25.1.0, SVG Export Plug-In . SVG Version: 6.00 Build 0)  -->
<svg version="1.1" id="Layer_1" xmlns="http://www.w3.org/2000/svg" xmlns:xlink="http://www.w3.org/1999/xlink" x="0px" y="0px"
	 viewBox="0 0 595.3 595.3" style="enable-background:new 0 0 595.3 595.3;" xml:space="preserve">
<style type="text/css">
	.st0{fill:none;stroke:#5B9C9F;stroke-width:42.8966;stroke-linecap:round;stroke-linejoin:round;stroke-miterlimit:22.926;}
	.st1{fill:none;}
</style>
<polyline class="st0" points="404.3,303.5 297.6,196.1 190.9,303.5 "/>
<line class="st0" x1="297.6" y1="207.4" x2="297.6" y2="546.7"/>
<path class="st0" d="M385.6,381.4h61.8c67,0,121.3-54.2,121.3-121c0-66.9-54.3-121.1-121.3-121.1c-8.4,0-16.6,0.9-24.5,2.5
	c-22.6-57.7-78.8-98.5-144.5-98.5c-85.6,0-155.1,69.3-155.1,154.7l0,2.2c-2-0.2-4-0.2-6-0.2c-50.2,0-90.9,40.6-90.9,90.7
	c0,50.1,40.7,90.7,90.9,90.7h83.1"/>
<rect x="5" y="21.8" class="st1" width="585.3" height="546.4"/>
</svg>
