<?xml version="1.0" encoding="utf-8"?>
<!-- Generator: Adobe Illustrator 25.1.0, SVG Export Plug-In . SVG Version: 6.00 Build 0)  -->
<svg version="1.1" id="Layer_1" xmlns="http://www.w3.org/2000/svg" xmlns:xlink="http://www.w3.org/1999/xlink" x="0px" y="0px"
	 viewBox="0 0 595.3 595.3" style="enable-background:new 0 0 595.3 595.3;" xml:space="preserve">
<style type="text/css">
	.st0{fill:none;}
	.st1{fill:#5B9C9F;}
</style>
<rect x="5" y="21.8" class="st0" width="585.3" height="546.4"/>
<g>
	<path class="st1" d="M248.1,441.7l-68.5,66c-28.3,27.4-74.3,27.4-102.6,0s-28.3-71.5,0-98.9l136.8-132c28.3-27.4,74.3-27.4,102.6,0
		c9.4,9.1,24.8,9.1,34.2,0c9.4-9.1,9.4-23.8,0-32.9c-47.2-45.5-123.7-45.5-170.9,0l-136.8,132c-47.2,45.5-47.2,119.4,0,164.9
		s123.7,45.5,171.1,0l68.5-66c9.4-9.1,9.4-23.8,0-32.9C272.9,432.6,257.5,432.6,248.1,441.7"/>
	<path class="st1" d="M552.4,49.2c-47.2-45.5-123.9-45.5-171.1,0l-82,79.1c-9.4,9.1-9.4,23.8,0,32.9c9.4,9.1,24.8,9.1,34.2,0
		l82-79.1c28.3-27.4,74.3-27.4,102.6,0c28.3,27.4,28.3,71.5,0,98.9L367.8,326.1c-28.3,27.4-74.3,27.4-102.6,0
		c-9.4-9.1-24.8-9.1-34.2,0s-9.4,23.8,0,32.9c47.2,45.5,123.7,45.5,170.9,0L552.4,214C599.6,168.6,599.6,94.7,552.4,49.2"/>
</g>
</svg>
