<?xml version="1.0" encoding="utf-8"?>
<!-- Generator: Adobe Illustrator 25.1.0, SVG Export Plug-In . SVG Version: 6.00 Build 0)  -->
<svg version="1.1" id="Layer_1" xmlns="http://www.w3.org/2000/svg" xmlns:xlink="http://www.w3.org/1999/xlink" x="0px" y="0px"
	 viewBox="0 0 595.3 595.3" style="enable-background:new 0 0 595.3 595.3;" xml:space="preserve">
<style type="text/css">
	.st0{fill:none;}
	.st1{fill:#5B9C9F;}
</style>
<rect x="5" y="21.8" class="st0" width="585.3" height="546.4"/>
<g>
	<path class="st1" d="M392.4,479.9c0,12.7-10.6,23.2-23.7,23.2H105.2c-13.2,0-23.7-10.3-23.7-23.2V84.5c0-12.7,10.6-23.2,23.7-23.2
		h263.4c13,0,23.7,10.3,23.7,23.2v85.7c13.8,0,27.8,0,41.6,0.2V85c0-42.4-35.3-76.9-78.8-76.9H118.7C75.2,8.2,39.8,42.5,39.8,85
		v425.6c0,42.4,35.3,76.9,78.9,76.9h236.4c43.5,0,78.8-34.5,78.8-76.9V386.1c-13.8,0-27.8-0.2-41.6-0.5v94.3H392.4z M237,553.2
		c-10.3,0-18.6-8.1-18.6-18.1c0-10,8.3-18.1,18.6-18.1c10.3,0,18.6,8.1,18.6,18.1S247.3,553.2,237,553.2z"/>
	<path class="st1" d="M480.9,235.9l-18.1-18.4l18.6-17.3l18.1,18.4L480.9,235.9z M546,175.2l-27.9,26l-18.1-18.4l27.9-26
		c2.5-2.4,5.9-3.7,9.2-3.5c3.5,0.2,6.7,1.6,9.1,4s3.8,5.7,3.7,9.1C549.8,169.7,548.4,172.8,546,175.2 M259.5,424.7l11.6-21.6
		l11,11.4L259.5,424.7z M575.4,168.4c0.2-10-3.8-19.8-11-27.2c-7.1-7.3-17-11.6-27.3-11.9c-10.3-0.3-20.2,3.5-27.6,10.3l-37.3,35.1
		L435,209.5L258.4,373.7c-0.6,0.6-1.1,1.4-1.6,2.2l-0.3,1.1L224,437.9c-1,1.9-1.9,3.7-2.5,5.7l-0.8,2.4c-0.6,1.9-1.3,3.8-1.6,5.7
		l-0.5,2.4c-0.5,2.9,0.2,5.7,1.9,7.9l0,0c1.3,2.4,7,3.7,7,3.7c1,0.2,2.4,0.5,4.1,0.3c1.4-0.2,2.7-0.5,4-1l73.8-33.7
		c0.6-0.3,1.1-0.8,1.4-1.3c0.6-0.3,1.1-0.8,1.6-1.3l94.3-88c3.5-3,5.1-7.8,4-12.2c-1.1-4.6-4.6-8.1-9.2-9.5c-4.6-1.3-9.5,0-12.7,3.3
		L304,401.7l-18.1-18.4l158-147.5l18.1,18.4l-35.9,33.5c-3.5,3-5.1,7.8-4,12.4s4.6,8.1,9.2,9.5c4.6,1.3,9.5,0,12.7-3.3l45.1-42.1
		l37.2-34.8l37.2-34.6C570.9,187.8,575.1,178.4,575.4,168.4"/>
</g>
</svg>
