<?xml version="1.0" encoding="utf-8"?>
<!-- Generator: Adobe Illustrator 25.1.0, SVG Export Plug-In . SVG Version: 6.00 Build 0)  -->
<svg version="1.1" id="Layer_1" xmlns="http://www.w3.org/2000/svg" xmlns:xlink="http://www.w3.org/1999/xlink" x="0px" y="0px"
	 viewBox="0 0 595.3 595.3" style="enable-background:new 0 0 595.3 595.3;" xml:space="preserve">
<style type="text/css">
	.st0{fill:none;}
	.st1{fill:#5B9C9F;}
</style>
<rect x="5" y="21.8" class="st0" width="585.3" height="546.4"/>
<g id="XMLID_3164_">
	<path id="XMLID_3168_" class="st1" d="M354.7,318.2c2.2,0.9,4.5,1.5,6.6,1.5c3.7,0,7.2-1.2,10.2-3.7l166.8-140.8
		c3.5-2.9,5.6-7.4,5.6-12s-2-9.1-5.6-12L371.6,10.2c-4.6-4-11.3-4.8-16.8-2.3c-5.6,2.6-9.1,8.2-9.1,14.3v44.1h-286
		C51,66.3,44,73.4,44,82v161.9c0,8.8,7.1,15.7,15.7,15.7h285.8v44.1C345.6,310.1,349.1,315.8,354.7,318.2z M75.6,228.4V97.9h285.8
		c8.8,0,15.7-7.1,15.7-15.7V56.3l126.6,106.8L377.2,270v-25.9c0-8.8-7.1-15.7-15.7-15.7H75.6z"/>
	<path id="XMLID_3165_" class="st1" d="M49.6,444.3l166.8,140.8c2.9,2.5,6.5,3.7,10.2,3.7c2.3,0,4.5-0.5,6.6-1.5
		c5.6-2.6,9.1-8.2,9.1-14.3v-44.1h285.8c8.8,0,15.7-7.1,15.7-15.7V351.2c0-8.8-7.1-15.7-15.7-15.7H242.4v-44.1
		c0-6.2-3.5-11.7-9.1-14.3c-5.6-2.6-12.2-1.7-16.8,2.3L49.7,420.1c-3.5,2.9-5.6,7.4-5.6,12C44,436.9,46,441.3,49.6,444.3z
		 M210.8,325.5v25.9c0,8.8,7.1,15.7,15.7,15.7h285.8v130.4H226.6c-8.8,0-15.7,7.1-15.7,15.7v25.9L84.3,432.3L210.8,325.5z"/>
</g>
</svg>
