<?xml version="1.0" encoding="utf-8"?>
<!-- Generator: Adobe Illustrator 25.2.1, SVG Export Plug-In . SVG Version: 6.00 Build 0)  -->
<svg version="1.1" id="Layer_1" xmlns="http://www.w3.org/2000/svg" xmlns:xlink="http://www.w3.org/1999/xlink" x="0px" y="0px"
	 viewBox="0 0 595.3 841.9" style="enable-background:new 0 0 595.3 841.9;" xml:space="preserve">
<style type="text/css">
	.st0{fill:#5A9B9F;}
	.st1{fill:none;}
	.st2{fill:none;stroke:#5A9B9F;stroke-width:8;stroke-linecap:round;stroke-miterlimit:10;}
	.st3{fill:#FFFFFF;}
	.st4{fill:#5A9B9F;stroke:#5A9B9F;stroke-width:8;stroke-linecap:round;stroke-miterlimit:10;}
	.st5{fill:#5A9B9F;stroke:#5A9B9F;stroke-width:8;stroke-miterlimit:10;}
	.st6{fill:none;stroke:#FFFFFF;stroke-width:0.6533;stroke-linecap:round;stroke-miterlimit:10;}
	.st7{fill:none;stroke:#FFFFFF;stroke-width:0.25;stroke-miterlimit:10;}
	.st8{fill:none;stroke:#5A9B9F;stroke-width:8;stroke-miterlimit:10;}
	.st9{fill:none;stroke:#FFFFFF;stroke-width:0.6533;stroke-miterlimit:10;}
</style>
<path class="st0" d="M258.1,398.9c3.3,0,3.3-5,0-5C254.9,393.9,254.9,398.9,258.1,398.9"/>
<rect x="81.3" y="176.5" class="st1" width="432.6" height="380"/>
<rect x="78.8" y="153.2" class="st1" width="418.1" height="403.3"/>
<path class="st0" d="M176.1,453.3c-29.3,0-52.9,24.6-51.4,54.2c1.4,26.1,22.5,47.1,48.5,48.5c29.6,1.6,54.3-22,54.3-51.3
	C227.6,476.4,204.5,453.3,176.1,453.3 M176.1,539c-19.8,0-35.7-16.9-34.2-37c1.3-16.8,14.8-30.3,31.6-31.5
	c20.1-1.5,36.8,14.4,36.8,34.2C210.4,523.6,195.1,539,176.1,539"/>
<path class="st2" d="M176.1,453.3c-29.3,0-52.9,24.6-51.4,54.2c1.4,26.1,22.5,47.1,48.5,48.5c29.6,1.6,54.3-22,54.3-51.3
	C227.6,476.4,204.5,453.3,176.1,453.3 M176.1,539c-19.8,0-35.7-16.9-34.2-37c1.3-16.8,14.8-30.3,31.6-31.5
	c20.1-1.5,36.8,14.4,36.8,34.2C210.4,523.6,195.1,539,176.1,539"/>
<path class="st3" d="M467.6,453.3c-29.3,0-52.9,24.6-51.4,54.2c1.4,26.1,22.5,47.1,48.5,48.5c29.6,1.6,54.3-22,54.3-51.3
	C519,476.4,495.9,453.3,467.6,453.3 M467.6,539c-19.8,0-35.7-16.9-34.2-37c1.3-16.8,14.8-30.3,31.6-31.5
	c20.1-1.5,36.8,14.4,36.8,34.2C501.8,523.6,486.5,539,467.6,539"/>
<path class="st4" d="M467.6,453.3c-29.3,0-52.9,24.6-51.4,54.2c1.4,26.1,22.5,47.1,48.5,48.5c29.6,1.6,54.3-22,54.3-51.3
	C519,476.4,495.9,453.3,467.6,453.3 M467.6,539c-19.8,0-35.7-16.9-34.2-37c1.3-16.8,14.8-30.3,31.6-31.5
	c20.1-1.5,36.8,14.4,36.8,34.2C501.8,523.6,486.5,539,467.6,539"/>
<path class="st0" d="M569,405.8l-77.1-120c-1.6-2.5-4.3-3.9-7.2-3.9h-88.4c-8,0-14.5,6.5-14.5,14.5v202.4c0,8,6.5,14.5,14.5,14.5
	h22.3c3.4,0,6.1-2.7,6.1-6.1v-5c0-3.4-2.7-6.1-6.1-6.1h-13.5c-3.4,0-6.1-2.7-6.1-6.1v-185c0-3.4,2.7-6.1,6.1-6.1h71.6
	c2.1,0,4,1,5.1,2.8l70.5,109.6c0.6,1,1,2.1,1,3.3v75.3c0,3.4-2.7,6.1-6.1,6.1h-30.7c-3.4,0-6.1,2.7-6.1,6.1v5c0,3.4,2.7,6.1,6.1,6.1
	h39.4c8,0,14.5-6.5,14.5-14.5v-88.4C570.4,408.8,569.9,407.2,569,405.8"/>
<path class="st2" d="M569,405.8l-77.1-120c-1.6-2.5-4.3-3.9-7.2-3.9h-88.4c-8,0-14.5,6.5-14.5,14.5v202.4c0,8,6.5,14.5,14.5,14.5
	h22.3c3.4,0,6.1-2.7,6.1-6.1v-5c0-3.4-2.7-6.1-6.1-6.1h-13.5c-3.4,0-6.1-2.7-6.1-6.1v-185c0-3.4,2.7-6.1,6.1-6.1h71.6
	c2.1,0,4,1,5.1,2.8l70.5,109.6c0.6,1,1,2.1,1,3.3v75.3c0,3.4-2.7,6.1-6.1,6.1h-30.7c-3.4,0-6.1,2.7-6.1,6.1v5c0,3.4,2.7,6.1,6.1,6.1
	h39.4c8,0,14.5-6.5,14.5-14.5v-88.4C570.4,408.8,569.9,407.2,569,405.8"/>
<path class="st3" d="M433.3,385.7v-44.4c0-4.4,3.6-8,8-8h53.5c3.9,0,7-3.2,7-7v-2.9c0-4-3.2-7.2-7.2-7.2h-70c-4.7,0-8.6,3.9-8.6,8.6
	v71.6c0,7.8,6.3,14.1,14.1,14.1h114.5c4.7,0,8.6-3.9,8.6-8.6s-3.8-8.6-8.6-8.6H440.9C436.7,393.3,433.3,389.9,433.3,385.7"/>
<path class="st4" d="M433.3,385.7v-44.4c0-4.4,3.6-8,8-8h53.5c3.9,0,7-3.2,7-7v-2.9c0-4-3.2-7.2-7.2-7.2h-70c-4.7,0-8.6,3.9-8.6,8.6
	v71.6c0,7.8,6.3,14.1,14.1,14.1h114.5c4.7,0,8.6-3.9,8.6-8.6s-3.8-8.6-8.6-8.6H440.9C436.7,393.3,433.3,389.9,433.3,385.7z"/>
<path class="st5" d="M390.4,221.9H64.7c-4.7,0-8.6,3.8-8.6,8.6v274.3c0,4.7,3.8,8.6,8.6,8.6h62.4c3.4,0,6.2-2.8,6.2-6.2v-4.8
	c0-3.4-2.8-6.2-6.2-6.2H79.5c-3.4,0-6.2-2.8-6.2-6.2V245.2c0-3.4,2.8-6.2,6.2-6.2h296.2c3.4,0,6.2,2.8,6.2,6.2v244.7
	c0,3.4-2.8,6.2-6.2,6.2H225.2c-3.4,0-6.2,2.8-6.2,6.2v4.8c0,3.4,2.8,6.2,6.2,6.2h159.2c8.1,0,14.6-6.5,14.6-14.6V230.5
	C399,225.7,395.1,221.9,390.4,221.9"/>
<path class="st6" d="M390.4,221.9H64.7c-4.7,0-8.6,3.8-8.6,8.6v274.3c0,4.7,3.8,8.6,8.6,8.6h62.4c3.4,0,6.2-2.8,6.2-6.2v-4.8
	c0-3.4-2.8-6.2-6.2-6.2H79.5c-3.4,0-6.2-2.8-6.2-6.2V245.2c0-3.4,2.8-6.2,6.2-6.2h296.2c3.4,0,6.2,2.8,6.2,6.2v244.7
	c0,3.4-2.8,6.2-6.2,6.2H225.2c-3.4,0-6.2,2.8-6.2,6.2v4.8c0,3.4,2.8,6.2,6.2,6.2h159.2c8.1,0,14.6-6.5,14.6-14.6V230.5
	C399,225.7,395.1,221.9,390.4,221.9"/>
<path class="st3" d="M72.8,479.3h34.5c4.7,0,8.5-3.8,8.5-8.5v-0.2c0-4.7-3.8-8.5-8.5-8.5H72.8c-4.7,0-8.5,3.8-8.5,8.5v0.2
	C64.3,475.5,68.1,479.3,72.8,479.3"/>
<path class="st4" d="M72.8,479.3h34.5c4.7,0,8.5-3.8,8.5-8.5v-0.2c0-4.7-3.8-8.5-8.5-8.5H72.8c-4.7,0-8.5,3.8-8.5,8.5v0.2
	C64.3,475.5,68.1,479.3,72.8,479.3z"/>
<path class="st3" d="M244.3,462.1h128.6c4.7,0,8.6,3.8,8.6,8.6s-3.8,8.6-8.6,8.6H244.3c-4.7,0-8.6-3.9-8.6-8.6
	S239.6,462.1,244.3,462.1"/>
<path class="st4" d="M244.3,462.1h128.6c4.7,0,8.6,3.8,8.6,8.6s-3.8,8.6-8.6,8.6H244.3c-4.7,0-8.6-3.9-8.6-8.6
	S239.6,462.1,244.3,462.1z"/>
<path class="st5" d="M535,479.3h18.6c4.3,0,7.9-3.5,7.9-7.9V470c0-4.3-3.5-7.9-7.9-7.9H535c-4.3,0-7.9,3.5-7.9,7.9v1.4
	C527.1,475.7,530.6,479.3,535,479.3"/>
<path class="st7" d="M535,479.3h18.6c4.3,0,7.9-3.5,7.9-7.9V470c0-4.3-3.5-7.9-7.9-7.9H535c-4.3,0-7.9,3.5-7.9,7.9v1.4
	C527.1,475.7,530.6,479.3,535,479.3z"/>
<path class="st0" d="M98.6,256.4h282.8c4.7,0,8.6,3.8,8.6,8.6s-3.8,8.6-8.6,8.6H98.6c-4.7,0-8.6-3.9-8.6-8.6
	C90,260.3,93.8,256.4,98.6,256.4"/>
<path class="st8" d="M98.6,256.4h282.8c4.7,0,8.6,3.8,8.6,8.6s-3.8,8.6-8.6,8.6H98.6c-4.7,0-8.6-3.9-8.6-8.6
	C90,260.3,93.8,256.4,98.6,256.4z"/>
<path class="st0" d="M172.2,496.4h7.1c2.8,0,5,2.2,5,5v7.1c0,2.8-2.2,5-5,5h-7.1c-2.8,0-5-2.3-5-5v-7.1
	C167.1,498.6,169.4,496.4,172.2,496.4"/>
<path class="st6" d="M172.2,496.4h7.1c2.8,0,5,2.2,5,5v7.1c0,2.8-2.2,5-5,5h-7.1c-2.8,0-5-2.3-5-5v-7.1
	C167.1,498.6,169.4,496.4,172.2,496.4z"/>
<path class="st0" d="M464.2,496.4h5.9c3.1,0,5.6,2.5,5.6,5.6v5.9c0,3.1-2.5,5.6-5.6,5.6h-5.9c-3.1,0-5.6-2.5-5.6-5.6V502
	C458.6,498.9,461.1,496.4,464.2,496.4"/>
<path class="st9" d="M464.2,496.4h5.9c3.1,0,5.6,2.5,5.6,5.6v5.9c0,3.1-2.5,5.6-5.6,5.6h-5.9c-3.1,0-5.6-2.5-5.6-5.6V502
	C458.6,498.9,461.1,496.4,464.2,496.4z"/>
<path class="st5" d="M64.3,205h102.9c4.7,0,8.6-3.8,8.6-8.6s-3.8-8.6-8.6-8.6H64.3c-4.7,0-8.6,3.8-8.6,8.6S59.6,205,64.3,205"/>
<path class="st6" d="M64.3,205h102.9c4.7,0,8.6-3.8,8.6-8.6s-3.8-8.6-8.6-8.6H64.3c-4.7,0-8.6,3.8-8.6,8.6S59.6,205,64.3,205z"/>
<rect x="55.4" y="187.6" class="st1" width="515.3" height="368.9"/>
</svg>
