<?xml version="1.0" encoding="utf-8"?>
<!-- Generator: Adobe Illustrator 26.0.1, SVG Export Plug-In . SVG Version: 6.00 Build 0)  -->
<svg version="1.1" id="Layer_1" xmlns="http://www.w3.org/2000/svg" xmlns:xlink="http://www.w3.org/1999/xlink" x="0px" y="0px"
	 viewBox="0 0 595.3 595.3" style="enable-background:new 0 0 595.3 595.3;" xml:space="preserve">
<style type="text/css">
	.st0{fill:#5A9B9F;}
	.st1{fill:none;}
	.st2{fill:none;stroke:#5A9B9F;stroke-width:8;stroke-linecap:round;stroke-miterlimit:10;}
	.st3{fill:#FFFFFF;}
	.st4{fill:#5A9B9F;stroke:#5A9B9F;stroke-width:8;stroke-linecap:round;stroke-miterlimit:10;}
	.st5{fill:#5A9B9F;stroke:#5A9B9F;stroke-width:8;stroke-miterlimit:10;}
	.st6{fill:none;stroke:#FFFFFF;stroke-width:0.6533;stroke-linecap:round;stroke-miterlimit:10;}
	.st7{fill:none;stroke:#FFFFFF;stroke-width:0.25;stroke-miterlimit:10;}
	.st8{fill:none;stroke:#5A9B9F;stroke-width:8;stroke-miterlimit:10;}
	.st9{fill:none;stroke:#FFFFFF;stroke-width:0.6533;stroke-miterlimit:10;}
</style>
<path class="st0" d="M251,333c3.3,0,3.3-5,0-5C247.8,328,247.8,333,251,333"/>
<rect x="74.2" y="110.6" class="st1" width="432.6" height="380"/>
<rect x="71.7" y="87.3" class="st1" width="418.1" height="403.3"/>
<path class="st0" d="M169,387.4c-29.3,0-52.9,24.6-51.4,54.2c1.4,26.1,22.5,47.1,48.5,48.5c29.6,1.6,54.3-22,54.3-51.3
	C220.5,410.5,197.4,387.4,169,387.4 M169,473.1c-19.8,0-35.7-16.9-34.2-37c1.3-16.8,14.8-30.3,31.6-31.5
	c20.1-1.5,36.8,14.4,36.8,34.2C203.3,457.7,188,473.1,169,473.1"/>
<path class="st2" d="M169,387.4c-29.3,0-52.9,24.6-51.4,54.2c1.4,26.1,22.5,47.1,48.5,48.5c29.6,1.6,54.3-22,54.3-51.3
	C220.5,410.5,197.4,387.4,169,387.4 M169,473.1c-19.8,0-35.7-16.9-34.2-37c1.3-16.8,14.8-30.3,31.6-31.5
	c20.1-1.5,36.8,14.4,36.8,34.2C203.3,457.7,188,473.1,169,473.1"/>
<path class="st3" d="M460.5,387.4c-29.3,0-52.9,24.6-51.4,54.2c1.4,26.1,22.5,47.1,48.5,48.5c29.6,1.6,54.3-22,54.3-51.3
	C511.9,410.5,488.8,387.4,460.5,387.4 M460.5,473.1c-19.8,0-35.7-16.9-34.2-37c1.3-16.8,14.8-30.3,31.6-31.5
	c20.1-1.5,36.8,14.4,36.8,34.2C494.7,457.7,479.4,473.1,460.5,473.1"/>
<path class="st4" d="M460.5,387.4c-29.3,0-52.9,24.6-51.4,54.2c1.4,26.1,22.5,47.1,48.5,48.5c29.6,1.6,54.3-22,54.3-51.3
	C511.9,410.5,488.8,387.4,460.5,387.4 M460.5,473.1c-19.8,0-35.7-16.9-34.2-37c1.3-16.8,14.8-30.3,31.6-31.5
	c20.1-1.5,36.8,14.4,36.8,34.2C494.7,457.7,479.4,473.1,460.5,473.1"/>
<path class="st0" d="M562,339.9l-77.1-120c-1.6-2.5-4.3-3.9-7.2-3.9h-88.4c-8,0-14.5,6.5-14.5,14.5v202.4c0,8,6.5,14.5,14.5,14.5
	h22.3c3.4,0,6.1-2.7,6.1-6.1v-5c0-3.4-2.7-6.1-6.1-6.1H398c-3.4,0-6.1-2.7-6.1-6.1v-185c0-3.4,2.7-6.1,6.1-6.1h71.6
	c2.1,0,4,1,5.1,2.8l70.5,109.6c0.6,1,1,2.1,1,3.3V424c0,3.4-2.7,6.1-6.1,6.1h-30.7c-3.4,0-6.1,2.7-6.1,6.1v5c0,3.4,2.7,6.1,6.1,6.1
	h39.4c8,0,14.5-6.5,14.5-14.5v-88.4C563.4,342.9,562.9,341.3,562,339.9"/>
<path class="st2" d="M562,339.9l-77.1-120c-1.6-2.5-4.3-3.9-7.2-3.9h-88.4c-8,0-14.5,6.5-14.5,14.5v202.4c0,8,6.5,14.5,14.5,14.5
	h22.3c3.4,0,6.1-2.7,6.1-6.1v-5c0-3.4-2.7-6.1-6.1-6.1H398c-3.4,0-6.1-2.7-6.1-6.1v-185c0-3.4,2.7-6.1,6.1-6.1h71.6
	c2.1,0,4,1,5.1,2.8l70.5,109.6c0.6,1,1,2.1,1,3.3V424c0,3.4-2.7,6.1-6.1,6.1h-30.7c-3.4,0-6.1,2.7-6.1,6.1v5c0,3.4,2.7,6.1,6.1,6.1
	h39.4c8,0,14.5-6.5,14.5-14.5v-88.4C563.4,342.9,562.9,341.3,562,339.9"/>
<path class="st3" d="M426.2,319.8v-44.4c0-4.4,3.6-8,8-8h53.5c3.9,0,7-3.2,7-7v-2.9c0-4-3.2-7.2-7.2-7.2h-70c-4.7,0-8.6,3.9-8.6,8.6
	v71.6c0,7.8,6.3,14.1,14.1,14.1h114.5c4.7,0,8.6-3.9,8.6-8.6s-3.8-8.6-8.6-8.6H433.8C429.6,327.4,426.2,324,426.2,319.8"/>
<path class="st4" d="M426.2,319.8v-44.4c0-4.4,3.6-8,8-8h53.5c3.9,0,7-3.2,7-7v-2.9c0-4-3.2-7.2-7.2-7.2h-70c-4.7,0-8.6,3.9-8.6,8.6
	v71.6c0,7.8,6.3,14.1,14.1,14.1h114.5c4.7,0,8.6-3.9,8.6-8.6s-3.8-8.6-8.6-8.6H433.8C429.6,327.4,426.2,324,426.2,319.8z"/>
<path class="st5" d="M383.3,156H57.6c-4.7,0-8.6,3.8-8.6,8.6v274.3c0,4.7,3.8,8.6,8.6,8.6H120c3.4,0,6.2-2.8,6.2-6.2v-4.8
	c0-3.4-2.8-6.2-6.2-6.2H72.4c-3.4,0-6.2-2.8-6.2-6.2V179.3c0-3.4,2.8-6.2,6.2-6.2h296.2c3.4,0,6.2,2.8,6.2,6.2V424
	c0,3.4-2.8,6.2-6.2,6.2H218.1c-3.4,0-6.2,2.8-6.2,6.2v4.8c0,3.4,2.8,6.2,6.2,6.2h159.2c8.1,0,14.6-6.5,14.6-14.6V164.6
	C391.9,159.8,388,156,383.3,156"/>
<path class="st6" d="M383.3,156H57.6c-4.7,0-8.6,3.8-8.6,8.6v274.3c0,4.7,3.8,8.6,8.6,8.6H120c3.4,0,6.2-2.8,6.2-6.2v-4.8
	c0-3.4-2.8-6.2-6.2-6.2H72.4c-3.4,0-6.2-2.8-6.2-6.2V179.3c0-3.4,2.8-6.2,6.2-6.2h296.2c3.4,0,6.2,2.8,6.2,6.2V424
	c0,3.4-2.8,6.2-6.2,6.2H218.1c-3.4,0-6.2,2.8-6.2,6.2v4.8c0,3.4,2.8,6.2,6.2,6.2h159.2c8.1,0,14.6-6.5,14.6-14.6V164.6
	C391.9,159.8,388,156,383.3,156"/>
<path class="st3" d="M65.7,413.4h34.5c4.7,0,8.5-3.8,8.5-8.5v-0.2c0-4.7-3.8-8.5-8.5-8.5H65.7c-4.7,0-8.5,3.8-8.5,8.5v0.2
	C57.2,409.6,61,413.4,65.7,413.4"/>
<path class="st4" d="M65.7,413.4h34.5c4.7,0,8.5-3.8,8.5-8.5v-0.2c0-4.7-3.8-8.5-8.5-8.5H65.7c-4.7,0-8.5,3.8-8.5,8.5v0.2
	C57.2,409.6,61,413.4,65.7,413.4z"/>
<path class="st3" d="M237.2,396.2h128.6c4.7,0,8.6,3.8,8.6,8.6s-3.8,8.6-8.6,8.6H237.2c-4.7,0-8.6-3.9-8.6-8.6
	S232.5,396.2,237.2,396.2"/>
<path class="st4" d="M237.2,396.2h128.6c4.7,0,8.6,3.8,8.6,8.6s-3.8,8.6-8.6,8.6H237.2c-4.7,0-8.6-3.9-8.6-8.6
	S232.5,396.2,237.2,396.2z"/>
<path class="st5" d="M528,413.4h18.6c4.3,0,7.9-3.5,7.9-7.9v-1.4c0-4.3-3.5-7.9-7.9-7.9H528c-4.3,0-7.9,3.5-7.9,7.9v1.4
	C520,409.8,523.5,413.4,528,413.4"/>
<path class="st7" d="M528,413.4h18.6c4.3,0,7.9-3.5,7.9-7.9v-1.4c0-4.3-3.5-7.9-7.9-7.9H528c-4.3,0-7.9,3.5-7.9,7.9v1.4
	C520,409.8,523.5,413.4,528,413.4z"/>
<path class="st0" d="M91.5,190.5h282.8c4.7,0,8.6,3.8,8.6,8.6s-3.8,8.6-8.6,8.6H91.5c-4.7,0-8.6-3.9-8.6-8.6S86.7,190.5,91.5,190.5"
	/>
<path class="st8" d="M91.5,190.5h282.8c4.7,0,8.6,3.8,8.6,8.6s-3.8,8.6-8.6,8.6H91.5c-4.7,0-8.6-3.9-8.6-8.6S86.7,190.5,91.5,190.5z
	"/>
<path class="st0" d="M165.1,430.5h7.1c2.8,0,5,2.2,5,5v7.1c0,2.8-2.2,5-5,5h-7.1c-2.8,0-5-2.3-5-5v-7.1
	C160,432.7,162.3,430.5,165.1,430.5"/>
<path class="st6" d="M165.1,430.5h7.1c2.8,0,5,2.2,5,5v7.1c0,2.8-2.2,5-5,5h-7.1c-2.8,0-5-2.3-5-5v-7.1
	C160,432.7,162.3,430.5,165.1,430.5z"/>
<path class="st0" d="M457.1,430.5h5.9c3.1,0,5.6,2.5,5.6,5.6v5.9c0,3.1-2.5,5.6-5.6,5.6h-5.9c-3.1,0-5.6-2.5-5.6-5.6v-5.9
	C451.5,433,454,430.5,457.1,430.5"/>
<path class="st9" d="M457.1,430.5h5.9c3.1,0,5.6,2.5,5.6,5.6v5.9c0,3.1-2.5,5.6-5.6,5.6h-5.9c-3.1,0-5.6-2.5-5.6-5.6v-5.9
	C451.5,433,454,430.5,457.1,430.5z"/>
<path class="st5" d="M57.2,139.1h102.9c4.7,0,8.6-3.8,8.6-8.6s-3.8-8.6-8.6-8.6H57.2c-4.7,0-8.6,3.8-8.6,8.6S52.5,139.1,57.2,139.1"
	/>
<path class="st6" d="M57.2,139.1h102.9c4.7,0,8.6-3.8,8.6-8.6s-3.8-8.6-8.6-8.6H57.2c-4.7,0-8.6,3.8-8.6,8.6S52.5,139.1,57.2,139.1z
	"/>
<rect x="48.3" y="121.7" class="st1" width="515.3" height="368.9"/>
</svg>
