<?xml version="1.0" encoding="utf-8"?>
<!-- Generator: Adobe Illustrator 26.0.1, SVG Export Plug-In . SVG Version: 6.00 Build 0)  -->
<svg version="1.1" id="Layer_1" xmlns="http://www.w3.org/2000/svg" xmlns:xlink="http://www.w3.org/1999/xlink" x="0px" y="0px"
	 viewBox="0 0 425.2 425.2" style="enable-background:new 0 0 425.2 425.2;" xml:space="preserve">
<style type="text/css">
	.st0{fill:#59A0A3;}
	.st1{fill:#FEFEFE;}
	.st2{fill:#59A0A3;stroke:#59A0A3;stroke-width:4;stroke-miterlimit:10;}
</style>
<path class="st0" d="M110.1,49.2c-2.9,0.1-5.3,2.4-4,5.6c1.8,4.4,3.8,8.6,6.1,12.7c4.5,8,9.8,15.4,14.9,22.9c1.3,2,4,2.3,6.1,0.9
	c2-1.4,2.4-3.6,0.9-5.7c-2-2.9-4-5.8-5.9-8.7c-5.4-8-10.6-16.1-14.1-25.2C113.3,50.1,111.8,49.3,110.1,49.2z M335.5,202.6
	c-2.3,0-6.1,0.2-9.8,0.6c-2.6,0.3-4.2,2.5-3.9,5.2c0.2,2.2,2,3.5,4.4,3.3c5.7-0.6,11.4-0.7,17.1-0.4c4.4,0.2,8.7,0.6,13.1,1
	c2.6,0.2,5.3,0.5,7.9,0.6c1.5,0.1,2.7-0.8,3.3-2.3c1.1-2.9-0.9-6-4-6.2c-2.4-0.2-4.9-0.4-7.3-0.6
	C349.8,203.1,343.4,202.6,335.5,202.6z M33.5,204.2c-3.4,0-6.2,0.2-9.1,0.4c-2.9,0.2-4.8,3-4,5.8c0.5,2,2,2.9,4.6,2.7
	c4.1-0.3,8.3-0.4,12.4-0.2c4.2,0.2,8.5,0.5,12.7,1c4.1,0.4,8.1,0.9,12.2,1.3c1.6,0.2,2.9-0.6,3.6-2c1.3-2.7-0.4-6.1-3.4-6.5
	c-3.5-0.4-7-0.8-10.5-1.2C45.6,204.7,39.3,204.2,33.5,204.2z M92.8,272.6c-0.1,0-0.4,0-0.7,0.1c-0.3,0.1-0.6,0.2-0.9,0.3
	c-8.1,3.6-16.3,7.1-24.1,11.4c-3.5,1.9-6.9,4-10,6.3c-1.9,1.5-2.2,4.2-0.6,6.3c1.3,1.8,3.4,2.1,5.3,0.8c6.3-4.5,13.1-8.1,20.1-11.3
	c4.4-2.1,8.9-4,13.3-6c1.2-0.6,2.1-1.4,2.3-2.8C97.7,275.1,95.6,272.6,92.8,272.6z M311,138.6c0.1,1.1,0.7,2.6,2.3,3.4
	c1.5,0.8,2.9,0.4,4.2-0.6c4.4-3.1,9-5.8,13.8-8.2c6.2-3.2,12.6-5.9,18.9-8.8c1.2-0.5,2.2-1.2,2.5-2.5c0.5-1.8-0.2-3.2-1.5-4.4
	c-1.4-1.3-3.1-1.4-4.8-0.7c-6.8,3.1-13.7,6-20.4,9.5c-4.4,2.3-8.8,4.8-12.9,7.7C311.8,135,310.9,136.1,311,138.6z M46.4,114.4
	c-1.6,0-2.6,0.6-3.3,1.7c-1.6,2.6-0.5,5.7,2.3,6.8c8.6,3.4,16.7,7.7,24.4,12.8c2.4,1.6,4.7,3.2,7,4.9c2,1.4,4.2,1,5.5-0.9
	c1.5-2.3,1-4.8-1.1-6.5c-10.3-7.6-21.4-13.6-33.2-18.4C47.4,114.6,46.8,114.3,46.4,114.4z M260.7,87c0,2.8,2.6,5.1,5.1,4.5
	c1.3-0.3,2-1.4,2.8-2.3c7.5-9.8,13.4-20.5,19.3-31.2c1.2-2.1,0.3-4.5-1.8-5.7c-2.2-1.2-4.4-0.6-5.7,1.6c-1.1,2-2.2,4-3.3,6
	c-4.7,8.4-9.5,16.8-15.4,24.4C261,85.1,260.7,86,260.7,87z M192.6,43.2c-0.2,4-0.3,8-0.5,12c-0.2,4.5-0.4,9-0.7,13.5
	c-0.1,1.4,0.4,2.6,1.6,3.4c2.7,1.8,6.6,0.1,6.8-3.1c0.3-3.6,0.5-7.2,0.7-10.8c0.2-5.4,0.5-10.8,0.5-16.1c0-3.4,0.3-6.7,0-10.1
	c-0.2-2.1-2.1-3.6-4.4-3.5c-2.3,0.1-4,1.7-4,3.8C192.6,35.9,192.6,39.6,192.6,43.2z"/>
<path class="st1" d="M198.6,396.8c0,0,0,0.1,0,0.1c-1.7,0-3.4,0-5.1,0c0,0,0-0.1,0-0.1C195.1,396.8,196.9,396.8,198.6,396.8z"/>
<path class="st2" d="M198.6,396.8c-1.7,0-3.4,0-5.1,0c-1.6-0.1-3.2-0.4-4.8-0.8c-3.4-1.1-5.2-3.5-6.1-6.8c-0.5-2.1-0.9-4.1-1.1-6.3
	c-0.1-0.7-0.3-0.8-0.9-0.8c-6.2-0.1-12.4-0.4-18.5-1.5c-4.6-0.8-9.2-1.8-13.2-4.4c-2.6-1.6-4.4-3.8-4.7-7c-0.2-2.2,0.5-4.3,1.6-6.3
	c0.3-0.6,0.9-1.2,0.8-1.7c-0.1-0.6-1-0.7-1.5-1c-1.7-1-3.2-2.2-4.2-3.9c-1.5-2.4-1.5-5-0.6-7.6c0.6-1.7,1.5-3.3,2.6-4.8
	c0.2-0.3,0.5-0.5,0.2-1c-2.5-4.7-1.5-9,1.7-12.9c0.5-0.7,0.5-1,0-1.7c-1.9-2.6-2.9-5.6-3.8-8.6c-1.3-4.4-2.5-9-4.2-13.3
	c-1.8-4.7-4.6-8.8-8-12.5c-5.4-5.7-10.8-11.4-15.3-17.9c-8.9-12.5-15.7-26.2-21.1-40.6c-2.4-6.2-4.1-12.5-5.1-19
	c-0.5-3.5-0.8-7-0.9-10.5c-0.4-17.3,3.6-33.7,11.1-49.2c5.1-10.7,11.8-20.4,19.9-29.2c11.6-12.5,25.8-21.2,41.7-27.2
	c9.1-3.5,18.5-5.8,28.1-7.2c7.8-1.1,15.6-1.7,23.4-1.3c11.9,0.5,23.2,3.5,34,8.6c10.6,5,20,11.6,28.7,19.4
	c13.8,12.4,23.4,27.4,28.9,45.1c2.6,8.1,4.2,16.5,4.9,25c0.4,4.8,0.6,9.6,0.5,14.4c-0.4,13.4-2.8,26.4-6.7,39.3
	c-3.4,11.2-9.2,21-16.6,30.1c-5.2,6.4-10.7,12.5-16,18.8c-3.8,4.4-6.8,9.3-8.3,15c-0.8,3.2-0.8,6.5-0.9,9.8
	c-0.1,3.9-0.6,7.8-2.7,11.2c-0.4,0.6-1,1.2-1,1.7c0,0.6,0.8,1.1,1.2,1.6c1.5,2,2.7,4.1,3,6.7c0.2,1.7,0,3.2-0.7,4.7
	c-0.4,0.7-0.2,1.2,0.2,1.8c1.4,2.2,2.5,4.5,2.6,7.1c0,3.2-1.6,5.5-4.1,7.3c-1.2,0.9-1.2,0.9-0.4,2.1c2.7,4.3,1.8,9-2.2,12.4
	c-3.3,2.7-7.1,4.1-11.2,4.9c-4.2,0.9-8.5,1.2-12.8,1.4c-3.7,0.2-7.4,0.1-11.1,0.2c-0.9,0-1.5,0.1-1.5,1.3c-0.1,2.4-0.6,4.7-1.4,6.9
	c-1.2,3.1-3.4,5.1-6.5,6.2c-3.6,1.3-7.3,1.7-11,1.9C198.9,396.8,198.8,396.8,198.6,396.8z M218.5,299.3c0,3.9,0,7.9,0.1,11.8
	c0.2,4.6,0.3,9.1,0.5,13.7c0,0.8-0.1,1.9,0.3,2.4c0.5,0.6,1.5,0.1,2.4,0.1c0.1,0,0.2,0,0.3,0c4.5-0.1,9-0.6,13.5-1.6
	c5.6-1.3,9.4-4.4,11.3-9.9c1-2.8,1.6-5.8,2.3-8.7c0.9-4.2,1.9-8.3,3.9-12.2c2.8-5.3,6.4-9.9,10.4-14.4c4.3-4.9,8.8-9.6,12.7-14.8
	c5.7-7.5,10.7-15.5,13.4-24.6c3.5-11.5,6.2-23.2,7.1-35.3c0.5-6.7,0.2-13.4-1.1-19.9c-2.3-10.9-5.7-21.4-10.6-31.4
	c-9.4-19.4-23.9-33.8-43.5-42.9c-16.3-7.5-33.5-9.8-51.2-8.2c-8.2,0.7-16.3,2.4-24.1,5c-15.1,5.1-28.4,13-39.2,24.7
	c-8.3,9-14.9,19.1-20.1,30.2c-6.5,13.8-9.5,28.4-9.2,43.7c0.1,6.4,1.2,12.6,2.9,18.8c2.4,8.8,6.1,17,10.2,25.1
	c3.9,7.6,8.6,14.7,14.3,21.1c4.5,5.2,9.1,10.2,13.4,15.6c4,5.1,7.5,10.6,9.9,16.7c1.2,3.2,1.9,6.5,2.7,9.9c1.2,5.5,4.4,9,10.1,10
	c5.2,0.9,10.5,0.8,15.7,1.5c0.5,0.1,0.5-0.3,0.5-0.6c-0.1-1.1-0.1-2.3-0.2-3.4c-0.3-5.8-0.6-11.6-0.9-17.3
	c-0.4-7.2-0.8-14.5-1.2-21.7c-0.3-5.9-0.7-11.8-0.9-17.7c-0.3-8.1-0.6-16.2-1.6-24.2c-0.4-3.2-0.9-6.3-1.5-9.5
	c-0.1-0.5-0.2-0.5-0.7-0.5c-1.5,0.2-2.9,0.4-4.4,0.5c-6,0.5-11.9-0.2-17.3-3c-8.3-4.3-13.3-12.7-12.2-21.8c0.4-3.5,1.8-6.6,4.7-8.7
	c5.2-3.8,11-4.7,17.2-2.6c4.7,1.6,8.1,5,11,8.9c3.5,4.8,5.8,10.1,7.6,15.6c0.2,0.7,0.5,0.9,1.2,0.6c4.5-1.4,8.7-3.2,12.8-5.5
	c0.6-0.4,0.7-0.6,0.2-1.2c-2.4-2.7-4.4-5.7-5.9-9c-2.3-4.9-4-9.9-2.9-15.4c1.2-6.1,3.8-11.5,8.5-15.6c3.1-2.7,6.6-3.9,10.7-2.8
	c2.5,0.7,4.5,2.3,6.4,4c5.4,4.8,8.4,10.7,8,18c-0.2,4-1.5,7.7-3.4,11.3c-1.9,3.6-4.5,6.8-7.4,9.7c-0.3,0.3-0.7,0.4-0.1,0.9
	c4,3,8.4,5.5,13.2,7c0.5,0.1,0.6,0,0.8-0.4c0.3-0.9,0.6-1.7,0.9-2.6c2.4-6,5.3-11.7,9.8-16.5c5.8-6.1,12.7-8.9,21.1-7.4
	c3.6,0.6,6.9,2.1,8.6,5.6c2.7,5.3,3,10.8,0,16.2c-2.6,4.8-6.8,8-11.6,10.5c-7.1,3.6-14.5,5.6-22.5,4.8c-0.6-0.1-0.9,0.1-1.1,0.8
	c-1.3,5.3-2.1,10.7-2.8,16.1c-0.5,4.7-0.9,9.4-1.2,14.2c-0.4,6.9-0.9,13.8-1.2,20.7C218.5,288.7,218.4,294,218.5,299.3z
	 M202.9,327.2c2.3,0,4.6,0,6.9,0c0.6,0,0.9-0.1,0.8-0.8c-0.3-5.2-0.6-10.4-0.9-15.5c-0.3-7.1-0.5-14.3-0.6-21.5
	c0-4.7,0.1-9.4,0.2-14.1c0.2-6.3,0.7-12.5,1.3-18.7c1-8.8,2.5-17.4,4.8-25.9c0.2-0.6,0-0.8-0.6-1c-6.4-2-12.1-5.2-17.3-9.3
	c-0.5-0.4-0.9-0.5-1.5-0.1c-5.2,3.4-10.8,6-16.6,8c-0.5,0.2-0.6,0.4-0.5,1c1.3,6.2,2,12.4,2.5,18.7c0.5,6.8,0.7,13.6,0.9,20.4
	c0.2,5.2,0.5,10.4,0.8,15.6c0.5,8.6,0.9,17.1,1.4,25.7c0.3,5.4,0.5,10.7,0.8,16.1c0,0.6,0.2,0.9,0.9,0.9
	C192,327,197.5,327.2,202.9,327.2z M216.8,344.5c7.6,0.2,15.8-0.2,23.8-2.1c2.3-0.5,4.6-1.2,6.6-2.5c1.9-1.3,2.1-2.7,0.6-4.4
	c-0.3-0.3-0.5-0.4-1-0.3c-3.2,0.8-6.5,0.9-9.8,1.1c-4.5,0.3-9,0.5-13.6,0.8c-6.5,0.4-13,0.7-19.5,0.8c-5.5,0.2-11,0-16.5-0.4
	c-3.3-0.2-6.7-0.5-10-0.8c-4.4-0.4-8.9-0.9-13.3-1.5c-3.3-0.4-6.7-0.6-10-1.4c-1.3-0.3-2.2,0-3.1,0.7c-0.9,0.8-0.9,1.3-0.1,2.1
	c1.1,1,2.4,1.5,3.8,2c7.5,2.6,15.1,4,23,4.5c5.6,0.3,11.2,0.6,16.9,0.8C201.9,344.3,209,344.6,216.8,344.5z M184.3,373.4
	c2.1-0.1,4.8-0.1,7.5-0.2c8.2-0.3,16.4-0.8,24.6-1.2c5.7-0.3,11.4-0.5,17.1-1.2c4.1-0.5,8.2-1.3,12.2-2.8c0.9-0.4,1.9-0.8,2.7-1.4
	c0.4-0.3,0.7-0.7,0.6-1.2c-0.3-0.9-1.7-1.7-2.7-1.5c-1.1,0.2-2.2,0.5-3.2,0.7c-8.6,1.6-17.3,1.9-26,2c-7.5,0.1-15-0.4-22.5-0.2
	c-6.8,0.2-13.7,0.1-20.5-0.3c-6.1-0.3-12.2-0.8-18.2-2.1c-0.5-0.1-0.8,0-1.1,0.5c-1.2,1.8-1,3.2,0.7,4.5c0.6,0.4,1.2,0.8,1.9,1.1
	c1.9,0.8,3.9,1.3,6,1.7C170.1,373.1,176.9,373.5,184.3,373.4z M215.6,357.8c0,0.1,0,0.2,0,0.3c6,0,11.9,0,17.8-0.5
	c4-0.3,8-0.8,11.9-1.9c1.6-0.5,3.2-1,4.6-2c1-0.7,1.8-1.6,1.7-3c-0.1-1-0.2-1.1-1.2-0.8c-0.5,0.2-1,0.4-1.5,0.5
	c-5.9,1.7-12,2.4-18.2,2.8c-4.5,0.3-9.1,0.4-13.7,0.3c-3.4-0.1-6.8-0.2-10.2-0.3c-7.4-0.3-14.8-0.9-22.2-0.8
	c-6.7,0.1-13.4,0.3-20.1-0.3c-4.9-0.4-9.7-1.1-14.2-3c-0.5-0.2-0.7-0.1-0.9,0.4c-0.7,1.7-0.3,3.1,1.3,4.3c1.3,0.9,2.8,1.4,4.3,1.8
	c4.8,1.2,9.8,1.5,14.8,1.7c6.2,0.3,12.5,0.5,18.7,0.6C197.6,357.8,206.6,357.8,215.6,357.8z M206.1,192.8c-0.1-3.1-1-6.7-3.3-9.8
	c-1.7-2.2-4-2.8-6.6-1.5c-4.1,2-6.1,5.5-5.8,10.5c0.5,6.5,3.6,11.7,7.8,16.5c0.3,0.4,0.6,0.3,0.8,0c0.7-0.8,1.5-1.6,2.2-2.5
	C204.1,202.3,206.1,198.3,206.1,192.8z M163.5,222.4c1.4-0.1,2.8-0.2,4.2-0.2c0.6,0,0.8-0.3,0.6-0.9c-0.6-2-1.3-3.9-2.4-5.7
	c-1.9-3.1-4-5.9-6.6-8.4c-2-2-4.1-3.8-6.8-4.8c-1.6-0.6-3.2-0.6-4.7,0.4c-2.5,1.7-4.1,5.9-3.3,8.7c0.7,2.7,2.6,4.6,4.6,6.3
	C153.3,221.3,158.2,222.4,163.5,222.4z M247.7,206.4c-2.1,0-4.2,0.2-6.3,0.4c-3.9,0.4-7.1,2-9.2,5.5c-2,3.3-3.7,6.6-5.1,10.2
	c-0.2,0.5-0.2,0.7,0.4,0.7c3.3,0.1,6.6-0.1,9.9-1c5.1-1.4,9.5-3.9,12.5-8.3c1-1.4,1.8-3,2.3-4.7c0.5-1.7,0.1-2.3-1.6-2.6
	C249.7,206.4,248.7,206.4,247.7,206.4z M195.6,388.4c2.8-0.1,6-0.1,9.2-0.9c3-0.7,4.5-2.6,4.6-5.7c0-0.5-0.1-0.7-0.6-0.6
	c-0.9,0.1-1.8,0.1-2.7,0.2c-4.7,0.2-9.5,0.5-14.2,0.7c-2,0.1-2,0.1-1.7,2.1C190.8,387.7,191.6,388.4,195.6,388.4z"/>
<path class="st2" d="M110.1,49.2c1.8,0.1,3.3,0.8,4,2.6c3.5,9.1,8.7,17.2,14.1,25.2c2,2.9,4,5.8,5.9,8.7c1.4,2.1,1.1,4.3-0.9,5.7
	c-2.1,1.4-4.7,1.1-6.1-0.9c-5.1-7.5-10.4-15-14.9-22.9c-2.3-4.1-4.3-8.4-6.1-12.7C104.8,51.6,107.1,49.3,110.1,49.2z"/>
<path class="st2" d="M335.5,202.6c7.9,0,14.3,0.5,20.7,1.1c2.4,0.2,4.9,0.4,7.3,0.6c3.1,0.2,5.1,3.3,4,6.2c-0.5,1.4-1.7,2.4-3.3,2.3
	c-2.7-0.1-5.3-0.4-7.9-0.6c-4.3-0.4-8.7-0.8-13.1-1c-5.7-0.3-11.4-0.2-17.1,0.4c-2.4,0.3-4.2-1-4.4-3.3c-0.3-2.8,1.3-5,3.9-5.2
	C329.4,202.8,333.2,202.6,335.5,202.6z"/>
<path class="st2" d="M33.5,204.2c5.9,0.1,12.2,0.6,18.5,1.3c3.5,0.4,7,0.7,10.5,1.2c3,0.4,4.7,3.8,3.4,6.5c-0.7,1.4-2,2.1-3.6,2
	c-4.1-0.4-8.1-0.9-12.2-1.3c-4.2-0.5-8.4-0.8-12.7-1c-4.2-0.2-8.3-0.1-12.4,0.2c-2.6,0.2-4-0.7-4.6-2.7c-0.8-2.8,1.2-5.6,4-5.8
	C27.2,204.3,30.1,204.2,33.5,204.2z"/>
<path class="st2" d="M345.6,293.7c0,1.9-1.1,3.5-2.5,4.1c-1.2,0.5-2.4,0.2-3.5-0.4c-5-2.8-10-5.6-15.1-8.2
	c-5.9-3.1-11.9-5.8-18.3-7.9c-2.6-0.8-3.6-2.6-2.9-4.9c0.7-2.5,3.1-3.9,5.5-3.2c5.1,1.5,9.9,3.6,14.7,5.9
	c6.7,3.2,13.1,6.9,19.7,10.5C344.8,290.6,345.6,291.9,345.6,293.7z"/>
<path class="st2" d="M92.8,272.6c2.8,0,5,2.5,4.6,5.1c-0.2,1.4-1.1,2.2-2.3,2.8c-4.4,2-8.9,4-13.3,6c-7,3.2-13.8,6.8-20.1,11.3
	c-1.9,1.3-4,1-5.3-0.8c-1.5-2.1-1.3-4.8,0.6-6.3c3.2-2.4,6.6-4.4,10-6.3c7.8-4.3,16-7.8,24.1-11.4c0.3-0.1,0.6-0.2,0.9-0.3
	C92.4,272.6,92.7,272.6,92.8,272.6z"/>
<path class="st2" d="M311,138.6c-0.1-2.4,0.9-3.6,2.3-4.5c4.1-2.9,8.4-5.4,12.9-7.7c6.7-3.4,13.6-6.4,20.4-9.5
	c1.7-0.8,3.4-0.6,4.8,0.7c1.3,1.2,2,2.6,1.5,4.4c-0.3,1.3-1.3,2-2.5,2.5c-6.3,2.8-12.7,5.6-18.9,8.8c-4.8,2.4-9.4,5.1-13.8,8.2
	c-1.3,1-2.7,1.4-4.2,0.6C311.7,141.1,311,139.7,311,138.6z"/>
<path class="st2" d="M46.4,114.4c0.5,0,1.1,0.2,1.6,0.4c11.8,4.8,22.9,10.8,33.2,18.4c2.2,1.6,2.6,4.2,1.1,6.5
	c-1.3,1.9-3.5,2.3-5.5,0.9c-2.3-1.7-4.6-3.3-7-4.9c-7.7-5-15.9-9.3-24.4-12.8c-2.8-1.1-3.9-4.2-2.3-6.8
	C43.8,115,44.8,114.4,46.4,114.4z"/>
<path class="st2" d="M260.7,87c0-1,0.3-1.9,0.9-2.7c5.9-7.6,10.7-16,15.4-24.4c1.1-2,2.2-4,3.3-6c1.3-2.2,3.5-2.8,5.7-1.6
	c2.1,1.2,3,3.6,1.8,5.7c-6,10.7-11.9,21.4-19.3,31.2c-0.7,1-1.5,2-2.8,2.3C263.4,92.2,260.7,89.9,260.7,87z"/>
<path class="st2" d="M192.6,43.2c0-3.6,0-7.3,0-10.9c0-2.2,1.7-3.8,4-3.8c2.3-0.1,4.2,1.4,4.4,3.5c0.3,3.3,0,6.7,0,10.1
	c0,5.4-0.2,10.8-0.5,16.1c-0.2,3.6-0.4,7.2-0.7,10.8c-0.3,3.2-4.2,5-6.8,3.1c-1.2-0.8-1.7-2-1.6-3.4c0.3-4.5,0.6-9,0.7-13.5
	C192.3,51.2,192.5,47.2,192.6,43.2z"/>
</svg>
