<?xml version="1.0" encoding="utf-8"?>
<!-- Generator: Adobe Illustrator 26.0.1, SVG Export Plug-In . SVG Version: 6.00 Build 0)  -->
<svg version="1.1" id="Layer_1" xmlns="http://www.w3.org/2000/svg" xmlns:xlink="http://www.w3.org/1999/xlink" x="0px" y="0px"
	 viewBox="0 0 595.3 595.3" style="enable-background:new 0 0 595.3 595.3;" xml:space="preserve">
<style type="text/css">
	.st0{fill:#59A0A3;}
	.st1{fill:#FEFEFE;}
	.st2{fill:#59A0A3;stroke:#59A0A3;stroke-width:4;stroke-miterlimit:10;}
</style>
<path class="st0" d="M177.8,54.1c-4.3,0.1-7.8,3.5-5.9,8.3c2.7,6.5,5.6,12.7,9,18.7c6.6,11.8,14.5,22.7,22,33.8
	c1.9,2.9,5.9,3.4,9,1.3c2.9-2.1,3.5-5.3,1.3-8.4c-2.9-4.3-5.9-8.6-8.7-12.8c-8-11.8-15.6-23.7-20.8-37.2
	C182.5,55.5,180.3,54.3,177.8,54.1z M510.2,280.4c-3.4,0-9,0.3-14.5,0.9c-3.8,0.4-6.2,3.7-5.8,7.7c0.3,3.2,2.9,5.2,6.5,4.9
	c8.4-0.9,16.8-1,25.2-0.6c6.5,0.3,12.8,0.9,19.3,1.5c3.8,0.3,7.8,0.7,11.7,0.9c2.2,0.1,4-1.2,4.9-3.4c1.6-4.3-1.3-8.8-5.9-9.1
	c-3.5-0.3-7.2-0.6-10.8-0.9C531.3,281.1,521.9,280.4,510.2,280.4z M64.8,282.7c-5,0-9.1,0.3-13.4,0.6s-7.1,4.4-5.9,8.6
	c0.7,2.9,2.9,4.3,6.8,4c6-0.4,12.2-0.6,18.3-0.3c6.2,0.3,12.5,0.7,18.7,1.5c6,0.6,11.9,1.3,18,1.9c2.4,0.3,4.3-0.9,5.3-2.9
	c1.9-4-0.6-9-5-9.6c-5.2-0.6-10.3-1.2-15.5-1.8C82.6,283.5,73.3,282.7,64.8,282.7z M152.3,383.6c-0.1,0-0.6,0-1,0.1
	c-0.4,0.1-0.9,0.3-1.3,0.4c-11.9,5.3-24,10.5-35.5,16.8c-5.2,2.8-10.2,5.9-14.7,9.3c-2.8,2.2-3.2,6.2-0.9,9.3c1.9,2.7,5,3.1,7.8,1.2
	c9.3-6.6,19.3-11.9,29.6-16.7c6.5-3.1,13.1-5.9,19.6-8.8c1.8-0.9,3.1-2.1,3.4-4.1C159.5,387.3,156.4,383.6,152.3,383.6z M474.1,186
	c0.1,1.6,1,3.8,3.4,5c2.2,1.2,4.3,0.6,6.2-0.9c6.5-4.6,13.3-8.6,20.4-12.1c9.1-4.7,18.6-8.7,27.9-13c1.8-0.7,3.2-1.8,3.7-3.7
	c0.7-2.7-0.3-4.7-2.2-6.5c-2.1-1.9-4.6-2.1-7.1-1c-10,4.6-20.2,8.8-30.1,14c-6.5,3.4-13,7.1-19,11.4
	C475.3,180.7,473.9,182.3,474.1,186z M83.8,150.3c-2.4,0-3.8,0.9-4.9,2.5c-2.4,3.8-0.7,8.4,3.4,10c12.7,5,24.6,11.4,36,18.9
	c3.5,2.4,6.9,4.7,10.3,7.2c2.9,2.1,6.2,1.5,8.1-1.3c2.2-3.4,1.5-7.1-1.6-9.6c-15.2-11.2-31.6-20.1-49-27.1
	C85.3,150.6,84.4,150.1,83.8,150.3z M399.9,109.9c0,4.1,3.8,7.5,7.5,6.6c1.9-0.4,2.9-2.1,4.1-3.4c11.1-14.5,19.8-30.2,28.5-46
	c1.8-3.1,0.4-6.6-2.7-8.4c-3.2-1.8-6.5-0.9-8.4,2.4c-1.6,2.9-3.2,5.9-4.9,8.8c-6.9,12.4-14,24.8-22.7,36
	C400.3,107.1,399.9,108.4,399.9,109.9z M299.4,45.3c-0.3,5.9-0.4,11.8-0.7,17.7c-0.3,6.6-0.6,13.3-1,19.9c-0.1,2.1,0.6,3.8,2.4,5
	c4,2.7,9.7,0.1,10-4.6c0.4-5.3,0.7-10.6,1-15.9c0.3-8,0.7-15.9,0.7-23.7c0-5,0.4-9.9,0-14.9c-0.3-3.1-3.1-5.3-6.5-5.2
	s-5.9,2.5-5.9,5.6C299.4,34.5,299.4,40,299.4,45.3z"/>
<path class="st1" d="M308.3,566.8v0.1c-2.5,0-5,0-7.5,0v-0.1C303.1,566.8,305.8,566.8,308.3,566.8z"/>
<path class="st2" d="M308.3,566.8c-2.5,0-5,0-7.5,0c-2.4-0.1-4.7-0.6-7.1-1.2c-5-1.6-7.7-5.2-9-10c-0.7-3.1-1.3-6-1.6-9.3
	c-0.1-1-0.4-1.2-1.3-1.2c-9.1-0.1-18.3-0.6-27.3-2.2c-6.8-1.2-13.6-2.7-19.5-6.5c-3.8-2.4-6.5-5.6-6.9-10.3
	c-0.3-3.2,0.7-6.3,2.4-9.3c0.4-0.9,1.3-1.8,1.2-2.5c-0.1-0.9-1.5-1-2.2-1.5c-2.5-1.5-4.7-3.2-6.2-5.8c-2.2-3.5-2.2-7.4-0.9-11.2
	c0.9-2.5,2.2-4.9,3.8-7.1c0.3-0.4,0.7-0.7,0.3-1.5c-3.7-6.9-2.2-13.3,2.5-19c0.7-1,0.7-1.5,0-2.5c-2.8-3.8-4.3-8.3-5.6-12.7
	c-1.9-6.5-3.7-13.3-6.2-19.6c-2.7-6.9-6.8-13-11.8-18.4c-8-8.4-15.9-16.8-22.6-26.4c-13.1-18.4-23.2-38.6-31.1-59.9
	c-3.5-9.1-6-18.4-7.5-28c-0.7-5.2-1.2-10.3-1.3-15.5c-0.6-25.5,5.3-49.7,16.4-72.6c7.5-15.8,17.4-30.1,29.4-43.1
	c17.1-18.4,38.1-31.3,61.5-40.1c13.4-5.2,27.3-8.6,41.4-10.6c11.5-1.6,23-2.5,34.5-1.9c17.6,0.7,34.2,5.2,50.1,12.7
	c15.6,7.4,29.5,17.1,42.3,28.6c20.4,18.3,34.5,40.4,42.6,66.5c3.8,11.9,6.2,24.3,7.2,36.9c0.6,7.1,0.9,14.2,0.7,21.2
	c-0.6,19.8-4.1,38.9-9.9,58c-5,16.5-13.6,31-24.5,44.4c-7.7,9.4-15.8,18.4-23.6,27.7c-5.6,6.5-10,13.7-12.2,22.1
	c-1.2,4.7-1.2,9.6-1.3,14.5c-0.1,5.8-0.9,11.5-4,16.5c-0.6,0.9-1.5,1.8-1.5,2.5c0,0.9,1.2,1.6,1.8,2.4c2.2,2.9,4,6,4.4,9.9
	c0.3,2.5,0,4.7-1,6.9c-0.6,1-0.3,1.8,0.3,2.7c2.1,3.2,3.7,6.6,3.8,10.5c0,4.7-2.4,8.1-6,10.8c-1.8,1.3-1.8,1.3-0.6,3.1
	c4,6.3,2.7,13.3-3.2,18.3c-4.9,4-10.5,6-16.5,7.2c-6.2,1.3-12.5,1.8-18.9,2.1c-5.5,0.3-10.9,0.1-16.4,0.3c-1.3,0-2.2,0.1-2.2,1.9
	c-0.1,3.5-0.9,6.9-2.1,10.2c-1.8,4.6-5,7.5-9.6,9.1c-5.3,1.9-10.8,2.5-16.2,2.8C308.7,566.8,308.6,566.8,308.3,566.8z M337.6,423
	c0,5.8,0,11.7,0.1,17.4c0.3,6.8,0.4,13.4,0.7,20.2c0,1.2-0.1,2.8,0.4,3.5c0.7,0.9,2.2,0.1,3.5,0.1c0.1,0,0.3,0,0.4,0
	c6.6-0.1,13.3-0.9,19.9-2.4c8.3-1.9,13.9-6.5,16.7-14.6c1.5-4.1,2.4-8.6,3.4-12.8c1.3-6.2,2.8-12.2,5.8-18
	c4.1-7.8,9.4-14.6,15.3-21.2c6.3-7.2,13-14.2,18.7-21.8c8.4-11.1,15.8-22.9,19.8-36.3c5.2-17,9.1-34.2,10.5-52.1
	c0.7-9.9,0.3-19.8-1.6-29.4c-3.4-16.1-8.4-31.6-15.6-46.3c-13.9-28.6-35.2-49.9-64.2-63.3c-24-11.1-49.4-14.5-75.5-12.1
	c-12.1,1-24,3.5-35.5,7.4c-22.3,7.5-41.9,19.2-57.8,36.4c-12.2,13.3-22,28.2-29.6,44.5c-9.6,20.4-14,41.9-13.6,64.5
	c0.1,9.4,1.8,18.6,4.3,27.7c3.5,13,9,25.1,15,37c5.8,11.2,12.7,21.7,21.1,31.1c6.6,7.7,13.4,15,19.8,23c5.9,7.5,11.1,15.6,14.6,24.6
	c1.8,4.7,2.8,9.6,4,14.6c1.8,8.1,6.5,13.3,14.9,14.7c7.7,1.3,15.5,1.2,23.2,2.2c0.7,0.1,0.7-0.4,0.7-0.9c-0.1-1.6-0.1-3.4-0.3-5
	c-0.4-8.6-0.9-17.1-1.3-25.5c-0.6-10.6-1.2-21.4-1.8-32c-0.4-8.7-1-17.4-1.3-26.1c-0.4-11.9-0.9-23.9-2.4-35.7
	c-0.6-4.7-1.3-9.3-2.2-14c-0.1-0.7-0.3-0.7-1-0.7c-2.2,0.3-4.3,0.6-6.5,0.7c-8.8,0.7-17.6-0.3-25.5-4.4c-12.2-6.3-19.6-18.7-18-32.2
	c0.6-5.2,2.7-9.7,6.9-12.8c7.7-5.6,16.2-6.9,25.4-3.8c6.9,2.4,11.9,7.4,16.2,13.1c5.2,7.1,8.6,14.9,11.2,23c0.3,1,0.7,1.3,1.8,0.9
	c6.6-2.1,12.8-4.7,18.9-8.1c0.9-0.6,1-0.9,0.3-1.8c-3.5-4-6.5-8.4-8.7-13.3c-3.4-7.2-5.9-14.6-4.3-22.7c1.8-9,5.6-17,12.5-23
	c4.6-4,9.7-5.8,15.8-4.1c3.7,1,6.6,3.4,9.4,5.9c8,7.1,12.4,15.8,11.8,26.5c-0.3,5.9-2.2,11.4-5,16.7c-2.8,5.3-6.6,10-10.9,14.3
	c-0.4,0.4-1,0.6-0.1,1.3c5.9,4.4,12.4,8.1,19.5,10.3c0.7,0.1,0.9,0,1.2-0.6c0.4-1.3,0.9-2.5,1.3-3.8c3.5-8.8,7.8-17.3,14.5-24.3
	c8.6-9,18.7-13.1,31.1-10.9c5.3,0.9,10.2,3.1,12.7,8.3c4,7.8,4.4,15.9,0,23.9c-3.8,7.1-10,11.8-17.1,15.5
	c-10.5,5.3-21.4,8.3-33.2,7.1c-0.9-0.1-1.3,0.1-1.6,1.2c-1.9,7.8-3.1,15.8-4.1,23.7c-0.7,6.9-1.3,13.9-1.8,20.9
	c-0.6,10.2-1.3,20.4-1.8,30.5C337.6,407.4,337.5,415.2,337.6,423z M314.6,464.2c3.4,0,6.8,0,10.2,0c0.9,0,1.3-0.1,1.2-1.2
	c-0.4-7.7-0.9-15.3-1.3-22.9c-0.4-10.5-0.7-21.1-0.9-31.7c0-6.9,0.1-13.9,0.3-20.8c0.3-9.3,1-18.4,1.9-27.6
	c1.5-13,3.7-25.7,7.1-38.2c0.3-0.9,0-1.2-0.9-1.5c-9.4-2.9-17.8-7.7-25.5-13.7c-0.7-0.6-1.3-0.7-2.2-0.1c-7.7,5-15.9,8.8-24.5,11.8
	c-0.7,0.3-0.9,0.6-0.7,1.5c1.9,9.1,2.9,18.3,3.7,27.6c0.7,10,1,20.1,1.3,30.1c0.3,7.7,0.7,15.3,1.2,23c0.7,12.7,1.3,25.2,2.1,37.9
	c0.4,8,0.7,15.8,1.2,23.7c0,0.9,0.3,1.3,1.3,1.3C298.6,463.9,306.7,464.2,314.6,464.2z M335.1,489.7c11.2,0.3,23.3-0.3,35.1-3.1
	c3.4-0.7,6.8-1.8,9.7-3.7c2.8-1.9,3.1-4,0.9-6.5c-0.4-0.4-0.7-0.6-1.5-0.4c-4.7,1.2-9.6,1.3-14.5,1.6c-6.6,0.4-13.3,0.7-20.1,1.2
	c-9.6,0.6-19.2,1-28.8,1.2c-8.1,0.3-16.2,0-24.3-0.6c-4.9-0.3-9.9-0.7-14.7-1.2c-6.5-0.6-13.1-1.3-19.6-2.2
	c-4.9-0.6-9.9-0.9-14.7-2.1c-1.9-0.4-3.2,0-4.6,1c-1.3,1.2-1.3,1.9-0.1,3.1c1.6,1.5,3.5,2.2,5.6,2.9c11.1,3.8,22.3,5.9,33.9,6.6
	c8.3,0.4,16.5,0.9,24.9,1.2C313.2,489.4,323.6,489.8,335.1,489.7z M287.2,532.3c3.1-0.1,7.1-0.1,11.1-0.3
	c12.1-0.4,24.2-1.2,36.3-1.8c8.4-0.4,16.8-0.7,25.2-1.8c6-0.7,12.1-1.9,18-4.1c1.3-0.6,2.8-1.2,4-2.1c0.6-0.4,1-1,0.9-1.8
	c-0.4-1.3-2.5-2.5-4-2.2c-1.6,0.3-3.2,0.7-4.7,1c-12.7,2.4-25.5,2.8-38.3,2.9c-11.1,0.1-22.1-0.6-33.2-0.3
	c-10,0.3-20.2,0.1-30.2-0.4c-9-0.4-18-1.2-26.8-3.1c-0.7-0.1-1.2,0-1.6,0.7c-1.8,2.7-1.5,4.7,1,6.6c0.9,0.6,1.8,1.2,2.8,1.6
	c2.8,1.2,5.8,1.9,8.8,2.5C266.3,531.8,276.3,532.4,287.2,532.3z M333.4,509.3c0,0.1,0,0.3,0,0.4c8.8,0,17.6,0,26.3-0.7
	c5.9-0.4,11.8-1.2,17.6-2.8c2.4-0.7,4.7-1.5,6.8-2.9c1.5-1,2.7-2.4,2.5-4.4c-0.1-1.5-0.3-1.6-1.8-1.2c-0.7,0.3-1.5,0.6-2.2,0.7
	c-8.7,2.5-17.7,3.5-26.8,4.1c-6.6,0.4-13.4,0.6-20.2,0.4c-5-0.1-10-0.3-15-0.4c-10.9-0.4-21.8-1.3-32.7-1.2
	c-9.9,0.1-19.8,0.4-29.6-0.4c-7.2-0.6-14.3-1.6-20.9-4.4c-0.7-0.3-1-0.1-1.3,0.6c-1,2.5-0.4,4.6,1.9,6.3c1.9,1.3,4.1,2.1,6.3,2.7
	c7.1,1.8,14.5,2.2,21.8,2.5c9.1,0.4,18.4,0.7,27.6,0.9C306.8,509.3,320.1,509.3,333.4,509.3z M319.4,265.9
	c-0.1-4.6-1.5-9.9-4.9-14.5c-2.5-3.2-5.9-4.1-9.7-2.2c-6,2.9-9,8.1-8.6,15.5c0.7,9.6,5.3,17.3,11.5,24.3c0.4,0.6,0.9,0.4,1.2,0
	c1-1.2,2.2-2.4,3.2-3.7C316.4,279.9,319.4,274,319.4,265.9z M256.5,309.6c2.1-0.1,4.1-0.3,6.2-0.3c0.9,0,1.2-0.4,0.9-1.3
	c-0.9-2.9-1.9-5.8-3.5-8.4c-2.8-4.6-5.9-8.7-9.7-12.4c-2.9-2.9-6-5.6-10-7.1c-2.4-0.9-4.7-0.9-6.9,0.6c-3.7,2.5-6,8.7-4.9,12.8
	c1,4,3.8,6.8,6.8,9.3C241.5,308,248.7,309.6,256.5,309.6z M380.7,286c-3.1,0-6.2,0.3-9.3,0.6c-5.8,0.6-10.5,2.9-13.6,8.1
	c-2.9,4.9-5.5,9.7-7.5,15c-0.3,0.7-0.3,1,0.6,1c4.9,0.1,9.7-0.1,14.6-1.5c7.5-2.1,14-5.8,18.4-12.2c1.5-2.1,2.7-4.4,3.4-6.9
	c0.7-2.5,0.1-3.4-2.4-3.8C383.7,286,382.2,286,380.7,286z M303.9,554.4c4.1-0.1,8.8-0.1,13.6-1.3c4.4-1,6.6-3.8,6.8-8.4
	c0-0.7-0.1-1-0.9-0.9c-1.3,0.1-2.7,0.1-4,0.3c-6.9,0.3-14,0.7-20.9,1c-2.9,0.1-2.9,0.1-2.5,3.1C296.8,553.4,298,554.4,303.9,554.4z"
	/>
<path class="st2" d="M177.8,54.1c2.7,0.1,4.9,1.2,5.9,3.8c5.2,13.4,12.8,25.4,20.8,37.2c2.9,4.3,5.9,8.6,8.7,12.8
	c2.1,3.1,1.6,6.3-1.3,8.4c-3.1,2.1-6.9,1.6-9-1.3c-7.5-11.1-15.3-22.1-22-33.8c-3.4-6-6.3-12.4-9-18.7
	C170,57.7,173.3,54.3,177.8,54.1z"/>
<path class="st2" d="M510.2,280.4c11.7,0,21.1,0.7,30.5,1.6c3.5,0.3,7.2,0.6,10.8,0.9c4.6,0.3,7.5,4.9,5.9,9.1
	c-0.7,2.1-2.5,3.5-4.9,3.4c-4-0.1-7.8-0.6-11.7-0.9c-6.3-0.6-12.8-1.2-19.3-1.5c-8.4-0.4-16.8-0.3-25.2,0.6
	c-3.5,0.4-6.2-1.5-6.5-4.9c-0.4-4.1,1.9-7.4,5.8-7.7C501.2,280.7,506.8,280.4,510.2,280.4z"/>
<path class="st2" d="M64.8,282.7c8.7,0.1,18,0.9,27.3,1.9c5.2,0.6,10.3,1,15.5,1.8c4.4,0.6,6.9,5.6,5,9.6c-1,2.1-2.9,3.1-5.3,2.9
	c-6-0.6-11.9-1.3-18-1.9c-6.2-0.7-12.4-1.2-18.7-1.5c-6.2-0.3-12.2-0.1-18.3,0.3c-3.8,0.3-5.9-1-6.8-4c-1.2-4.1,1.8-8.3,5.9-8.6
	C55.5,282.9,59.8,282.7,64.8,282.7z"/>
<path class="st2" d="M525.1,414.7c0,2.8-1.6,5.2-3.7,6c-1.8,0.7-3.5,0.3-5.2-0.6c-7.4-4.1-14.7-8.3-22.3-12.1
	c-8.7-4.6-17.6-8.6-27-11.7c-3.8-1.2-5.3-3.8-4.3-7.2c1-3.7,4.6-5.8,8.1-4.7c7.5,2.2,14.6,5.3,21.7,8.7c9.9,4.7,19.3,10.2,29.1,15.5
	C523.9,410.2,525.1,412.1,525.1,414.7z"/>
<path class="st2" d="M152.3,383.6c4.1,0,7.4,3.7,6.8,7.5c-0.3,2.1-1.6,3.2-3.4,4.1c-6.5,2.9-13.1,5.9-19.6,8.8
	c-10.3,4.7-20.4,10-29.6,16.7c-2.8,1.9-5.9,1.5-7.8-1.2c-2.2-3.1-1.9-7.1,0.9-9.3c4.7-3.5,9.7-6.5,14.7-9.3
	c11.5-6.3,23.6-11.5,35.5-16.8c0.4-0.1,0.9-0.3,1.3-0.4C151.7,383.6,152.1,383.6,152.3,383.6z"/>
<path class="st2" d="M474.1,186c-0.1-3.5,1.3-5.3,3.4-6.6c6-4.3,12.4-8,19-11.4c9.9-5,20.1-9.4,30.1-14c2.5-1.2,5-0.9,7.1,1
	c1.9,1.8,2.9,3.8,2.2,6.5c-0.4,1.9-1.9,2.9-3.7,3.7c-9.3,4.1-18.7,8.3-27.9,13c-7.1,3.5-13.9,7.5-20.4,12.1c-1.9,1.5-4,2.1-6.2,0.9
	C475.1,189.7,474.1,187.6,474.1,186z"/>
<path class="st2" d="M83.8,150.3c0.7,0,1.6,0.3,2.4,0.6c17.4,7.1,33.8,15.9,49,27.1c3.2,2.4,3.8,6.2,1.6,9.6
	c-1.9,2.8-5.2,3.4-8.1,1.3c-3.4-2.5-6.8-4.9-10.3-7.2c-11.4-7.4-23.5-13.7-36-18.9c-4.1-1.6-5.8-6.2-3.4-10
	C80,151.2,81.5,150.3,83.8,150.3z"/>
<path class="st2" d="M399.9,109.9c0-1.5,0.4-2.8,1.3-4c8.7-11.2,15.8-23.6,22.7-36c1.6-2.9,3.2-5.9,4.9-8.8c1.9-3.2,5.2-4.1,8.4-2.4
	c3.1,1.8,4.4,5.3,2.7,8.4c-8.8,15.8-17.6,31.6-28.5,46c-1,1.5-2.2,2.9-4.1,3.4C403.9,117.6,399.9,114.2,399.9,109.9z"/>
<path class="st2" d="M299.4,45.3c0-5.3,0-10.8,0-16.1c0-3.2,2.5-5.6,5.9-5.6c3.4-0.1,6.2,2.1,6.5,5.2c0.4,4.9,0,9.9,0,14.9
	c0,8-0.3,15.9-0.7,23.7c-0.3,5.3-0.6,10.6-1,15.9c-0.4,4.7-6.2,7.4-10,4.6c-1.8-1.2-2.5-2.9-2.4-5c0.4-6.6,0.9-13.3,1-19.9
	C299,57.1,299.3,51.2,299.4,45.3z"/>
</svg>
