<?xml version="1.0" encoding="utf-8"?>
<!-- Generator: Adobe Illustrator 26.0.1, SVG Export Plug-In . SVG Version: 6.00 Build 0)  -->
<svg version="1.1" id="Layer_1" xmlns="http://www.w3.org/2000/svg" xmlns:xlink="http://www.w3.org/1999/xlink" x="0px" y="0px"
	 viewBox="0 0 595.3 595.3" style="enable-background:new 0 0 595.3 595.3;" xml:space="preserve">
<style type="text/css">
	.st0{fill:none;}
	.st1{fill:#599A9D;}
</style>
<rect x="16.2" y="34.1" class="st0" width="585.3" height="546.4"/>
<path class="st1" d="M411.2,153.5c0.9,0.3,1.8,0.5,2.7,0.6c11.5,0.9,23.1,1.7,34.5,2.7c8.9,0.9,17.7,1.8,26.6,3.4
	c12.2,2,24.3,4.4,35.7,9.2c6.7,2.7,13.4,5.8,18.2,11.8c2.6,3.1,3.8,6.9,3.8,10.8c0,10.2-0.3,20.6,0,30.9c0.3,9.2-4.3,15.1-11.6,19.6
	c-8.7,5.2-18.3,8.7-28.3,10.5c-12.5,2.6-25.2,5-37.9,7c-8.9,1.4-17.9,1.7-26.7,2.1c-12.1,0.6-24.3,1.2-36.4,1.2
	c-12.7,0-25.4-0.2-38-1.4c-14.7-1.4-29.2-3.5-43.7-5.7c-12.2-1.7-24.3-5-35.6-9.9c-7-3.1-14.2-6.4-17.6-14.1c-1.1-2.9-1.7-6-1.7-9.2
	c-0.2-9,0.3-18-0.2-26.9c-0.6-11.2,4.7-17.9,13.9-22.8c9.6-5,19.9-8.6,30.5-10.4c15.6-3.2,30.9-5.7,46.1-7.5
	c9.5-1.2,18.9-1.1,28.4-1.5c1.2-0.2,2.3-0.3,3.5-0.6H411.2z M394.7,166.8v0.6c-4.1,0-8.4-0.3-12.5,0c-18,1.2-36,2.1-53.9,4.1
	c-14.8,1.4-29.3,4.6-43.2,9.8c-4.7,2-9.3,4.4-13.6,7.3c-2.3,1.4-2.1,3.2,0.2,4.6c1.7,1.4,3.7,2.6,5.7,3.7c9,3.2,17.9,6.7,27.2,8.9
	c10.1,2.3,20.3,4,30.7,5c12.5,1.4,25.2,2.6,37.9,3.1c14.4,0.5,28.9,0.6,43.2,0s28.7-1.8,43.1-3.5c10.2-1.2,20.5-3.2,30.5-5.7
	c8.9-2.1,17.6-4.7,25.4-9.8c4.7-3.1,4.9-5.5,0-7.8c-7-3.5-14.4-6.6-21.8-8.9c-8.1-2.3-16.5-4.1-24.9-5.2c-9.3-1.5-18.8-2.7-28.1-3.5
	C425.1,168.1,409.8,167.7,394.7,166.8z M403.8,227.9c-6,0-11.8,0-17.6,0.2c-0.6,0-1.7,1.4-1.7,2c-0.2,5.8-0.2,11.6,0,17.4
	c0.3,0.9,0.9,1.7,1.8,1.8c5.8,0.2,11.5,0.2,17.4,0.2L403.8,227.9z M370.4,248.8v-21.4l-14.7-0.8v21.2L370.4,248.8z M417.9,248
	c4.6,0,9,0,13.4-0.2c0.6,0,1.5-1.2,1.5-1.8c0.2-5.8,0.2-11.6,0-17.4c-0.3-0.9-0.9-1.5-1.8-1.8c-4.3,0.2-8.7,0.5-13.1,0.8L417.9,248z
	 M458.8,224.2c-3.8,0.5-7.3,0.6-10.5,1.2c-0.6,0.2-1.4,1.4-1.4,2.1c-0.2,5.7-0.2,11.3,0,17c0,0.6,1.1,1.8,1.5,1.8
	c2.7-0.2,5.7-0.3,8.4-0.9c0.9-0.3,1.7-1.1,1.8-2.1C459,237.2,458.8,231.1,458.8,224.2L458.8,224.2z M329.6,224.5
	c0,6.4-0.2,12.5,0.2,18.6c0.3,1.1,1.1,2,2,2.3c3.2,0.5,6.4,0.6,9.8,0.9v-20.6c-3.2-0.5-6.3-0.9-9.2-1.2
	C331.4,224.4,330.5,224.5,329.6,224.5L329.6,224.5z M473,243.1c2.1-0.3,3.8-0.6,5.5-0.9c1.5,0.2,2.9-1.1,2.9-2.7c0-0.3,0-0.5,0-0.8
	c-0.2-3.5,0-7,0-10.5c0-7.8,0-7.8-7.8-6.3c-0.2,0-0.3,0.3-0.6,0.5V243.1z M307.3,220.8c0,6.4,0,12.8,0,19.2c0.2,0.8,0.6,1.5,1.2,1.8
	c2.3,0.6,4.6,0.8,7.3,1.2v-12.5c0-8.2,0-8.2-7.8-9.9C307.8,220.7,307.6,220.7,307.3,220.8L307.3,220.8z M500.5,216.6l-0.8-0.9
	c-1.7,1.1-4.6,2.1-4.7,3.2c-0.5,6.1-0.3,12.4-0.3,18.9c2.6-0.6,5.7,0.5,5.7-3.4C500.5,228.6,500.5,222.5,500.5,216.6L500.5,216.6z
	 M293.6,238.1v-16.3c0-4.7-0.8-5.5-5.8-5V236L293.6,238.1z M514.6,228.9c0.8,0,1.1,0.2,1.2,0c2.3-1.1,3.5-3.5,3.2-6.1
	c-0.2-4.4,0-9,0-13.7c-3.4,0.8-4.6,2.1-4.4,5C514.7,219.2,514.6,224.1,514.6,228.9L514.6,228.9z M272.8,229.6l1.1-0.6
	c0-5-0.2-10.1,0-15c0.2-3.1-1.2-4.1-4.3-4.4c0,5.5-0.2,10.8,0.2,16.2C269.9,227,271.7,228.2,272.8,229.6L272.8,229.6z"/>
<path class="st1" d="M359.9,464.9c-4.7-0.5-9.5-0.8-14.2-1.2c-9.9-0.9-19.9-1.4-29.6-2.7c-12.2-1.7-24.3-3.5-36.4-6.1
	c-10.8-2.3-21.4-5.7-30.7-11.8c-6.3-4.1-10.4-9.6-9.9-17.9c0.5-9.9,0.3-19.9,0-29.9c-0.2-6.9,2.1-12.5,7.8-16.5
	c3.8-2.6,7.6-4.9,11.8-6.7c3.2-1.7,7.2-0.5,8.9,2.7c0.2,0.2,0.2,0.5,0.3,0.6c1.5,3.8,0,7.2-4,9.2c-3.1,1.4-6,3.1-8.6,4.9
	c-3.5,2.4-3.5,4.1,0.3,6.3c5.5,3.1,11,6.3,17,7.8c11.8,3.4,23.5,6,35.6,7.8c12.5,1.8,25.1,3.1,37.7,3.7c13.3,0.6,26.7,0.6,40,0.6
	c11.6-0.2,23.2-0.5,34.8-1.4c18.5-1.4,36.8-4.3,54.8-8.6c11.5-2.9,21.8-8.4,32.4-13.4c2.4-1.2,4.9-1.7,6.7,0.2
	c1.2,1.5,1.7,3.5,1.7,5.5c0.2,8.9-0.3,17.7,0,26.6c0.3,8.9-4,14.5-11,18.9c-7.9,5-16.8,7.9-25.8,10.4c-16.2,4.3-32.7,7-49.5,8.4
	c-10.7,0.9-21.4,1.4-31.9,2.1c-0.8,0.2-1.4,0.3-2.1,0.6L359.9,464.9z M367.8,429.5c0,6.9-0.2,13.1,0.2,19.2c0.3,1.1,1.1,1.8,2.1,2.1
	c5,0.2,10.1,0.2,15.1,0c0.9-0.2,1.7-0.9,2-1.8c0.2-6.1,0.2-12.1,0.2-18.5L367.8,429.5z M401.4,429.5v20.9c4.4-0.2,8.6-0.3,12.7-0.6
	c0.8,0,2-0.9,2-1.5c0.2-6.4,0.2-13,0.2-19.9L401.4,429.5z M338.9,428.4c0,6.9,0,13.1,0.2,19.2c0.3,0.9,0.9,1.7,1.8,2
	c4.1,0.3,8.4,0.5,12.7,0.6v-20.8L338.9,428.4z M313.4,447.1l11.6,1.4v-21.1l-11.6-1.5V447.1z M441.9,446.9V426l-11.8,1.5
	c0,6.6,0,12.4,0,18.3c0,2.1,0.8,2.7,2.7,2.4C435.8,447.7,438.7,447.4,441.9,446.9L441.9,446.9z M456.1,444.9c2.7-0.6,4.9-1.1,7-1.7
	c0.8-0.3,1.4-0.9,1.5-1.7c0.2-6.3,0-12.7,0-19.2c-2.6,0.5-4.9,0.6-7.2,1.1c-0.6,0.3-1.2,0.8-1.4,1.5
	C455.9,431.5,456.1,437.9,456.1,444.9L456.1,444.9z M291,443.1c2,0.5,3.7,0.8,5.5,1.2c2,0.6,2.7-0.2,2.7-2.3c0-5.2,0-10.5-0.2-15.7
	c0-1.1-0.6-2.1-1.5-2.7c-2.1-0.5-4.4-0.8-6.7-0.9L291,443.1z M484,417.1c-2.3,1.2-5.3,2.1-5.3,3.1c-0.5,6.3-0.3,12.7-0.3,19.1
	c4.7-0.2,5.5-0.6,5.5-3.1C484,430.3,484,424.3,484,417.1L484,417.1z M271,417.9c0,5.8,0,11.2,0,16.6c0,4,1.2,4.9,5.7,4.3v-15
	C276.8,419.1,276.8,419.1,271,417.9L271,417.9z M257.2,431.5c0-5.8-0.2-10.8,0-16c0.2-3.4-1.5-4.3-4.7-4.6c0,4.9,0.2,9.6,0,14.2
	C252.5,428.4,254.2,430.1,257.2,431.5L257.2,431.5z M498.1,431.3c3.4-1.5,4.3-2.7,4.3-5.5c0-4.1,0-8.1,0-12.1
	c-0.2-1.2-0.3-2.6-0.5-3.8c-1.8,1.8-3.7,2.9-3.7,4C497.9,419.6,498.1,425.4,498.1,431.3z"/>
<path class="st1" d="M55.4,445.1c-9.8,0-16.3-2.9-20.9-10.4c-5.5-8.9-11.5-17.4-17.3-26.1c-3.8-5.5-3.1-11.5-0.9-17.1
	c4.1-11.3,11.9-20.2,19.9-29c12.2-13.3,25.7-25.4,40-36.2C86.9,318,97.7,310,109,302.4c11.3-7.6,22.9-15.1,34.7-22.1
	c18-11,37-20,56.8-27.2c9-3.2,18.2-5.8,27.8-6.3c9-0.5,16,2.3,20.9,10.7c4.9,8.4,11,16.3,16.6,24.6c4,5.8,3.7,12.1,1.2,18.3
	c-3.4,8.7-9,16.2-15.1,23.2c-11.3,13.3-24,25.4-37.6,36.2c-14.1,11.3-28.7,21.8-43.7,32.2c-17,11.9-34.8,22.5-53.6,31.5
	c-11.2,5.3-22.6,10.2-34.2,15C74.2,442.2,64.9,444.3,55.4,445.1z M229,260.3c-3.4,0.6-7.6,0.8-11.6,2.1
	c-11.6,4.1-23.5,7.9-34.5,13.3c-15.7,7.5-31.2,15.7-46,24.9c-15.9,9.9-31.2,21.1-46.3,32.2c-17.7,12.8-33.9,27.6-48.4,44.1
	c-5.3,6.3-10.5,12.7-13.3,20.8c-1.1,3.1-0.6,4,2.7,4.1c3.4,0.5,6.7,0.3,9.9-0.5c8.1-2.1,16-4.6,24-7.5c19.2-6.9,37.1-16.5,54.2-27.2
	c17.1-10.7,33.6-22.3,50.1-33.9c19.1-13.4,36.5-29.2,51.9-46.7c5.5-6.1,10.5-12.7,13.3-20.6c1.2-3.7,0.9-4.4-2.9-4.9L229,260.3z
	 M156.6,385.4c5-3.4,9.9-6.6,14.7-9.9c0.5-0.8,0.6-1.7,0.3-2.4c-3.4-5.3-7-10.7-10.7-16.2c-5.2,3.4-10.1,6.4-14.7,9.8
	c-0.6,0.5-0.6,2.4-0.2,3.2C149.2,374.8,152.7,379.7,156.6,385.4L156.6,385.4z M184,366.3c3.8-2.9,7.5-5.5,11-8.4
	c0.3-0.6,0.5-1.4,0.2-2c-3.5-5.3-7-10.7-10.8-16.5c-2.9,2.4-6,4.7-9.2,6.9c-2.9,1.7-2.4,3.4-0.9,5.3
	C177.2,356.3,180.4,361.1,184,366.3L184,366.3z M120,382.8c3.8,5.7,7.3,11,11,16.3c0.3,0.5,2,0.3,2.7,0c2.9-1.5,5.8-3.7,8.7-5.2
	c2-1.1,1.8-2.1,0.9-3.5c-3.1-4.4-6.1-8.7-8.9-13.1c-1.2-2-2.4-1.8-4-0.8C127.2,378.3,123.9,380.5,120,382.8z M97.1,395.3
	c2.1,3.2,4,6.1,6,8.9c7.2,9.9,3.1,9.9,15.1,3.5c0.3-0.2,0.5-0.5,1.1-1.1c-3.5-5.2-7.2-10.5-10.8-15.9c-0.6-0.5-1.4-0.6-2.1-0.5
	C103.4,391.9,100.5,393.4,97.1,395.3z M204.2,323.2c-1.2,1.1-2.3,1.8-3.4,2.7c-5.8,5-5.8,5-1.5,11.5c2.4,3.7,4.9,7.2,7.6,11
	c2.7-2.4,5.3-4.4,7.6-6.7c0.6-0.9,0.6-2.1,0.2-3.1C211.4,333.6,207.9,328.5,204.2,323.2z M84,401.4c-1.8,0.8-3.7,1.5-5.5,2.4
	c-0.8,0.6-1.1,1.7-0.8,2.6c3.1,4.7,6.1,9.5,9.5,13.9c0.8,0.8,2,1.1,3.1,0.8c2-0.9,3.8-2,5.5-3.1c-0.2-0.5-0.5-0.9-0.8-1.4
	c-3.1-4.7-6.3-9.3-9.3-14.1C85.2,402.2,84.6,401.7,84,401.4L84,401.4z M232,324.6c-3.7-5.5-7.5-11-11.5-17l-5.7,6.1
	c3.7,5.5,7.5,11,11.8,17.4L232,324.6z M74.4,426.9c-0.3-0.8-0.6-1.4-0.9-2c-2.6-3.8-5.2-7.8-7.8-11.6c-2.6-3.8-3.4-4-7.8-1.1
	c1.4,2.1,2.7,4.1,4.1,6.3c1.4,2.1,2.9,4.3,4.4,6.3C69.5,428.9,69.5,428.9,74.4,426.9L74.4,426.9z M241.6,313.7c4-2.1,4.4-3.7,2.3-7
	c-2-3.1-4-6-6-8.9c-1.1-1.7-2.3-3.2-3.5-4.9h-1.2c-0.6,1.8-2.4,4.3-1.8,5.3C234.5,303.6,238.1,308.7,241.6,313.7L241.6,313.7z
	 M38.6,416.1c2.7,4.1,5.7,8.1,8.1,12.1c1.7,2.7,3.8,3.4,7.5,2.9c-2.9-4.3-5.8-8.2-8.2-12.4C44.3,415.9,42.3,414.5,38.6,416.1z
	 M245.8,277.4c-2.6,2.9-2.7,3.4-0.9,6c2.4,3.7,5,7.5,7.5,11.2c0.5,0.5,0.9,0.9,1.4,1.2l1.1-0.3c-0.3-2-0.2-4.4-1.1-6.1
	C251.3,285.2,248.5,281.5,245.8,277.4L245.8,277.4z"/>
<path class="st1" d="M437.9,330.8c-7.9,0-16,0.5-24-0.2c-13.6-0.9-27.2-2-40.6-3.8c-11.6-1.5-23.2-3.7-34.7-6.1
	c-10.5-2.3-20.6-5.8-29.6-11.8c-6.1-4.1-9.9-9.5-9.6-17.4c0.3-7.5-0.3-15.1,0-22.6c-0.2-4.1,3.1-7.5,7-7.6c0.8,0,1.5,0,2.3,0.3
	c4.3,1.1,8.4,2.6,12.4,4.4c7.5,3.4,15.1,6.3,23.4,7.3c4.7,0.6,9.3,2.4,14.2,3.2c6.4,1.2,12.8,2.1,19.2,2.7
	c21.8,2.3,43.8,3.2,65.7,2.7c14.1-0.3,28.1-0.9,42.2-2c15.9-0.9,31.6-3.5,47-7.5c8.4-2.4,16.6-5.7,24.6-9.2c2-0.8,4.3-3.1,4.4-4.9
	c0.2-1.4-2.4-3.7-4.3-4.6c-4.4-2.3-9-4.3-13.6-6.1c-3.5-1.2-5.7-4.9-4.7-8.6c0.9-3.5,4.6-5.5,7.9-4.6c9,2.7,17.9,6,24.6,13.1
	c2.9,2.7,4.4,6.6,4.4,10.5c-0.2,11-0.5,22,0.2,32.8c0.3,8.2-3.7,13.6-9.9,17.9c-7.8,5-16.3,8.6-25.4,10.4c-11,2.6-22.1,5.2-33.3,6.9
	c-10.4,1.7-21.1,2.3-31.6,2.9c-12.7,0.8-25.5,1.2-38.2,1.8L437.9,330.8z M447.7,296.1c-6,0-11.8,0-17.6,0c-0.6,0-1.8,0.9-1.8,1.5
	c-0.2,6.4,0,12.8,0,19.2h19.6L447.7,296.1z M399.3,295.7c0,6.3,0,12.2,0.2,18.2c0.3,1.1,1.1,1.8,2,2.1c3.5,0.5,7.2,0.6,10.7,0.6
	c1.1-0.3,2-1.1,2.3-2.1c0.2-5.5,0.2-11.2,0-16.6c0-0.8-1.1-2.1-1.7-2.1C408.4,295.5,404,295.7,399.3,295.7L399.3,295.7z
	 M476.6,295.4c-4.6,0-8.6-0.2-12.5,0.2c-1.2,0.5-2,1.4-2.3,2.6c-0.3,5.3,0,10.7-0.2,16c0,2,0.8,2.7,2.7,2.6
	c3.4-0.3,6.7-0.3,10.1-0.8c1.1-0.3,1.8-1.1,2.1-2.1C476.7,307.9,476.6,301.8,476.6,295.4L476.6,295.4z M502.2,313.4v-20.9l-11.5,1.2
	v21.2L502.2,313.4z M385.4,314.5c0-6.4,0-12.7,0-18.8c-0.3-0.8-0.9-1.5-1.8-1.7c-3.2-0.5-6.4-0.6-9.9-0.8v10.5
	c0,10.2,0,10.2,10.4,11C384.1,314.6,384.5,314.6,385.4,314.5z M524.8,288.8c-2.6,0.5-4.7,0.8-6.7,1.2c-0.6,0.2-1.7,0.9-1.7,1.5
	c-0.2,6.4,0,13,0,19.9c2.7-0.6,5-0.9,7.2-1.5c0.6-0.3,1.1-0.9,1.4-1.5C524.8,301.8,524.8,295.4,524.8,288.8L524.8,288.8z
	 M359.4,311.3c0-6.7,0-12.8,0-19.1c-0.2-0.8-0.5-1.4-1.2-1.7c-2.3-0.6-4.6-0.9-7.3-1.5c0,6.7,0,12.7,0.2,18.8
	c0.2,0.8,0.6,1.5,1.4,1.8C354.5,310.4,356.7,310.7,359.4,311.3z M538.9,305.9c6.3-1.2,5.7-0.9,5.7-6.6c0-5,0-9.9,0-15.4l-5.7,1.8
	V305.9z M336.9,305.9c0-5.2,0-10.4,0-15.6c0-4.1-0.9-4.9-5.5-4.4v13.9C331.4,304.9,331.4,304.9,336.9,305.9L336.9,305.9z
	 M562.7,277.4c-3.1,0.5-4.9,1.4-4.7,4.6c0.2,2.7,0,5.7,0,8.6v7.2c3.5-1.4,4.6-2.6,4.6-5C562.9,287.6,562.9,282.7,562.7,277.4
	L562.7,277.4z M313.1,278.1c0,5.5-0.2,10.4,0,15.4c0.2,2.4,1.8,3.7,4.6,4.1c-0.3-5.2-0.8-10.1-0.6-14.8
	C317.4,280,316,278.9,313.1,278.1L313.1,278.1z"/>
<path class="st1" d="M409.8,348.4c13.3-0.5,24.7-0.5,36-1.4c12.7-1.1,25.4-2.4,37.9-4.4c9.9-1.4,19.7-3.5,29.3-6.3
	c6.9-2,13.1-5.8,19.9-8.7c3.5-1.5,7.2-2.9,11-4c2.1-0.6,4.4,0.8,5,2.9c0.2,0.5,0.2,0.9,0.2,1.4c0.3,10.1,0.6,20.2,0.5,30.2
	c0,8.4-5,13.9-11.9,17.9c-9,5.2-18.9,8.9-29.2,10.7c-12.8,2.4-25.5,5.2-38.5,6.9c-11.6,1.5-23.5,1.8-35.3,2.3
	c-13.3,0.5-26.4,0.9-39.7,0.6c-12.7-0.3-25.2-1.2-37.9-2.6c-13.6-1.5-27.2-3.4-40.6-6.1c-11.9-2.4-23.5-5.8-33.9-12.5
	c-7-4.6-10.7-10.5-10.4-19.2c0.5-9.8,0.2-19.7,0-29.6c-0.2-8.7,4.7-14.2,11.8-18c2.4-1.4,5.5-0.6,7,1.8c0.5,0.8,0.6,1.5,0.6,2.4
	c0.3,0.9,0.5,2,0.5,2.9c-0.2,1.4-0.5,2.6-0.8,4c0,0.3-0.5,0.3-0.8,0.6c-5.8,4.6-5.8,5.3,0.5,9.3c7.6,4.9,16.2,7.2,24.9,9.3
	c7.3,1.8,15,3.1,22.5,4.1c9.6,1.4,19.2,2.9,28.9,3.7C382,347.5,397,347.9,409.8,348.4z M420.5,361.8c-6.1,0-11.8,0-17.4,0.2
	c-0.9,0.3-1.7,1.1-2,2.1c-0.2,5.5-0.2,11.2,0,16.6c0.3,0.9,1.1,1.8,2,2.1c5,0.2,10.2,0.2,15.4,0c0.6,0,1.8-0.9,1.8-1.5
	C420.7,375,420.5,368.5,420.5,361.8L420.5,361.8z M372.5,361.1v20.6c4.4,0.3,8.7,0.8,13,0.8c0.6,0,1.8-1.2,1.8-1.8
	c0.2-5.8,0.2-11.6,0-17.4c-0.3-0.9-1.1-1.8-2-2.1C381.2,361.1,377.1,361.1,372.5,361.1z M434.9,382.4c4.6-0.2,8.9-0.3,13.1-0.6
	c0.6-0.2,1.2-0.8,1.4-1.4c0.2-6.6,0-13,0-19.7l-14.7,0.9L434.9,382.4z M358.3,380.5c0-6.9,0-13-0.2-19.1c-0.2-0.9-0.9-1.7-1.8-2
	c-3.2-0.5-6.4-0.8-10.1-1.1c0,6.7,0,13,0,19.4c0.3,0.8,0.9,1.5,1.7,1.7C351.5,379.9,354.7,380,358.3,380.5z M475.5,358.3
	c-3.8,0.5-7.3,0.8-10.7,1.4c-0.6,0.2-1.2,0.8-1.4,1.4c-0.2,6.3,0,12.5,0,19.4c3.7-0.5,7-0.8,10.2-1.2c0.8-0.2,2-1.1,2-1.5
	C475.6,371.3,475.5,365,475.5,358.3z M323.8,354.3v13.6c0,7,0,7,6.7,8.6c0.5,0,0.8,0.2,1.8,0.3c0-6.7,0-13.1,0-19.7
	c0-0.5-0.9-1.2-1.5-1.4C328.7,355.3,326.6,355,323.8,354.3L323.8,354.3z M489.2,376.6c2.1-0.2,4.3-0.5,6.3-0.8
	c0.9-0.3,2.4-1.5,2.4-2.3c0.2-5.5,0.2-11.2,0-16.6c-0.3-0.9-0.9-1.5-1.8-1.8c-5.8,0.2-6.9,1.2-6.9,7V376.6L489.2,376.6z
	 M517.6,350.2c-6.3,0.9-6.3,0.9-6,6.3c0,1.7,0,3.5,0,5.2v10.2c2.6-0.8,5.8,0.2,6-3.7C517.6,362.3,517.5,356.3,517.6,350.2
	L517.6,350.2z M304.6,350.5v15.7c0,4.4,0.6,5,5.7,5v-15.7C310.2,350.8,309.9,350.7,304.6,350.5L304.6,350.5z M530.9,363.2
	c4.1-1.2,5.2-3.1,5-6.7c-0.3-3.5-0.3-7-0.6-10.4c0-0.9-0.2-1.8-0.3-2.9c-2.1,0.9-4.1,1.2-4.1,4C531.1,352.4,530.9,357.6,530.9,363.2
	L530.9,363.2z M286.4,343.2c0,5.7-0.2,11.2,0.2,16.5c0,1.2,2.1,2.3,3.2,3.5c0.8-5.3,0.6-10.2,0.9-15
	C290.7,345.5,289.9,344,286.4,343.2z"/>
</svg>
