<?xml version="1.0" encoding="utf-8"?>
<!-- Generator: Adobe Illustrator 26.0.1, SVG Export Plug-In . SVG Version: 6.00 Build 0)  -->
<svg version="1.1" id="Layer_1" xmlns="http://www.w3.org/2000/svg" xmlns:xlink="http://www.w3.org/1999/xlink" x="0px" y="0px"
	 viewBox="0 0 368.1 203.9" style="enable-background:new 0 0 368.1 203.9;" xml:space="preserve">
<style type="text/css">
	.st0{fill:#599A9D;}
</style>
<path class="st0" d="M259.8,0c0.6,0.2,1.2,0.3,1.8,0.4c7.5,0.6,15.1,1.1,22.6,1.8c5.8,0.6,11.6,1.2,17.4,2.2c8,1.3,15.9,2.9,23.4,6
	c4.4,1.8,8.8,3.8,11.9,7.7c1.7,2,2.5,4.5,2.5,7.1c0,6.7-0.2,13.5,0,20.2c0.2,6-2.8,9.9-7.6,12.8c-5.7,3.4-12,5.7-18.5,6.9
	c-8.2,1.7-16.5,3.3-24.8,4.6c-5.8,0.9-11.7,1.1-17.5,1.4c-7.9,0.4-15.9,0.8-23.8,0.8c-8.3,0-16.6-0.1-24.9-0.9
	c-9.6-0.9-19.1-2.3-28.6-3.7c-8-1.1-15.9-3.3-23.3-6.5c-4.6-2-9.3-4.2-11.5-9.2c-0.7-1.9-1.1-3.9-1.1-6c-0.1-5.9,0.2-11.8-0.1-17.6
	c-0.4-7.3,3.1-11.7,9.1-14.9c6.3-3.3,13-5.6,20-6.8C197,4.2,207,2.6,217,1.4c6.2-0.8,12.4-0.7,18.6-1c0.8-0.1,1.5-0.2,2.3-0.4
	L259.8,0z M249,8.7v0.4c-2.7,0-5.5-0.2-8.2,0c-11.8,0.8-23.6,1.4-35.3,2.7c-9.7,0.9-19.2,3-28.3,6.4c-3.1,1.3-6.1,2.9-8.9,4.8
	c-1.5,0.9-1.4,2.1,0.1,3c1.1,0.9,2.4,1.7,3.7,2.4c5.9,2.1,11.7,4.4,17.8,5.8c6.6,1.5,13.3,2.6,20.1,3.3c8.2,0.9,16.5,1.7,24.8,2
	c9.4,0.3,18.9,0.4,28.3,0c9.4-0.4,18.8-1.2,28.2-2.3c6.7-0.8,13.4-2.1,20-3.7c5.8-1.4,11.5-3.1,16.6-6.4c3.1-2,3.2-3.6,0-5.1
	c-4.6-2.3-9.4-4.3-14.3-5.8c-5.3-1.5-10.8-2.7-16.3-3.4c-6.1-1-12.3-1.8-18.4-2.3C268.9,9.6,258.9,9.3,249,8.7z M255,48.7
	c-3.9,0-7.7,0-11.5,0.1c-0.4,0-1.1,0.9-1.1,1.3c-0.1,3.8-0.1,7.6,0,11.4c0.2,0.6,0.6,1.1,1.2,1.2c3.8,0.1,7.5,0.1,11.4,0.1L255,48.7
	z M233.1,62.4v-14l-9.6-0.5v13.9L233.1,62.4z M264.2,61.9c3,0,5.9,0,8.8-0.1c0.4,0,1-0.8,1-1.2c0.1-3.8,0.1-7.6,0-11.4
	c-0.2-0.6-0.6-1-1.2-1.2c-2.8,0.1-5.7,0.3-8.6,0.5L264.2,61.9z M291,46.3c-2.5,0.3-4.8,0.4-6.9,0.8c-0.4,0.1-0.9,0.9-0.9,1.4
	c-0.1,3.7-0.1,7.4,0,11.1c0,0.4,0.7,1.2,1,1.2c1.8-0.1,3.7-0.2,5.5-0.6c0.6-0.2,1.1-0.7,1.2-1.4C291.1,54.8,291,50.8,291,46.3
	L291,46.3z M206.4,46.5c0,4.2-0.1,8.2,0.1,12.2c0.2,0.7,0.7,1.3,1.3,1.5c2.1,0.3,4.2,0.4,6.4,0.6V47.3c-2.1-0.3-4.1-0.6-6-0.8
	C207.6,46.4,207,46.5,206.4,46.5L206.4,46.5z M300.3,58.7c1.4-0.2,2.5-0.4,3.6-0.6c1,0.1,1.9-0.7,1.9-1.8c0-0.2,0-0.3,0-0.5
	c-0.1-2.3,0-4.6,0-6.9c0-5.1,0-5.1-5.1-4.1c-0.1,0-0.2,0.2-0.4,0.3L300.3,58.7z M191.8,44.1c0,4.2,0,8.4,0,12.6
	c0.1,0.5,0.4,1,0.8,1.2c1.5,0.4,3,0.5,4.8,0.8v-8.2c0-5.4,0-5.4-5.1-6.5C192.1,44,192,44,191.8,44.1L191.8,44.1z M318.3,41.3
	l-0.5-0.6c-1.1,0.7-3,1.4-3.1,2.1c-0.3,4-0.2,8.1-0.2,12.4c1.7-0.4,3.7,0.3,3.7-2.2C318.3,49.2,318.3,45.2,318.3,41.3L318.3,41.3z
	 M182.8,55.4V44.7c0-3.1-0.5-3.6-3.8-3.3v12.6L182.8,55.4z M327.5,49.4c0.5,0,0.7,0.1,0.8,0c1.5-0.7,2.3-2.3,2.1-4
	c-0.1-2.9,0-5.9,0-9c-2.2,0.5-3,1.4-2.9,3.3C327.6,43,327.5,46.2,327.5,49.4L327.5,49.4z M169.2,49.8l0.7-0.4c0-3.3-0.1-6.6,0-9.8
	c0.1-2-0.8-2.7-2.8-2.9c0,3.6-0.1,7.1,0.1,10.6C167.3,48.1,168.5,48.9,169.2,49.8L169.2,49.8z"/>
<path class="st0" d="M226.2,203.9c-3.1-0.3-6.2-0.5-9.3-0.8c-6.5-0.6-13-0.9-19.4-1.8c-8-1.1-15.9-2.3-23.8-4
	c-7.1-1.5-14-3.7-20.1-7.7c-4.1-2.7-6.8-6.3-6.5-11.7c0.3-6.5,0.2-13,0-19.6c-0.1-4.5,1.4-8.2,5.1-10.8c2.5-1.7,5-3.2,7.7-4.4
	c2.1-1.1,4.7-0.3,5.8,1.8c0.1,0.1,0.1,0.3,0.2,0.4c1,2.5,0,4.7-2.6,6c-2,0.9-3.9,2-5.6,3.2c-2.3,1.6-2.3,2.7,0.2,4.1
	c3.6,2,7.2,4.1,11.1,5.1c7.7,2.2,15.4,3.9,23.3,5.1c8.2,1.2,16.4,2,24.7,2.4c8.7,0.4,17.5,0.4,26.2,0.4c7.6-0.1,15.2-0.3,22.8-0.9
	c12.1-0.9,24.1-2.8,35.9-5.6c7.5-1.9,14.3-5.5,21.2-8.8c1.6-0.8,3.2-1.1,4.4,0.1c0.8,1,1.1,2.3,1.1,3.6c0.1,5.8-0.2,11.6,0,17.4
	c0.2,5.8-2.6,9.5-7.2,12.4c-5.2,3.3-11,5.2-16.9,6.8c-10.6,2.8-21.4,4.6-32.4,5.5c-7,0.6-14,0.9-20.9,1.4c-0.5,0.1-0.9,0.2-1.4,0.4
	L226.2,203.9z M231.4,180.7c0,4.5-0.1,8.6,0.1,12.6c0.2,0.7,0.7,1.2,1.4,1.4c3.3,0.1,6.6,0.1,9.9,0c0.6-0.1,1.1-0.6,1.3-1.2
	c0.1-4,0.1-7.9,0.1-12.1L231.4,180.7z M253.4,180.7v13.7c2.9-0.1,5.6-0.2,8.3-0.4c0.5,0,1.3-0.6,1.3-1c0.1-4.2,0.1-8.5,0.1-13
	L253.4,180.7z M212.5,180c0,4.5,0,8.6,0.1,12.6c0.2,0.6,0.6,1.1,1.2,1.3c2.7,0.2,5.5,0.3,8.3,0.4v-13.6L212.5,180z M195.8,192.2
	l7.6,0.9v-13.8l-7.6-1V192.2z M279.9,192.1v-13.7l-7.7,1c0,4.3,0,8.1,0,12c0,1.4,0.5,1.8,1.8,1.6
	C275.9,192.6,277.8,192.4,279.9,192.1L279.9,192.1z M289.2,190.8c1.8-0.4,3.2-0.7,4.6-1.1c0.5-0.2,0.9-0.6,1-1.1
	c0.1-4.1,0-8.3,0-12.6c-1.7,0.3-3.2,0.4-4.7,0.7c-0.4,0.2-0.8,0.5-0.9,1C289.1,182,289.2,186.2,289.2,190.8L289.2,190.8z
	 M181.1,189.6c1.3,0.3,2.4,0.5,3.6,0.8c1.3,0.4,1.8-0.1,1.8-1.5c0-3.4,0-6.9-0.1-10.3c0-0.7-0.4-1.4-1-1.8c-1.4-0.3-2.9-0.5-4.4-0.6
	L181.1,189.6z M307.5,172.6c-1.5,0.8-3.5,1.4-3.5,2c-0.3,4.1-0.2,8.3-0.2,12.5c3.1-0.1,3.6-0.4,3.6-2
	C307.5,181.2,307.5,177.3,307.5,172.6L307.5,172.6z M168,173.1c0,3.8,0,7.3,0,10.9c0,2.6,0.8,3.2,3.7,2.8V177
	C171.8,173.9,171.8,173.9,168,173.1L168,173.1z M159,182c0-3.8-0.1-7.1,0-10.5c0.1-2.2-1-2.8-3.1-3c0,3.2,0.1,6.3,0,9.3
	C155.9,180,157,181.1,159,182L159,182z M316.7,181.9c2.2-1,2.8-1.8,2.8-3.6c0-2.7,0-5.3,0-7.9c-0.1-0.8-0.2-1.7-0.3-2.5
	c-1.2,1.2-2.4,1.9-2.4,2.6C316.6,174.2,316.7,178,316.7,181.9z"/>
<path class="st0" d="M26.9,190.9c-6.4,0-10.7-1.9-13.7-6.8c-3.6-5.8-7.5-11.4-11.3-17.1c-2.5-3.6-2-7.5-0.6-11.2
	c2.7-7.4,7.8-13.2,13-19c8-8.7,16.8-16.6,26.2-23.7c7-5.4,14.1-10.6,21.5-15.6s15-9.9,22.7-14.5c11.8-7.2,24.2-13.1,37.2-17.8
	c5.9-2.1,11.9-3.8,18.2-4.1c5.9-0.3,10.5,1.5,13.7,7s7.2,10.7,10.9,16.1c2.6,3.8,2.4,7.9,0.8,12c-2.2,5.7-5.9,10.6-9.9,15.2
	c-7.4,8.7-15.7,16.6-24.6,23.7c-9.2,7.4-18.8,14.3-28.6,21.1c-11.1,7.8-22.8,14.7-35.1,20.6c-7.3,3.5-14.8,6.7-22.4,9.8
	C39.2,189,33.1,190.4,26.9,190.9z M140.5,69.9c-2.2,0.4-5,0.5-7.6,1.4c-7.6,2.7-15.4,5.2-22.6,8.7c-10.3,4.9-20.4,10.3-30.1,16.3
	c-10.4,6.5-20.4,13.8-30.3,21.1c-11.6,8.4-22.2,18.1-31.7,28.9c-3.5,4.1-6.9,8.3-8.7,13.6c-0.7,2-0.4,2.6,1.8,2.7
	c2.2,0.3,4.4,0.2,6.5-0.3c5.3-1.4,10.5-3,15.7-4.9c12.6-4.5,24.3-10.8,35.5-17.8s22-14.6,32.8-22.2c12.5-8.8,23.9-19.1,34-30.6
	c3.6-4,6.9-8.3,8.7-13.5c0.8-2.4,0.6-2.9-1.9-3.2L140.5,69.9z M93.1,151.8c3.3-2.2,6.5-4.3,9.6-6.5c0.3-0.5,0.4-1.1,0.2-1.6
	c-2.2-3.5-4.6-7-7-10.6c-3.4,2.2-6.6,4.2-9.6,6.4c-0.4,0.3-0.4,1.6-0.1,2.1C88.3,144.9,90.6,148.1,93.1,151.8L93.1,151.8z
	 M111.1,139.3c2.5-1.9,4.9-3.6,7.2-5.5c0.2-0.4,0.3-0.9,0.1-1.3c-2.3-3.5-4.6-7-7.1-10.8c-1.9,1.6-3.9,3.1-6,4.5
	c-1.9,1.1-1.6,2.2-0.6,3.5C106.6,132.8,108.7,135.9,111.1,139.3L111.1,139.3z M69.2,150.1c2.5,3.7,4.8,7.2,7.2,10.7
	c0.2,0.3,1.3,0.2,1.8,0c1.9-1,3.8-2.4,5.7-3.4c1.3-0.7,1.2-1.4,0.6-2.3c-2-2.9-4-5.7-5.8-8.6c-0.8-1.3-1.6-1.2-2.6-0.5
	C73.9,147.2,71.7,148.6,69.2,150.1z M54.2,158.3c1.4,2.1,2.6,4,3.9,5.8c4.7,6.5,2,6.5,9.9,2.3c0.2-0.1,0.3-0.3,0.7-0.7
	c-2.3-3.4-4.7-6.9-7.1-10.4c-0.4-0.3-0.9-0.4-1.4-0.3C58.3,156.1,56.4,157.1,54.2,158.3z M124.3,111.1c-0.8,0.7-1.5,1.2-2.2,1.8
	c-3.8,3.3-3.8,3.3-1,7.5c1.6,2.4,3.2,4.7,5,7.2c1.8-1.6,3.5-2.9,5-4.4c0.4-0.6,0.4-1.4,0.1-2C129,117.9,126.7,114.6,124.3,111.1z
	 M45.6,162.3c-1.2,0.5-2.4,1-3.6,1.6c-0.5,0.4-0.7,1.1-0.5,1.7c2,3.1,4,6.2,6.2,9.1c0.5,0.5,1.3,0.7,2,0.5c1.3-0.6,2.5-1.3,3.6-2
	c-0.1-0.3-0.3-0.6-0.5-0.9c-2-3.1-4.1-6.1-6.1-9.2C46.4,162.8,46,162.5,45.6,162.3L45.6,162.3z M142.5,112
	c-2.4-3.6-4.9-7.2-7.5-11.1l-3.7,4c2.4,3.6,4.9,7.2,7.7,11.4L142.5,112z M39.3,179c-0.2-0.5-0.4-0.9-0.6-1.3
	c-1.7-2.5-3.4-5.1-5.1-7.6s-2.2-2.6-5.1-0.7c0.9,1.4,1.8,2.7,2.7,4.1s1.9,2.8,2.9,4.1C36.1,180.3,36.1,180.3,39.3,179L39.3,179z
	 M148.8,104.9c2.6-1.4,2.9-2.4,1.5-4.6c-1.3-2-2.6-3.9-3.9-5.8c-0.7-1.1-1.5-2.1-2.3-3.2h-0.8c-0.4,1.2-1.6,2.8-1.2,3.5
	C144.1,98.3,146.5,101.6,148.8,104.9L148.8,104.9z M15.9,171.9c1.8,2.7,3.7,5.3,5.3,7.9c1.1,1.8,2.5,2.2,4.9,1.9
	c-1.9-2.8-3.8-5.4-5.4-8.1C19.6,171.8,18.3,170.9,15.9,171.9z M151.5,81.1c-1.7,1.9-1.8,2.2-0.6,3.9c1.6,2.4,3.3,4.9,4.9,7.3
	c0.3,0.3,0.6,0.6,0.9,0.8l0.7-0.2c-0.2-1.3-0.1-2.9-0.7-4C155.1,86.2,153.3,83.8,151.5,81.1L151.5,81.1z"/>
<path class="st0" d="M277.3,116.1c-5.2,0-10.5,0.3-15.7-0.1c-8.9-0.6-17.8-1.3-26.6-2.5c-7.6-1-15.2-2.4-22.7-4
	c-6.9-1.5-13.5-3.8-19.4-7.7c-4-2.7-6.5-6.2-6.3-11.4c0.2-4.9-0.2-9.9,0-14.8c-0.1-2.7,2-4.9,4.6-5c0.5,0,1,0,1.5,0.2
	c2.8,0.7,5.5,1.7,8.1,2.9c4.9,2.2,9.9,4.1,15.3,4.8c3.1,0.4,6.1,1.6,9.3,2.1c4.2,0.8,8.4,1.4,12.6,1.8c14.3,1.5,28.7,2.1,43,1.8
	c9.2-0.2,18.4-0.6,27.6-1.3c10.4-0.6,20.7-2.3,30.8-4.9c5.5-1.6,10.9-3.7,16.1-6c1.3-0.5,2.8-2,2.9-3.2c0.1-0.9-1.6-2.4-2.8-3
	c-2.9-1.5-5.9-2.8-8.9-4c-2.3-0.8-3.7-3.2-3.1-5.6c0.6-2.3,3-3.6,5.2-3c5.9,1.8,11.7,3.9,16.1,8.6c1.9,1.8,2.9,4.3,2.9,6.9
	c-0.1,7.2-0.3,14.4,0.1,21.5c0.2,5.4-2.4,8.9-6.5,11.7c-5.1,3.3-10.7,5.6-16.6,6.8c-7.2,1.7-14.5,3.4-21.8,4.5
	c-6.8,1.1-13.8,1.5-20.7,1.9c-8.3,0.5-16.7,0.8-25,1.2L277.3,116.1z M283.7,93.4c-3.9,0-7.7,0-11.5,0c-0.4,0-1.2,0.6-1.2,1
	c-0.1,4.2,0,8.4,0,12.6h12.8L283.7,93.4z M252,93.1c0,4.1,0,8,0.1,11.9c0.2,0.7,0.7,1.2,1.3,1.4c2.3,0.3,4.7,0.4,7,0.4
	c0.7-0.2,1.3-0.7,1.5-1.4c0.1-3.6,0.1-7.3,0-10.9c0-0.5-0.7-1.4-1.1-1.4C258,93,255.1,93.1,252,93.1L252,93.1z M302.6,92.9
	c-3,0-5.6-0.1-8.2,0.1c-0.8,0.3-1.3,0.9-1.5,1.7c-0.2,3.5,0,7-0.1,10.5c0,1.3,0.5,1.8,1.8,1.7c2.2-0.2,4.4-0.2,6.6-0.5
	c0.7-0.2,1.2-0.7,1.4-1.4C302.7,101.1,302.6,97.1,302.6,92.9L302.6,92.9z M319.4,104.7V91l-7.5,0.8v13.9L319.4,104.7z M242.9,105.4
	c0-4.2,0-8.3,0-12.3c-0.2-0.5-0.6-1-1.2-1.1c-2.1-0.3-4.2-0.4-6.5-0.5v6.9c0,6.7,0,6.7,6.8,7.2C242.1,105.5,242.3,105.5,242.9,105.4
	z M334.2,88.6c-1.7,0.3-3.1,0.5-4.4,0.8c-0.4,0.1-1.1,0.6-1.1,1c-0.1,4.2,0,8.5,0,13c1.8-0.4,3.3-0.6,4.7-1c0.4-0.2,0.7-0.6,0.9-1
	C334.2,97.1,334.2,92.9,334.2,88.6L334.2,88.6z M225.9,103.3c0-4.4,0-8.4,0-12.5c-0.1-0.5-0.3-0.9-0.8-1.1c-1.5-0.4-3-0.6-4.8-1
	c0,4.4,0,8.3,0.1,12.3c0.1,0.5,0.4,1,0.9,1.2C222.7,102.7,224.1,102.9,225.9,103.3z M343.4,99.8c4.1-0.8,3.7-0.6,3.7-4.3
	c0-3.3,0-6.5,0-10.1l-3.7,1.2V99.8z M211.2,99.8c0-3.4,0-6.8,0-10.2c0-2.7-0.6-3.2-3.6-2.9v9.1C207.6,99.1,207.6,99.1,211.2,99.8
	L211.2,99.8z M359,81.1c-2,0.3-3.2,0.9-3.1,3c0.1,1.8,0,3.7,0,5.6v4.7c2.3-0.9,3-1.7,3-3.3C359.1,87.8,359.1,84.6,359,81.1L359,81.1
	z M195.6,81.6c0,3.6-0.1,6.8,0,10.1c0.1,1.6,1.2,2.4,3,2.7c-0.2-3.4-0.5-6.6-0.4-9.7C198.4,82.8,197.5,82.1,195.6,81.6L195.6,81.6z"
	/>
<path class="st0" d="M258.9,127.6c8.7-0.3,16.2-0.3,23.6-0.9c8.3-0.7,16.6-1.6,24.8-2.9c6.5-0.9,12.9-2.3,19.2-4.1
	c4.5-1.3,8.6-3.8,13-5.7c2.3-1,4.7-1.9,7.2-2.6c1.4-0.4,2.9,0.5,3.3,1.9c0.1,0.3,0.1,0.6,0.1,0.9c0.2,6.6,0.4,13.2,0.3,19.8
	c0,5.5-3.3,9.1-7.8,11.7c-5.9,3.4-12.4,5.8-19.1,7c-8.4,1.6-16.7,3.4-25.2,4.5c-7.6,1-15.4,1.2-23.1,1.5c-8.7,0.3-17.3,0.6-26,0.4
	c-8.3-0.2-16.5-0.8-24.8-1.7c-8.9-1-17.8-2.2-26.6-4c-7.8-1.6-15.4-3.8-22.2-8.2c-4.6-3-7-6.9-6.8-12.6c0.3-6.4,0.1-12.9,0-19.4
	c-0.1-5.7,3.1-9.3,7.7-11.8c1.6-0.9,3.6-0.4,4.6,1.2c0.3,0.5,0.4,1,0.4,1.6c0.2,0.6,0.3,1.3,0.3,1.9c-0.1,0.9-0.3,1.7-0.5,2.6
	c0,0.2-0.3,0.2-0.5,0.4c-3.8,3-3.8,3.5,0.3,6.1c5,3.2,10.6,4.7,16.3,6.1c4.8,1.2,9.8,2,14.7,2.7c6.3,0.9,12.6,1.9,18.9,2.4
	C240.7,127,250.5,127.3,258.9,127.6z M265.9,136.4c-4,0-7.7,0-11.4,0.1c-0.6,0.2-1.1,0.7-1.3,1.4c-0.1,3.6-0.1,7.3,0,10.9
	c0.2,0.6,0.7,1.2,1.3,1.4c3.3,0.1,6.7,0.1,10.1,0c0.4,0,1.2-0.6,1.2-1C266,145,265.9,140.8,265.9,136.4L265.9,136.4z M234.5,135.9
	v13.5c2.9,0.2,5.7,0.5,8.5,0.5c0.4,0,1.2-0.8,1.2-1.2c0.1-3.8,0.1-7.6,0-11.4c-0.2-0.6-0.7-1.2-1.3-1.4
	C240.2,135.9,237.5,135.9,234.5,135.9z M275.3,149.9c3-0.1,5.8-0.2,8.6-0.4c0.4-0.1,0.8-0.5,0.9-0.9c0.1-4.3,0-8.5,0-12.9l-9.6,0.6
	L275.3,149.9z M225.2,148.6c0-4.5,0-8.5-0.1-12.5c-0.1-0.6-0.6-1.1-1.2-1.3c-2.1-0.3-4.2-0.5-6.6-0.7c0,4.4,0,8.5,0,12.7
	c0.2,0.5,0.6,1,1.1,1.1C220.7,148.2,222.8,148.3,225.2,148.6z M301.9,134.1c-2.5,0.3-4.8,0.5-7,0.9c-0.4,0.1-0.8,0.5-0.9,0.9
	c-0.1,4.1,0,8.2,0,12.7c2.4-0.3,4.6-0.5,6.7-0.8c0.5-0.1,1.3-0.7,1.3-1C302,142.6,301.9,138.5,301.9,134.1z M202.6,131.5v8.9
	c0,4.6,0,4.6,4.4,5.6c0.3,0,0.5,0.1,1.2,0.2c0-4.4,0-8.6,0-12.9c0-0.3-0.6-0.8-1-0.9C205.8,132.1,204.4,131.9,202.6,131.5
	L202.6,131.5z M310.9,146.1c1.4-0.1,2.8-0.3,4.1-0.5c0.6-0.2,1.6-1,1.6-1.5c0.1-3.6,0.1-7.3,0-10.9c-0.2-0.6-0.6-1-1.2-1.2
	c-3.8,0.1-4.5,0.8-4.5,4.6L310.9,146.1L310.9,146.1z M329.5,128.8c-4.1,0.6-4.1,0.6-3.9,4.1c0,1.1,0,2.3,0,3.4v6.7
	c1.7-0.5,3.8,0.1,3.9-2.4C329.5,136.7,329.4,132.8,329.5,128.8L329.5,128.8z M190,129v10.3c0,2.9,0.4,3.3,3.7,3.3v-10.3
	C193.7,129.2,193.5,129.1,190,129L190,129z M338.2,137.3c2.7-0.8,3.4-2,3.3-4.4c-0.2-2.3-0.2-4.6-0.4-6.8c0-0.6-0.1-1.2-0.2-1.9
	c-1.4,0.6-2.7,0.8-2.7,2.6C338.3,130.2,338.2,133.6,338.2,137.3L338.2,137.3z M178.1,124.2c0,3.7-0.1,7.3,0.1,10.8
	c0,0.8,1.4,1.5,2.1,2.3c0.5-3.5,0.4-6.7,0.6-9.8C180.9,125.7,180.4,124.7,178.1,124.2z"/>
</svg>
